%TF.GenerationSoftware,KiCad,Pcbnew,(5.99.0-11674-g69322a18e7)*%
%TF.CreationDate,2021-08-29T21:05:58+01:00*%
%TF.ProjectId,ScubarLightController,53637562-6172-44c6-9967-6874436f6e74,rev?*%
%TF.SameCoordinates,Original*%
%TF.FileFunction,Soldermask,Bot*%
%TF.FilePolarity,Negative*%
%FSLAX46Y46*%
G04 Gerber Fmt 4.6, Leading zero omitted, Abs format (unit mm)*
G04 Created by KiCad (PCBNEW (5.99.0-11674-g69322a18e7)) date 2021-08-29 21:05:58*
%MOMM*%
%LPD*%
G01*
G04 APERTURE LIST*
%ADD10C,1.400000*%
%ADD11O,1.400000X1.400000*%
%ADD12R,1.500000X1.050000*%
%ADD13O,1.500000X1.050000*%
%ADD14R,1.700000X1.700000*%
%ADD15O,1.700000X1.700000*%
%ADD16C,6.400000*%
%ADD17C,0.800000*%
%ADD18R,2.600000X2.600000*%
%ADD19C,2.600000*%
%ADD20O,1.600000X1.600000*%
%ADD21R,1.600000X1.600000*%
%ADD22C,1.524000*%
%ADD23R,1.050000X1.500000*%
%ADD24O,1.050000X1.500000*%
%ADD25C,1.600000*%
%ADD26R,1.800000X1.800000*%
%ADD27C,1.800000*%
G04 APERTURE END LIST*
D10*
%TO.C,R23*%
X57522500Y-76200000D03*
D11*
X57522500Y-71120000D03*
%TD*%
D12*
%TO.C,Q3*%
X77859500Y-41910000D03*
D13*
X77859500Y-43180000D03*
X77859500Y-44450000D03*
%TD*%
D10*
%TO.C,R1*%
X30480000Y-76200000D03*
D11*
X30480000Y-71120000D03*
%TD*%
D14*
%TO.C,J14*%
X34036000Y-72898000D03*
D15*
X34036000Y-75438000D03*
%TD*%
D10*
%TO.C,R27*%
X68072000Y-71120000D03*
D11*
X68072000Y-76200000D03*
%TD*%
D16*
%TO.C,H3*%
X100336000Y-86606000D03*
D17*
X98638944Y-84908944D03*
X102033056Y-84908944D03*
X97936000Y-86606000D03*
X102033056Y-88303056D03*
X98638944Y-88303056D03*
X102736000Y-86606000D03*
X100336000Y-84206000D03*
X100336000Y-89006000D03*
%TD*%
%TO.C,H1*%
X19638944Y-88303056D03*
X21336000Y-84206000D03*
X19638944Y-84908944D03*
X23033056Y-88303056D03*
X23033056Y-84908944D03*
X18936000Y-86606000D03*
X21336000Y-89006000D03*
X23736000Y-86606000D03*
D16*
X21336000Y-86606000D03*
%TD*%
D18*
%TO.C,J12*%
X38354000Y-25908000D03*
D19*
X33354000Y-25908000D03*
%TD*%
D18*
%TO.C,J4*%
X97282000Y-56896000D03*
D19*
X97282000Y-51896000D03*
%TD*%
D20*
%TO.C,*%
X71374000Y-68834000D03*
%TD*%
D12*
%TO.C,Q6*%
X70747500Y-41910000D03*
D13*
X70747500Y-43180000D03*
X70747500Y-44450000D03*
%TD*%
D18*
%TO.C,J15*%
X51094000Y-84379000D03*
D19*
X56094000Y-84379000D03*
%TD*%
D10*
%TO.C,R25*%
X62992000Y-71120000D03*
D11*
X62992000Y-76200000D03*
%TD*%
D10*
%TO.C,R10*%
X90260000Y-40894000D03*
D11*
X90260000Y-45974000D03*
%TD*%
D10*
%TO.C,R5*%
X82804000Y-40640000D03*
D11*
X82804000Y-45720000D03*
%TD*%
D21*
%TO.C,U3*%
X86345000Y-30520000D03*
D20*
X83805000Y-30520000D03*
X81265000Y-30520000D03*
X78725000Y-30520000D03*
X76185000Y-30520000D03*
X73645000Y-30520000D03*
X71105000Y-30520000D03*
X68565000Y-30520000D03*
X68565000Y-38140000D03*
X71105000Y-38140000D03*
X73645000Y-38140000D03*
X76185000Y-38140000D03*
X78725000Y-38140000D03*
X81265000Y-38140000D03*
X83805000Y-38140000D03*
X86345000Y-38140000D03*
%TD*%
D21*
%TO.C,U5*%
X89154000Y-68834000D03*
D20*
X86614000Y-68834000D03*
X84074000Y-68834000D03*
X81534000Y-68834000D03*
X78994000Y-68834000D03*
X76454000Y-68834000D03*
X73914000Y-68834000D03*
X73914000Y-76454000D03*
X76454000Y-76454000D03*
X78994000Y-76454000D03*
X81534000Y-76454000D03*
X84074000Y-76454000D03*
X86614000Y-76454000D03*
X89154000Y-76454000D03*
%TD*%
D10*
%TO.C,R22*%
X54982500Y-71120000D03*
D11*
X54982500Y-76200000D03*
%TD*%
D10*
%TO.C,R13*%
X71120000Y-25440000D03*
D11*
X76200000Y-25440000D03*
%TD*%
D22*
%TO.C,U4*%
X58420000Y-40640000D03*
X55880000Y-40640000D03*
X53340000Y-40640000D03*
X50800000Y-40640000D03*
X48260000Y-40640000D03*
X45720000Y-40640000D03*
X43180000Y-40640000D03*
X40640000Y-40640000D03*
X38100000Y-40640000D03*
X35560000Y-40640000D03*
X33020000Y-40640000D03*
X30480000Y-40640000D03*
X27940000Y-40640000D03*
X25400000Y-40640000D03*
X22860000Y-40640000D03*
X58420000Y-66040000D03*
X55880000Y-66040000D03*
X53340000Y-66040000D03*
X50800000Y-66040000D03*
X48260000Y-66040000D03*
X45720000Y-66040000D03*
X43180000Y-66040000D03*
X40640000Y-66040000D03*
X38100000Y-66040000D03*
X35560000Y-66040000D03*
X33020000Y-66040000D03*
X30480000Y-66040000D03*
X27940000Y-66040000D03*
X25400000Y-66040000D03*
X22860000Y-66040000D03*
%TD*%
D14*
%TO.C,J17*%
X86868000Y-52324000D03*
D15*
X86868000Y-54864000D03*
%TD*%
D21*
%TO.C,U2*%
X82296000Y-50800000D03*
D20*
X79756000Y-50800000D03*
X77216000Y-50800000D03*
X74676000Y-50800000D03*
X72136000Y-50800000D03*
X69596000Y-50800000D03*
X67056000Y-50800000D03*
X64516000Y-50800000D03*
X64516000Y-58420000D03*
X67056000Y-58420000D03*
X69596000Y-58420000D03*
X72136000Y-58420000D03*
X74676000Y-58420000D03*
X77216000Y-58420000D03*
X79756000Y-58420000D03*
X82296000Y-58420000D03*
%TD*%
D14*
%TO.C,J9*%
X89154000Y-25908000D03*
D15*
X86614000Y-25908000D03*
%TD*%
D10*
%TO.C,R26*%
X65532000Y-71120000D03*
D11*
X65532000Y-76200000D03*
%TD*%
D23*
%TO.C,Q4*%
X76200000Y-63500000D03*
D24*
X74930000Y-63500000D03*
X73660000Y-63500000D03*
%TD*%
D12*
%TO.C,Q1*%
X39742500Y-76200000D03*
D13*
X39742500Y-74930000D03*
X39742500Y-73660000D03*
%TD*%
D10*
%TO.C,R20*%
X43552500Y-71120000D03*
D11*
X43552500Y-76200000D03*
%TD*%
D10*
%TO.C,R19*%
X27940000Y-71120000D03*
D11*
X27940000Y-76200000D03*
%TD*%
D10*
%TO.C,R2*%
X44450000Y-31750000D03*
D11*
X44450000Y-26670000D03*
%TD*%
D10*
%TO.C,R14*%
X64516000Y-47244000D03*
D11*
X69596000Y-47244000D03*
%TD*%
D18*
%TO.C,J8*%
X24384000Y-29504000D03*
D19*
X24384000Y-34504000D03*
%TD*%
D12*
%TO.C,Q5*%
X80100000Y-27940000D03*
D13*
X80100000Y-26670000D03*
X80100000Y-25400000D03*
%TD*%
D10*
%TO.C,R21*%
X46092500Y-76200000D03*
D11*
X46092500Y-71120000D03*
%TD*%
D12*
%TO.C,Q2*%
X24265500Y-76200000D03*
D13*
X24265500Y-74930000D03*
X24265500Y-73660000D03*
%TD*%
D20*
%TO.C,*%
X71374000Y-76454000D03*
%TD*%
D14*
%TO.C,J10*%
X86868000Y-44450000D03*
D15*
X86868000Y-41910000D03*
%TD*%
D12*
%TO.C,Q7*%
X51172500Y-76200000D03*
D13*
X51172500Y-74930000D03*
X51172500Y-73660000D03*
%TD*%
D10*
%TO.C,R12*%
X38100000Y-46990000D03*
D11*
X38100000Y-52070000D03*
%TD*%
D18*
%TO.C,J6*%
X28488000Y-84379000D03*
D19*
X33488000Y-84379000D03*
%TD*%
D18*
%TO.C,J13*%
X82376000Y-84379000D03*
D19*
X87376000Y-84379000D03*
X92376000Y-84379000D03*
%TD*%
D21*
%TO.C,C3*%
X95314900Y-75438000D03*
D25*
X97814900Y-75438000D03*
%TD*%
D14*
%TO.C,J18*%
X86868000Y-60960000D03*
D15*
X86868000Y-63500000D03*
%TD*%
D10*
%TO.C,R6*%
X64262000Y-63500000D03*
D11*
X69342000Y-63500000D03*
%TD*%
D26*
%TO.C,D1*%
X51313000Y-26670000D03*
D27*
X48773000Y-26670000D03*
%TD*%
D10*
%TO.C,R9*%
X90170000Y-29210000D03*
D11*
X90170000Y-34290000D03*
%TD*%
D18*
%TO.C,J11*%
X66120000Y-84379000D03*
D19*
X71120000Y-84379000D03*
X76120000Y-84379000D03*
%TD*%
D10*
%TO.C,R3*%
X58420000Y-60198000D03*
D11*
X58420000Y-55118000D03*
%TD*%
D18*
%TO.C,J2*%
X97282000Y-34290000D03*
D19*
X97282000Y-29290000D03*
%TD*%
D10*
%TO.C,R18*%
X90170000Y-64770000D03*
D11*
X90170000Y-59690000D03*
%TD*%
D18*
%TO.C,J1*%
X62738000Y-26162000D03*
D19*
X57738000Y-26162000D03*
%TD*%
D10*
%TO.C,R24*%
X60452000Y-76200000D03*
D11*
X60452000Y-71120000D03*
%TD*%
D18*
%TO.C,J7*%
X39878000Y-84328000D03*
D19*
X44878000Y-84328000D03*
%TD*%
D10*
%TO.C,R4*%
X48260000Y-60198000D03*
D11*
X48260000Y-55118000D03*
%TD*%
D10*
%TO.C,R17*%
X90260000Y-50800000D03*
D11*
X90260000Y-55880000D03*
%TD*%
D10*
%TO.C,R15*%
X47498000Y-36068000D03*
D11*
X52578000Y-36068000D03*
%TD*%
D10*
%TO.C,R11*%
X47498000Y-33274000D03*
D11*
X52578000Y-33274000D03*
%TD*%
D18*
%TO.C,J5*%
X97282000Y-68834000D03*
D19*
X97282000Y-63834000D03*
%TD*%
D17*
%TO.C,H2*%
X100336000Y-20206000D03*
X100336000Y-25006000D03*
X102033056Y-20908944D03*
X97936000Y-22606000D03*
X102033056Y-24303056D03*
X98638944Y-24303056D03*
X102736000Y-22606000D03*
D16*
X100336000Y-22606000D03*
D17*
X98638944Y-20908944D03*
%TD*%
D10*
%TO.C,R16*%
X40386000Y-47498000D03*
D11*
X40386000Y-52578000D03*
%TD*%
D10*
%TO.C,R8*%
X45720000Y-60198000D03*
D11*
X45720000Y-55118000D03*
%TD*%
D17*
%TO.C,H4*%
X18936000Y-22606000D03*
X23736000Y-22606000D03*
X19638944Y-20908944D03*
X23033056Y-20908944D03*
X23033056Y-24303056D03*
D16*
X21336000Y-22606000D03*
D17*
X19638944Y-24303056D03*
X21336000Y-25006000D03*
X21336000Y-20206000D03*
%TD*%
D10*
%TO.C,R7*%
X55880000Y-60198000D03*
D11*
X55880000Y-55118000D03*
%TD*%
D18*
%TO.C,J3*%
X97282000Y-45680000D03*
D19*
X97282000Y-40680000D03*
%TD*%
M02*
