M48
; DRILL file {KiCad (5.99.0-11674-g69322a18e7)} date Sun Aug 29 20:03:24 2021
; FORMAT={-:-/ absolute / metric / decimal}
; #@! TF.CreationDate,2021-08-29T20:03:24+01:00
; #@! TF.GenerationSoftware,Kicad,Pcbnew,(5.99.0-11674-g69322a18e7)
; #@! TF.FileFunction,MixedPlating,1,2
FMAT,2
METRIC
; #@! TA.AperFunction,Plated,PTH,ViaDrill
T1C0.400
; #@! TA.AperFunction,Plated,PTH,ComponentDrill
T2C0.500
; #@! TA.AperFunction,Plated,PTH,ComponentDrill
T3C0.700
; #@! TA.AperFunction,Plated,PTH,ComponentDrill
T4C0.750
; #@! TA.AperFunction,Plated,PTH,ComponentDrill
T5C0.762
; #@! TA.AperFunction,Plated,PTH,ComponentDrill
T6C0.800
; #@! TA.AperFunction,Plated,PTH,ComponentDrill
T7C0.900
; #@! TA.AperFunction,Plated,PTH,ComponentDrill
T8C1.000
; #@! TA.AperFunction,Plated,PTH,ComponentDrill
T9C1.300
; #@! TA.AperFunction,Plated,PTH,ComponentDrill
T10C3.200
%
G90
G05
T1
X72.136Y-53.34
X74.676Y-53.34
X77.216Y-48.26
T2
X18.936Y-22.606
X18.936Y-86.606
X19.639Y-20.909
X19.639Y-24.303
X19.639Y-84.909
X19.639Y-88.303
X21.336Y-20.206
X21.336Y-25.006
X21.336Y-84.206
X21.336Y-89.006
X23.033Y-20.909
X23.033Y-24.303
X23.033Y-84.909
X23.033Y-88.303
X23.736Y-22.606
X23.736Y-86.606
X97.936Y-22.606
X97.936Y-86.606
X98.639Y-20.909
X98.639Y-24.303
X98.639Y-84.909
X98.639Y-88.303
X100.336Y-20.206
X100.336Y-25.006
X100.336Y-84.206
X100.336Y-89.006
X102.033Y-20.909
X102.033Y-24.303
X102.033Y-84.909
X102.033Y-88.303
X102.736Y-22.606
X102.736Y-86.606
T3
X27.94Y-71.12
X27.94Y-76.2
X30.48Y-71.12
X30.48Y-76.2
X38.1Y-46.99
X38.1Y-52.07
X40.64Y-46.99
X40.64Y-52.07
X43.552Y-71.12
X43.552Y-76.2
X44.45Y-26.67
X44.45Y-31.75
X45.72Y-55.118
X45.72Y-60.198
X46.093Y-71.12
X46.093Y-76.2
X47.498Y-33.274
X47.498Y-36.068
X48.26Y-55.118
X48.26Y-60.198
X52.578Y-33.274
X52.578Y-36.068
X54.982Y-71.12
X54.982Y-76.2
X55.88Y-55.118
X55.88Y-60.198
X57.523Y-71.12
X57.523Y-76.2
X58.42Y-55.118
X58.42Y-60.198
X60.452Y-71.12
X60.452Y-76.2
X62.992Y-71.12
X62.992Y-76.2
X64.262Y-63.5
X64.516Y-47.244
X65.532Y-71.12
X65.532Y-76.2
X68.072Y-71.12
X68.072Y-76.2
X69.342Y-63.5
X69.596Y-47.244
X71.12Y-25.44
X76.2Y-25.44
X82.804Y-40.64
X82.804Y-45.72
X90.17Y-29.21
X90.17Y-34.29
X90.17Y-59.69
X90.17Y-64.77
X90.26Y-40.894
X90.26Y-45.974
X90.26Y-50.8
X90.26Y-55.88
T4
X24.265Y-73.66
X24.265Y-74.93
X24.265Y-76.2
X39.742Y-73.66
X39.742Y-74.93
X39.742Y-76.2
X51.172Y-73.66
X51.172Y-74.93
X51.172Y-76.2
X70.748Y-41.91
X70.748Y-43.18
X70.748Y-44.45
X73.66Y-63.5
X74.93Y-63.5
X76.2Y-63.5
X77.859Y-41.91
X77.859Y-43.18
X77.859Y-44.45
X80.1Y-25.4
X80.1Y-26.67
X80.1Y-27.94
T5
X22.86Y-40.64
X22.86Y-66.04
X25.4Y-40.64
X25.4Y-66.04
X27.94Y-40.64
X27.94Y-66.04
X30.48Y-40.64
X30.48Y-66.04
X33.02Y-40.64
X33.02Y-66.04
X35.56Y-40.64
X35.56Y-66.04
X38.1Y-40.64
X38.1Y-66.04
X40.64Y-40.64
X40.64Y-66.04
X43.18Y-40.64
X43.18Y-66.04
X45.72Y-40.64
X45.72Y-66.04
X48.26Y-40.64
X48.26Y-66.04
X50.8Y-40.64
X50.8Y-66.04
X53.34Y-40.64
X53.34Y-66.04
X55.88Y-40.64
X55.88Y-66.04
X58.42Y-40.64
X58.42Y-66.04
T6
X64.516Y-50.8
X64.516Y-58.42
X67.056Y-50.8
X67.056Y-58.42
X68.565Y-30.52
X68.565Y-38.14
X69.596Y-50.8
X69.596Y-58.42
X71.105Y-30.52
X71.105Y-38.14
X71.374Y-68.834
X71.374Y-76.454
X72.136Y-50.8
X72.136Y-58.42
X73.645Y-30.52
X73.645Y-38.14
X73.914Y-68.834
X73.914Y-76.454
X74.676Y-50.8
X74.676Y-58.42
X76.185Y-30.52
X76.185Y-38.14
X76.454Y-68.834
X76.454Y-76.454
X77.216Y-50.8
X77.216Y-58.42
X78.725Y-30.52
X78.725Y-38.14
X78.994Y-68.834
X78.994Y-76.454
X79.756Y-50.8
X79.756Y-58.42
X81.265Y-30.52
X81.265Y-38.14
X81.534Y-68.834
X81.534Y-76.454
X82.296Y-50.8
X82.296Y-58.42
X83.805Y-30.52
X83.805Y-38.14
X84.074Y-68.834
X84.074Y-76.454
X86.345Y-30.52
X86.345Y-38.14
X86.614Y-68.834
X86.614Y-76.454
X89.154Y-68.834
X89.154Y-76.454
X95.315Y-75.438
X97.815Y-75.438
T7
X48.773Y-26.67
X51.313Y-26.67
T8
X34.036Y-72.898
X34.036Y-75.438
X86.614Y-25.908
X86.868Y-41.91
X86.868Y-44.45
X86.868Y-52.324
X86.868Y-54.864
X86.868Y-60.96
X86.868Y-63.5
X89.154Y-25.908
T9
X24.384Y-29.504
X24.384Y-34.504
X28.488Y-84.379
X33.354Y-25.908
X33.488Y-84.379
X38.354Y-25.908
X39.878Y-84.328
X44.878Y-84.328
X51.094Y-84.379
X56.094Y-84.379
X57.738Y-26.162
X62.738Y-26.162
X66.12Y-84.379
X71.12Y-84.379
X76.12Y-84.379
X82.376Y-84.379
X87.376Y-84.379
X92.376Y-84.379
X97.282Y-29.29
X97.282Y-34.29
X97.282Y-40.68
X97.282Y-45.68
X97.282Y-51.896
X97.282Y-56.896
X97.282Y-63.834
X97.282Y-68.834
T10
X21.336Y-22.606
X21.336Y-86.606
X100.336Y-22.606
X100.336Y-86.606
T0
M30
