%TF.GenerationSoftware,KiCad,Pcbnew,(5.99.0-11674-g69322a18e7)*%
%TF.CreationDate,2021-09-14T17:31:02+01:00*%
%TF.ProjectId,ScubarLightController,53637562-6172-44c6-9967-6874436f6e74,rev?*%
%TF.SameCoordinates,Original*%
%TF.FileFunction,Copper,L2,Bot*%
%TF.FilePolarity,Positive*%
%FSLAX46Y46*%
G04 Gerber Fmt 4.6, Leading zero omitted, Abs format (unit mm)*
G04 Created by KiCad (PCBNEW (5.99.0-11674-g69322a18e7)) date 2021-09-14 17:31:02*
%MOMM*%
%LPD*%
G01*
G04 APERTURE LIST*
%TA.AperFunction,ComponentPad*%
%ADD10C,1.400000*%
%TD*%
%TA.AperFunction,ComponentPad*%
%ADD11O,1.400000X1.400000*%
%TD*%
%TA.AperFunction,ComponentPad*%
%ADD12R,1.500000X1.050000*%
%TD*%
%TA.AperFunction,ComponentPad*%
%ADD13O,1.500000X1.050000*%
%TD*%
%TA.AperFunction,ComponentPad*%
%ADD14R,1.700000X1.700000*%
%TD*%
%TA.AperFunction,ComponentPad*%
%ADD15O,1.700000X1.700000*%
%TD*%
%TA.AperFunction,ComponentPad*%
%ADD16C,6.400000*%
%TD*%
%TA.AperFunction,ComponentPad*%
%ADD17C,0.800000*%
%TD*%
%TA.AperFunction,ComponentPad*%
%ADD18R,2.600000X2.600000*%
%TD*%
%TA.AperFunction,ComponentPad*%
%ADD19C,2.600000*%
%TD*%
%TA.AperFunction,ComponentPad*%
%ADD20O,1.600000X1.600000*%
%TD*%
%TA.AperFunction,ComponentPad*%
%ADD21R,1.600000X1.600000*%
%TD*%
%TA.AperFunction,ComponentPad*%
%ADD22C,1.524000*%
%TD*%
%TA.AperFunction,ComponentPad*%
%ADD23R,1.050000X1.500000*%
%TD*%
%TA.AperFunction,ComponentPad*%
%ADD24O,1.050000X1.500000*%
%TD*%
%TA.AperFunction,ComponentPad*%
%ADD25C,1.600000*%
%TD*%
%TA.AperFunction,ComponentPad*%
%ADD26R,1.800000X1.800000*%
%TD*%
%TA.AperFunction,ComponentPad*%
%ADD27C,1.800000*%
%TD*%
%TA.AperFunction,ViaPad*%
%ADD28C,0.800000*%
%TD*%
%TA.AperFunction,Conductor*%
%ADD29C,0.500000*%
%TD*%
%TA.AperFunction,Conductor*%
%ADD30C,0.250000*%
%TD*%
G04 APERTURE END LIST*
D10*
%TO.P,R23,1*%
%TO.N,Net-(J15-Pad1)*%
X57522500Y-76200000D03*
D11*
%TO.P,R23,2*%
%TO.N,+5V*%
X57522500Y-71120000D03*
%TD*%
D12*
%TO.P,Q3,1,E*%
%TO.N,GND*%
X77859500Y-41910000D03*
D13*
%TO.P,Q3,2,B*%
%TO.N,Net-(Q3-Pad2)*%
X77859500Y-43180000D03*
%TO.P,Q3,3,C*%
%TO.N,Net-(Q3-Pad3)*%
X77859500Y-44450000D03*
%TD*%
D10*
%TO.P,R1,1*%
%TO.N,Net-(J14-Pad2)*%
X30480000Y-76200000D03*
D11*
%TO.P,R1,2*%
%TO.N,+5V*%
X30480000Y-71120000D03*
%TD*%
D14*
%TO.P,J14,1,Pin_1*%
%TO.N,+5V*%
X34036000Y-72898000D03*
D15*
%TO.P,J14,2,Pin_2*%
%TO.N,Net-(J14-Pad2)*%
X34036000Y-75438000D03*
%TD*%
D10*
%TO.P,R27,1*%
%TO.N,Net-(R27-Pad1)*%
X68072000Y-71120000D03*
D11*
%TO.P,R27,2*%
%TO.N,/Adressable RGB/RGB_4_OUT*%
X68072000Y-76200000D03*
%TD*%
D16*
%TO.P,H3,1,1*%
%TO.N,GND*%
X100336000Y-86606000D03*
D17*
X98638944Y-84908944D03*
X102033056Y-84908944D03*
X97936000Y-86606000D03*
X102033056Y-88303056D03*
X98638944Y-88303056D03*
X102736000Y-86606000D03*
X100336000Y-84206000D03*
X100336000Y-89006000D03*
%TD*%
%TO.P,H1,1,1*%
%TO.N,GND*%
X19638944Y-88303056D03*
X21336000Y-84206000D03*
X19638944Y-84908944D03*
X23033056Y-88303056D03*
X23033056Y-84908944D03*
X18936000Y-86606000D03*
X21336000Y-89006000D03*
X23736000Y-86606000D03*
D16*
X21336000Y-86606000D03*
%TD*%
D18*
%TO.P,J12,1,Pin_1*%
%TO.N,GND*%
X38354000Y-25908000D03*
D19*
%TO.P,J12,2,Pin_2*%
%TO.N,+5V*%
X33354000Y-25908000D03*
%TD*%
D18*
%TO.P,J4,1,Pin_1*%
%TO.N,Net-(J17-Pad2)*%
X97282000Y-56896000D03*
D19*
%TO.P,J4,2,Pin_2*%
%TO.N,/5V Fairy Lights/L1_A*%
X97282000Y-51896000D03*
%TD*%
D20*
%TO.P,,7,GND*%
%TO.N,GND*%
X71374000Y-68834000D03*
%TD*%
D12*
%TO.P,Q6,1,E*%
%TO.N,GND*%
X70747500Y-41910000D03*
D13*
%TO.P,Q6,2,B*%
%TO.N,Net-(Q6-Pad2)*%
X70747500Y-43180000D03*
%TO.P,Q6,3,C*%
%TO.N,Net-(Q6-Pad3)*%
X70747500Y-44450000D03*
%TD*%
D18*
%TO.P,J15,1,Pin_1*%
%TO.N,Net-(J15-Pad1)*%
X51094000Y-84379000D03*
D19*
%TO.P,J15,2,Pin_2*%
%TO.N,Net-(J15-Pad2)*%
X56094000Y-84379000D03*
%TD*%
D10*
%TO.P,R25,1*%
%TO.N,Net-(R25-Pad1)*%
X62992000Y-71120000D03*
D11*
%TO.P,R25,2*%
%TO.N,/Adressable RGB/RGB_2_OUT*%
X62992000Y-76200000D03*
%TD*%
D10*
%TO.P,R10,1*%
%TO.N,/31V Fairy Lights/L2_A*%
X90260000Y-40894000D03*
D11*
%TO.P,R10,2*%
%TO.N,Net-(J10-Pad1)*%
X90260000Y-45974000D03*
%TD*%
D10*
%TO.P,R5,1*%
%TO.N,+5V*%
X82804000Y-40640000D03*
D11*
%TO.P,R5,2*%
%TO.N,Net-(Q3-Pad3)*%
X82804000Y-45720000D03*
%TD*%
D21*
%TO.P,U3,1,EN1\u002C2*%
%TO.N,Net-(R15-Pad2)*%
X86345000Y-30520000D03*
D20*
%TO.P,U3,2,1A*%
%TO.N,Net-(Q5-Pad3)*%
X83805000Y-30520000D03*
%TO.P,U3,3,1Y*%
%TO.N,/31V Fairy Lights/L1_A*%
X81265000Y-30520000D03*
%TO.P,U3,4,GND*%
%TO.N,GND*%
X78725000Y-30520000D03*
%TO.P,U3,5,GND*%
X76185000Y-30520000D03*
%TO.P,U3,6,2Y*%
%TO.N,/31V Fairy Lights/L1_B*%
X73645000Y-30520000D03*
%TO.P,U3,7,2A*%
%TO.N,S1_SEL*%
X71105000Y-30520000D03*
%TO.P,U3,8,VCC2*%
%TO.N,+28V*%
X68565000Y-30520000D03*
%TO.P,U3,9,EN3\u002C4*%
%TO.N,Net-(R16-Pad2)*%
X68565000Y-38140000D03*
%TO.P,U3,10,3A*%
%TO.N,Net-(Q6-Pad3)*%
X71105000Y-38140000D03*
%TO.P,U3,11,3Y*%
%TO.N,/31V Fairy Lights/L2_A*%
X73645000Y-38140000D03*
%TO.P,U3,12,GND*%
%TO.N,GND*%
X76185000Y-38140000D03*
%TO.P,U3,13,GND*%
X78725000Y-38140000D03*
%TO.P,U3,14,4Y*%
%TO.N,/31V Fairy Lights/L2_B*%
X81265000Y-38140000D03*
%TO.P,U3,15,4A*%
%TO.N,S2_SEL*%
X83805000Y-38140000D03*
%TO.P,U3,16,VCC1*%
%TO.N,+5V*%
X86345000Y-38140000D03*
%TD*%
D21*
%TO.P,U5,1,1~{OE}*%
%TO.N,GND*%
X89154000Y-68834000D03*
D20*
%TO.P,U5,2,1A*%
%TO.N,RGB_DATA_1*%
X86614000Y-68834000D03*
%TO.P,U5,3,1Y*%
%TO.N,Net-(R24-Pad1)*%
X84074000Y-68834000D03*
%TO.P,U5,4,2~{OE}*%
%TO.N,GND*%
X81534000Y-68834000D03*
%TO.P,U5,5,2A*%
%TO.N,RGB_DATA_2*%
X78994000Y-68834000D03*
%TO.P,U5,6,2Y*%
%TO.N,Net-(R25-Pad1)*%
X76454000Y-68834000D03*
%TO.P,U5,7,GND*%
%TO.N,GND*%
X73914000Y-68834000D03*
%TO.P,U5,8,3Y*%
%TO.N,Net-(R26-Pad1)*%
X73914000Y-76454000D03*
%TO.P,U5,9,3A*%
%TO.N,RGB_DATA_3*%
X76454000Y-76454000D03*
%TO.P,U5,10,3~{OE}*%
%TO.N,GND*%
X78994000Y-76454000D03*
%TO.P,U5,11,4Y*%
%TO.N,Net-(R27-Pad1)*%
X81534000Y-76454000D03*
%TO.P,U5,12,4A*%
%TO.N,RGB_DATA_4*%
X84074000Y-76454000D03*
%TO.P,U5,13,4~{OE}*%
%TO.N,GND*%
X86614000Y-76454000D03*
%TO.P,U5,14,Vcc*%
%TO.N,+5V*%
X89154000Y-76454000D03*
%TD*%
D10*
%TO.P,R22,1*%
%TO.N,LED_3*%
X54982500Y-71120000D03*
D11*
%TO.P,R22,2*%
%TO.N,Net-(Q7-Pad2)*%
X54982500Y-76200000D03*
%TD*%
D10*
%TO.P,R13,1*%
%TO.N,+5V*%
X71120000Y-25440000D03*
D11*
%TO.P,R13,2*%
%TO.N,Net-(Q5-Pad3)*%
X76200000Y-25440000D03*
%TD*%
D22*
%TO.P,U4,1,EN*%
%TO.N,unconnected-(U4-Pad1)*%
X58420000Y-40640000D03*
%TO.P,U4,2,IO36/VP*%
%TO.N,unconnected-(U4-Pad2)*%
X55880000Y-40640000D03*
%TO.P,U4,3,IO39/VN*%
%TO.N,unconnected-(U4-Pad3)*%
X53340000Y-40640000D03*
%TO.P,U4,4,IO34*%
%TO.N,unconnected-(U4-Pad4)*%
X50800000Y-40640000D03*
%TO.P,U4,5,IO35*%
%TO.N,unconnected-(U4-Pad5)*%
X48260000Y-40640000D03*
%TO.P,U4,6,IO32*%
%TO.N,S1_PWM*%
X45720000Y-40640000D03*
%TO.P,U4,7,IO33*%
%TO.N,S1_SEL*%
X43180000Y-40640000D03*
%TO.P,U4,8,IO25*%
%TO.N,S2_PWM*%
X40640000Y-40640000D03*
%TO.P,U4,9,IO26*%
%TO.N,S2_SEL*%
X38100000Y-40640000D03*
%TO.P,U4,10,IO27*%
%TO.N,RGB_DATA_3*%
X35560000Y-40640000D03*
%TO.P,U4,11,IO14*%
%TO.N,RGB_DATA_4*%
X33020000Y-40640000D03*
%TO.P,U4,12,IO12*%
%TO.N,unconnected-(U4-Pad12)*%
X30480000Y-40640000D03*
%TO.P,U4,13,IO13*%
%TO.N,unconnected-(U4-Pad13)*%
X27940000Y-40640000D03*
%TO.P,U4,14,GND*%
%TO.N,GND*%
X25400000Y-40640000D03*
%TO.P,U4,15,VIN*%
%TO.N,Net-(J16-Pad1)*%
X22860000Y-40640000D03*
%TO.P,U4,16,IO23*%
%TO.N,S3_SEL*%
X58420000Y-66040000D03*
%TO.P,U4,17,IO22*%
%TO.N,S3_PWM*%
X55880000Y-66040000D03*
%TO.P,U4,18,IO1/TX0*%
%TO.N,unconnected-(U4-Pad18)*%
X53340000Y-66040000D03*
%TO.P,U4,19,IO3/RX0*%
%TO.N,unconnected-(U4-Pad19)*%
X50800000Y-66040000D03*
%TO.P,U4,20,IO21*%
%TO.N,S4_SEL*%
X48260000Y-66040000D03*
%TO.P,U4,21,IO19*%
%TO.N,S4_PWM*%
X45720000Y-66040000D03*
%TO.P,U4,22,IO18*%
%TO.N,LED_3*%
X43180000Y-66040000D03*
%TO.P,U4,23,IO5*%
%TO.N,RGB_DATA_1*%
X40640000Y-66040000D03*
%TO.P,U4,24,IO17/TX2*%
%TO.N,unconnected-(U4-Pad24)*%
X38100000Y-66040000D03*
%TO.P,U4,25,IO16/RX2*%
%TO.N,unconnected-(U4-Pad25)*%
X35560000Y-66040000D03*
%TO.P,U4,26,IO4*%
%TO.N,LED_2*%
X33020000Y-66040000D03*
%TO.P,U4,27,IO2*%
%TO.N,RGB_DATA_2*%
X30480000Y-66040000D03*
%TO.P,U4,28,IO15*%
%TO.N,LED_1*%
X27940000Y-66040000D03*
%TO.P,U4,29,GND*%
%TO.N,GND*%
X25400000Y-66040000D03*
%TO.P,U4,30,3V3*%
%TO.N,unconnected-(U4-Pad30)*%
X22860000Y-66040000D03*
%TD*%
D14*
%TO.P,J17,1,Pin_1*%
%TO.N,/5V Fairy Lights/L1_B*%
X86868000Y-52324000D03*
D15*
%TO.P,J17,2,Pin_2*%
%TO.N,Net-(J17-Pad2)*%
X86868000Y-54864000D03*
%TD*%
D21*
%TO.P,U2,1,EN1\u002C2*%
%TO.N,Net-(R7-Pad2)*%
X82296000Y-50800000D03*
D20*
%TO.P,U2,2,1A*%
%TO.N,Net-(Q3-Pad3)*%
X79756000Y-50800000D03*
%TO.P,U2,3,1Y*%
%TO.N,/5V Fairy Lights/L1_A*%
X77216000Y-50800000D03*
%TO.P,U2,4,GND*%
%TO.N,GND*%
X74676000Y-50800000D03*
%TO.P,U2,5,GND*%
X72136000Y-50800000D03*
%TO.P,U2,6,2Y*%
%TO.N,/5V Fairy Lights/L1_B*%
X69596000Y-50800000D03*
%TO.P,U2,7,2A*%
%TO.N,S3_SEL*%
X67056000Y-50800000D03*
%TO.P,U2,8,VCC2*%
%TO.N,+5V*%
X64516000Y-50800000D03*
%TO.P,U2,9,EN3\u002C4*%
%TO.N,Net-(R8-Pad2)*%
X64516000Y-58420000D03*
%TO.P,U2,10,3A*%
%TO.N,Net-(Q4-Pad3)*%
X67056000Y-58420000D03*
%TO.P,U2,11,3Y*%
%TO.N,/5V Fairy Lights/L2_A*%
X69596000Y-58420000D03*
%TO.P,U2,12,GND*%
%TO.N,GND*%
X72136000Y-58420000D03*
%TO.P,U2,13,GND*%
X74676000Y-58420000D03*
%TO.P,U2,14,4Y*%
%TO.N,/5V Fairy Lights/L2_B*%
X77216000Y-58420000D03*
%TO.P,U2,15,4A*%
%TO.N,S4_SEL*%
X79756000Y-58420000D03*
%TO.P,U2,16,VCC1*%
%TO.N,+5V*%
X82296000Y-58420000D03*
%TD*%
D14*
%TO.P,J9,1,Pin_1*%
%TO.N,/31V Fairy Lights/L1_B*%
X89154000Y-25908000D03*
D15*
%TO.P,J9,2,Pin_2*%
%TO.N,Net-(J2-Pad1)*%
X86614000Y-25908000D03*
%TD*%
D10*
%TO.P,R26,1*%
%TO.N,Net-(R26-Pad1)*%
X65532000Y-71120000D03*
D11*
%TO.P,R26,2*%
%TO.N,/Adressable RGB/RGB_3_OUT*%
X65532000Y-76200000D03*
%TD*%
D23*
%TO.P,Q4,1,E*%
%TO.N,GND*%
X76200000Y-63500000D03*
D24*
%TO.P,Q4,2,B*%
%TO.N,Net-(Q4-Pad2)*%
X74930000Y-63500000D03*
%TO.P,Q4,3,C*%
%TO.N,Net-(Q4-Pad3)*%
X73660000Y-63500000D03*
%TD*%
D12*
%TO.P,Q1,1,C*%
%TO.N,Net-(J7-Pad2)*%
X39742500Y-76200000D03*
D13*
%TO.P,Q1,2,B*%
%TO.N,Net-(Q1-Pad2)*%
X39742500Y-74930000D03*
%TO.P,Q1,3,E*%
%TO.N,GND*%
X39742500Y-73660000D03*
%TD*%
D10*
%TO.P,R20,1*%
%TO.N,LED_2*%
X43552500Y-71120000D03*
D11*
%TO.P,R20,2*%
%TO.N,Net-(Q1-Pad2)*%
X43552500Y-76200000D03*
%TD*%
D10*
%TO.P,R19,1*%
%TO.N,LED_1*%
X27940000Y-71120000D03*
D11*
%TO.P,R19,2*%
%TO.N,Net-(Q2-Pad2)*%
X27940000Y-76200000D03*
%TD*%
D10*
%TO.P,R2,1*%
%TO.N,+5V*%
X44450000Y-31750000D03*
D11*
%TO.P,R2,2*%
%TO.N,Net-(D1-Pad2)*%
X44450000Y-26670000D03*
%TD*%
D10*
%TO.P,R14,1*%
%TO.N,+5V*%
X64516000Y-47244000D03*
D11*
%TO.P,R14,2*%
%TO.N,Net-(Q6-Pad3)*%
X69596000Y-47244000D03*
%TD*%
D18*
%TO.P,J8,1,Pin_1*%
%TO.N,GND*%
X24384000Y-29504000D03*
D19*
%TO.P,J8,2,Pin_2*%
%TO.N,+5V*%
X24384000Y-34504000D03*
%TD*%
D12*
%TO.P,Q5,1,E*%
%TO.N,GND*%
X80100000Y-27940000D03*
D13*
%TO.P,Q5,2,B*%
%TO.N,Net-(Q5-Pad2)*%
X80100000Y-26670000D03*
%TO.P,Q5,3,C*%
%TO.N,Net-(Q5-Pad3)*%
X80100000Y-25400000D03*
%TD*%
D10*
%TO.P,R21,1*%
%TO.N,Net-(J7-Pad1)*%
X46092500Y-76200000D03*
D11*
%TO.P,R21,2*%
%TO.N,+5V*%
X46092500Y-71120000D03*
%TD*%
D12*
%TO.P,Q2,1,C*%
%TO.N,Net-(J6-Pad2)*%
X24265500Y-76200000D03*
D13*
%TO.P,Q2,2,B*%
%TO.N,Net-(Q2-Pad2)*%
X24265500Y-74930000D03*
%TO.P,Q2,3,E*%
%TO.N,GND*%
X24265500Y-73660000D03*
%TD*%
D20*
%TO.P,,7,GND*%
%TO.N,GND*%
X71374000Y-76454000D03*
%TD*%
D14*
%TO.P,J10,1,Pin_1*%
%TO.N,Net-(J10-Pad1)*%
X86868000Y-44450000D03*
D15*
%TO.P,J10,2,Pin_2*%
%TO.N,/31V Fairy Lights/L2_A*%
X86868000Y-41910000D03*
%TD*%
D12*
%TO.P,Q7,1,C*%
%TO.N,Net-(J15-Pad2)*%
X51172500Y-76200000D03*
D13*
%TO.P,Q7,2,B*%
%TO.N,Net-(Q7-Pad2)*%
X51172500Y-74930000D03*
%TO.P,Q7,3,E*%
%TO.N,GND*%
X51172500Y-73660000D03*
%TD*%
D10*
%TO.P,R12,1*%
%TO.N,S2_SEL*%
X38100000Y-46990000D03*
D11*
%TO.P,R12,2*%
%TO.N,Net-(Q6-Pad2)*%
X38100000Y-52070000D03*
%TD*%
D18*
%TO.P,J6,1,Pin_1*%
%TO.N,Net-(J14-Pad2)*%
X28488000Y-84379000D03*
D19*
%TO.P,J6,2,Pin_2*%
%TO.N,Net-(J6-Pad2)*%
X33488000Y-84379000D03*
%TD*%
D18*
%TO.P,J13,1,Pin_1*%
%TO.N,GND*%
X82376000Y-84379000D03*
D19*
%TO.P,J13,2,Pin_2*%
%TO.N,/Adressable RGB/RGB_1_OUT*%
X87376000Y-84379000D03*
%TO.P,J13,3,Pin_3*%
%TO.N,+5V*%
X92376000Y-84379000D03*
%TD*%
D21*
%TO.P,C3,1*%
%TO.N,+5V*%
X95314900Y-75438000D03*
D25*
%TO.P,C3,2*%
%TO.N,GND*%
X97814900Y-75438000D03*
%TD*%
D14*
%TO.P,J18,1,Pin_1*%
%TO.N,Net-(J18-Pad1)*%
X86868000Y-60960000D03*
D15*
%TO.P,J18,2,Pin_2*%
%TO.N,/5V Fairy Lights/L2_A*%
X86868000Y-63500000D03*
%TD*%
D10*
%TO.P,R6,1*%
%TO.N,+5V*%
X64262000Y-63500000D03*
D11*
%TO.P,R6,2*%
%TO.N,Net-(Q4-Pad3)*%
X69342000Y-63500000D03*
%TD*%
D26*
%TO.P,D1,1,K*%
%TO.N,GND*%
X51313000Y-26670000D03*
D27*
%TO.P,D1,2,A*%
%TO.N,Net-(D1-Pad2)*%
X48773000Y-26670000D03*
%TD*%
D14*
%TO.P,J16,1,Pin_1*%
%TO.N,Net-(J16-Pad1)*%
X35819000Y-34544000D03*
D15*
%TO.P,J16,2,Pin_2*%
%TO.N,+5V*%
X33279000Y-34544000D03*
%TD*%
D10*
%TO.P,R9,1*%
%TO.N,/31V Fairy Lights/L1_B*%
X90170000Y-29210000D03*
D11*
%TO.P,R9,2*%
%TO.N,Net-(J2-Pad1)*%
X90170000Y-34290000D03*
%TD*%
D18*
%TO.P,J11,1,Pin_1*%
%TO.N,/Adressable RGB/RGB_4_OUT*%
X66120000Y-84379000D03*
D19*
%TO.P,J11,2,Pin_2*%
%TO.N,/Adressable RGB/RGB_3_OUT*%
X71120000Y-84379000D03*
%TO.P,J11,3,Pin_3*%
%TO.N,/Adressable RGB/RGB_2_OUT*%
X76120000Y-84379000D03*
%TD*%
D10*
%TO.P,R3,1*%
%TO.N,S3_SEL*%
X58420000Y-60198000D03*
D11*
%TO.P,R3,2*%
%TO.N,Net-(Q3-Pad2)*%
X58420000Y-55118000D03*
%TD*%
D18*
%TO.P,J2,1,Pin_1*%
%TO.N,Net-(J2-Pad1)*%
X97282000Y-34290000D03*
D19*
%TO.P,J2,2,Pin_2*%
%TO.N,/31V Fairy Lights/L1_A*%
X97282000Y-29290000D03*
%TD*%
D10*
%TO.P,R18,1*%
%TO.N,/5V Fairy Lights/L2_A*%
X90170000Y-64770000D03*
D11*
%TO.P,R18,2*%
%TO.N,Net-(J18-Pad1)*%
X90170000Y-59690000D03*
%TD*%
D18*
%TO.P,J1,1,Pin_1*%
%TO.N,+28V*%
X62738000Y-26162000D03*
D19*
%TO.P,J1,2,Pin_2*%
%TO.N,GND*%
X57738000Y-26162000D03*
%TD*%
D10*
%TO.P,R24,1*%
%TO.N,Net-(R24-Pad1)*%
X60452000Y-76200000D03*
D11*
%TO.P,R24,2*%
%TO.N,/Adressable RGB/RGB_1_OUT*%
X60452000Y-71120000D03*
%TD*%
D18*
%TO.P,J7,1,Pin_1*%
%TO.N,Net-(J7-Pad1)*%
X39878000Y-84328000D03*
D19*
%TO.P,J7,2,Pin_2*%
%TO.N,Net-(J7-Pad2)*%
X44878000Y-84328000D03*
%TD*%
D10*
%TO.P,R4,1*%
%TO.N,S4_SEL*%
X48260000Y-60198000D03*
D11*
%TO.P,R4,2*%
%TO.N,Net-(Q4-Pad2)*%
X48260000Y-55118000D03*
%TD*%
D10*
%TO.P,R17,1*%
%TO.N,/5V Fairy Lights/L1_B*%
X90260000Y-50800000D03*
D11*
%TO.P,R17,2*%
%TO.N,Net-(J17-Pad2)*%
X90260000Y-55880000D03*
%TD*%
D10*
%TO.P,R15,1*%
%TO.N,S1_PWM*%
X47498000Y-36068000D03*
D11*
%TO.P,R15,2*%
%TO.N,Net-(R15-Pad2)*%
X52578000Y-36068000D03*
%TD*%
D10*
%TO.P,R11,1*%
%TO.N,S1_SEL*%
X47498000Y-33274000D03*
D11*
%TO.P,R11,2*%
%TO.N,Net-(Q5-Pad2)*%
X52578000Y-33274000D03*
%TD*%
D18*
%TO.P,J5,1,Pin_1*%
%TO.N,/5V Fairy Lights/L2_B*%
X97282000Y-68834000D03*
D19*
%TO.P,J5,2,Pin_2*%
%TO.N,Net-(J18-Pad1)*%
X97282000Y-63834000D03*
%TD*%
D17*
%TO.P,H2,1,1*%
%TO.N,GND*%
X100336000Y-20206000D03*
X100336000Y-25006000D03*
X102033056Y-20908944D03*
X97936000Y-22606000D03*
X102033056Y-24303056D03*
X98638944Y-24303056D03*
X102736000Y-22606000D03*
D16*
X100336000Y-22606000D03*
D17*
X98638944Y-20908944D03*
%TD*%
D10*
%TO.P,R16,1*%
%TO.N,S2_PWM*%
X40640000Y-46990000D03*
D11*
%TO.P,R16,2*%
%TO.N,Net-(R16-Pad2)*%
X40640000Y-52070000D03*
%TD*%
D10*
%TO.P,R8,1*%
%TO.N,S4_PWM*%
X45720000Y-60198000D03*
D11*
%TO.P,R8,2*%
%TO.N,Net-(R8-Pad2)*%
X45720000Y-55118000D03*
%TD*%
D17*
%TO.P,H4,1,1*%
%TO.N,GND*%
X18936000Y-22606000D03*
X23736000Y-22606000D03*
X19638944Y-20908944D03*
X23033056Y-20908944D03*
X23033056Y-24303056D03*
D16*
X21336000Y-22606000D03*
D17*
X19638944Y-24303056D03*
X21336000Y-25006000D03*
X21336000Y-20206000D03*
%TD*%
D10*
%TO.P,R7,1*%
%TO.N,S3_PWM*%
X55880000Y-60198000D03*
D11*
%TO.P,R7,2*%
%TO.N,Net-(R7-Pad2)*%
X55880000Y-55118000D03*
%TD*%
D18*
%TO.P,J3,1,Pin_1*%
%TO.N,/31V Fairy Lights/L2_B*%
X97282000Y-45680000D03*
D19*
%TO.P,J3,2,Pin_2*%
%TO.N,Net-(J10-Pad1)*%
X97282000Y-40680000D03*
%TD*%
D28*
%TO.N,GND*%
X72136000Y-53340000D03*
X74676000Y-53340000D03*
%TO.N,/5V Fairy Lights/L1_A*%
X77216000Y-48260000D03*
%TD*%
D29*
%TO.N,GND*%
X77859500Y-39005500D02*
X78725000Y-38140000D01*
X77859500Y-41910000D02*
X77859500Y-39005500D01*
X78725000Y-29315000D02*
X80100000Y-27940000D01*
X74676000Y-50800000D02*
X74676000Y-53340000D01*
X78725000Y-30520000D02*
X78725000Y-29315000D01*
X72136000Y-50800000D02*
X72136000Y-53340000D01*
D30*
%TO.N,LED_1*%
X27940000Y-71120000D02*
X27940000Y-66040000D01*
D29*
%TO.N,+5V*%
X71120000Y-25440000D02*
X74915000Y-29235000D01*
X80010000Y-38652076D02*
X82349924Y-40992000D01*
X65786000Y-61976000D02*
X65786000Y-56314000D01*
X89154000Y-76454000D02*
X92122000Y-76454000D01*
X81170600Y-56169300D02*
X65930700Y-56169300D01*
D30*
X82452000Y-40992000D02*
X82804000Y-40640000D01*
D29*
X92122000Y-76454000D02*
X94298900Y-76454000D01*
X85323511Y-72623511D02*
X85323511Y-61447511D01*
X92122000Y-76454000D02*
X92376000Y-76708000D01*
X64516000Y-51925300D02*
X64516000Y-50800000D01*
X82349924Y-40992000D02*
X82452000Y-40992000D01*
X92376000Y-76708000D02*
X92376000Y-84379000D01*
X74915000Y-31017076D02*
X80010000Y-36112076D01*
X81026000Y-56024700D02*
X81026000Y-42418000D01*
X81026000Y-42418000D02*
X82452000Y-40992000D01*
X64262000Y-63500000D02*
X65786000Y-61976000D01*
X65786000Y-56024600D02*
X65786000Y-53195300D01*
X85323511Y-72623511D02*
X89154000Y-76454000D01*
X24384000Y-34504000D02*
X24424000Y-34544000D01*
X82296000Y-57294700D02*
X81170600Y-56169300D01*
X81170600Y-56169300D02*
X81026000Y-56024700D01*
X85323511Y-61447511D02*
X82296000Y-58420000D01*
X65930700Y-56169300D02*
X65786000Y-56314000D01*
X80010000Y-36112076D02*
X80010000Y-38652076D01*
X24424000Y-34544000D02*
X33279000Y-34544000D01*
X94298900Y-76454000D02*
X95314900Y-75438000D01*
X74915000Y-29235000D02*
X74915000Y-31017076D01*
X82296000Y-58420000D02*
X82296000Y-57294700D01*
X65786000Y-53195300D02*
X64516000Y-51925300D01*
D30*
%TO.N,S4_PWM*%
X45720000Y-60198000D02*
X45720000Y-66040000D01*
%TO.N,Net-(Q3-Pad3)*%
X79756000Y-49674700D02*
X79756000Y-47196800D01*
X79756000Y-50800000D02*
X79756000Y-49674700D01*
X77859500Y-44450000D02*
X77859500Y-45300300D01*
X79756000Y-47196800D02*
X77859500Y-45300300D01*
%TO.N,S1_SEL*%
X47498000Y-33274000D02*
X43180000Y-37592000D01*
X43180000Y-37592000D02*
X43180000Y-40640000D01*
%TO.N,S4_SEL*%
X74930000Y-59944000D02*
X78232000Y-59944000D01*
X48260000Y-60198000D02*
X48260000Y-66040000D01*
X78232000Y-59944000D02*
X79756000Y-58420000D01*
X48260000Y-66040000D02*
X49530000Y-67310000D01*
X49530000Y-67310000D02*
X67564000Y-67310000D01*
X67564000Y-67310000D02*
X74930000Y-59944000D01*
%TO.N,S3_PWM*%
X55880000Y-60198000D02*
X55880000Y-66040000D01*
%TO.N,S3_SEL*%
X58420000Y-60198000D02*
X59942500Y-58675500D01*
X59942500Y-58675500D02*
X59942500Y-53745500D01*
X58420000Y-60198000D02*
X58420000Y-66040000D01*
X59942500Y-53745500D02*
X64013300Y-49674700D01*
X64013300Y-49674700D02*
X65930700Y-49674700D01*
X65930700Y-49674700D02*
X67056000Y-50800000D01*
%TO.N,S2_SEL*%
X38100000Y-46990000D02*
X38100000Y-40640000D01*
%TO.N,S1_PWM*%
X45720000Y-37846000D02*
X45720000Y-40640000D01*
X47498000Y-36068000D02*
X45720000Y-37846000D01*
%TO.N,S2_PWM*%
X40640000Y-46990000D02*
X40640000Y-40640000D01*
%TO.N,Net-(Q4-Pad3)*%
X67056000Y-58420000D02*
X67056000Y-59545300D01*
X69342000Y-61831300D02*
X67056000Y-59545300D01*
X69342000Y-63500000D02*
X69342000Y-61831300D01*
%TO.N,Net-(Q3-Pad2)*%
X63904100Y-48608600D02*
X70515500Y-48608600D01*
X58420000Y-55118000D02*
X58420000Y-54092700D01*
X75944100Y-43180000D02*
X77859500Y-43180000D01*
X70515500Y-48608600D02*
X75944100Y-43180000D01*
X58420000Y-54092700D02*
X63904100Y-48608600D01*
%TO.N,Net-(Q5-Pad3)*%
X81175300Y-26765000D02*
X83805000Y-29394700D01*
X80100000Y-25400000D02*
X81175300Y-25400000D01*
X81175300Y-25400000D02*
X81175300Y-26765000D01*
X83805000Y-30520000D02*
X83805000Y-29394700D01*
D29*
%TO.N,+28V*%
X68565000Y-30363700D02*
X68565000Y-30520000D01*
X64363300Y-26162000D02*
X68565000Y-30363700D01*
X62738000Y-26162000D02*
X64363300Y-26162000D01*
%TO.N,/31V Fairy Lights/L1_B*%
X89154000Y-28194000D02*
X89154000Y-25908000D01*
X90170000Y-29210000D02*
X89154000Y-28194000D01*
%TO.N,/31V Fairy Lights/L2_B*%
X85827435Y-39389511D02*
X85807924Y-39370000D01*
X93153054Y-45680000D02*
X86862565Y-39389511D01*
X82514511Y-39389511D02*
X81265000Y-38140000D01*
X86862565Y-39389511D02*
X85827435Y-39389511D01*
X85807924Y-39370000D02*
X84342076Y-39370000D01*
X97333000Y-45680000D02*
X93153054Y-45680000D01*
X84342076Y-39370000D02*
X84322565Y-39389511D01*
X84322565Y-39389511D02*
X82514511Y-39389511D01*
%TO.N,/5V Fairy Lights/L1_A*%
X77216000Y-48260000D02*
X77216000Y-50800000D01*
D30*
%TO.N,Net-(Q6-Pad3)*%
X70747500Y-46092500D02*
X69596000Y-47244000D01*
X71822800Y-39983100D02*
X71822800Y-44450000D01*
X70747500Y-44450000D02*
X70747500Y-46092500D01*
X71105000Y-39265300D02*
X71822800Y-39983100D01*
X71105000Y-38140000D02*
X71105000Y-39265300D01*
X70747500Y-44450000D02*
X71822800Y-44450000D01*
%TO.N,Net-(Q6-Pad2)*%
X48015300Y-43180000D02*
X70747500Y-43180000D01*
X39125300Y-52070000D02*
X48015300Y-43180000D01*
X38100000Y-52070000D02*
X39125300Y-52070000D01*
%TO.N,Net-(J6-Pad2)*%
X25340800Y-76231800D02*
X25340800Y-76200000D01*
X33488000Y-84379000D02*
X25340800Y-76231800D01*
X24265500Y-76200000D02*
X25340800Y-76200000D01*
%TO.N,Net-(J7-Pad2)*%
X44878000Y-84328000D02*
X39742500Y-79192500D01*
X39742500Y-79192500D02*
X39742500Y-76200000D01*
%TO.N,LED_3*%
X48260000Y-71120000D02*
X54982500Y-71120000D01*
X43180000Y-66040000D02*
X48260000Y-71120000D01*
%TO.N,Net-(R24-Pad1)*%
X78182820Y-74725180D02*
X61926820Y-74725180D01*
X61926820Y-74725180D02*
X60452000Y-76200000D01*
X84074000Y-68834000D02*
X78182820Y-74725180D01*
%TO.N,/Adressable RGB/RGB_3_OUT*%
X71120000Y-84379000D02*
X71120000Y-84328000D01*
X65532000Y-78740000D02*
X65532000Y-76200000D01*
X71120000Y-84328000D02*
X65532000Y-78740000D01*
%TO.N,/Adressable RGB/RGB_4_OUT*%
X66120000Y-84379000D02*
X64498500Y-82757500D01*
X67046700Y-75174700D02*
X68072000Y-76200000D01*
X65083300Y-75174700D02*
X67046700Y-75174700D01*
X64498500Y-82757500D02*
X64498500Y-75759500D01*
X64498500Y-75759500D02*
X65083300Y-75174700D01*
%TO.N,RGB_DATA_3*%
X27219978Y-86360000D02*
X21336000Y-80476022D01*
X76454000Y-76454000D02*
X73406000Y-79502000D01*
X73406000Y-79502000D02*
X73406000Y-84390407D01*
X71436407Y-86360000D02*
X27219978Y-86360000D01*
X73406000Y-84390407D02*
X71436407Y-86360000D01*
X21336000Y-54864000D02*
X35560000Y-40640000D01*
X21336000Y-80476022D02*
X21336000Y-54864000D01*
%TO.N,RGB_DATA_4*%
X78994000Y-81534000D02*
X78994000Y-83802407D01*
X84074000Y-76454000D02*
X78994000Y-81534000D01*
X26836412Y-87122000D02*
X20066000Y-80351588D01*
X20066000Y-53594000D02*
X33020000Y-40640000D01*
X78994000Y-83802407D02*
X75674407Y-87122000D01*
X75674407Y-87122000D02*
X26836412Y-87122000D01*
X20066000Y-80351588D02*
X20066000Y-53594000D01*
%TO.N,RGB_DATA_2*%
X36567489Y-72127489D02*
X30480000Y-66040000D01*
X36567489Y-72144511D02*
X36567489Y-72127489D01*
X75683489Y-72144511D02*
X36567489Y-72144511D01*
X78994000Y-68834000D02*
X75683489Y-72144511D01*
D29*
%TO.N,Net-(J2-Pad1)*%
X86614000Y-28030000D02*
X86614000Y-25908000D01*
X90170000Y-34290000D02*
X90170000Y-31586000D01*
X90170000Y-31586000D02*
X86614000Y-28030000D01*
D30*
%TO.N,Net-(J15-Pad2)*%
X51172500Y-76200000D02*
X51308000Y-76200000D01*
X56094000Y-80986000D02*
X56094000Y-84379000D01*
X51308000Y-76200000D02*
X56094000Y-80986000D01*
D29*
%TO.N,Net-(J16-Pad1)*%
X32517000Y-37846000D02*
X25654000Y-37846000D01*
X35819000Y-34544000D02*
X32517000Y-37846000D01*
X25654000Y-37846000D02*
X22860000Y-40640000D01*
%TD*%
M02*
