%TF.GenerationSoftware,KiCad,Pcbnew,(5.99.0-11674-g69322a18e7)*%
%TF.CreationDate,2021-08-29T21:05:58+01:00*%
%TF.ProjectId,ScubarLightController,53637562-6172-44c6-9967-6874436f6e74,rev?*%
%TF.SameCoordinates,Original*%
%TF.FileFunction,Legend,Top*%
%TF.FilePolarity,Positive*%
%FSLAX46Y46*%
G04 Gerber Fmt 4.6, Leading zero omitted, Abs format (unit mm)*
G04 Created by KiCad (PCBNEW (5.99.0-11674-g69322a18e7)) date 2021-08-29 21:05:58*
%MOMM*%
%LPD*%
G01*
G04 APERTURE LIST*
%ADD10C,0.150000*%
%ADD11C,0.300000*%
%ADD12C,0.120000*%
%ADD13C,1.400000*%
%ADD14O,1.400000X1.400000*%
%ADD15R,1.500000X1.050000*%
%ADD16O,1.500000X1.050000*%
%ADD17R,1.700000X1.700000*%
%ADD18O,1.700000X1.700000*%
%ADD19C,6.400000*%
%ADD20C,0.800000*%
%ADD21R,2.600000X2.600000*%
%ADD22C,2.600000*%
%ADD23O,1.600000X1.600000*%
%ADD24R,1.600000X1.600000*%
%ADD25C,1.524000*%
%ADD26R,1.050000X1.500000*%
%ADD27O,1.050000X1.500000*%
%ADD28C,1.600000*%
%ADD29R,1.800000X1.800000*%
%ADD30C,1.800000*%
G04 APERTURE END LIST*
D10*
X96089976Y-23117285D02*
X96089976Y-22117285D01*
X96089976Y-23069666D02*
X95994738Y-23117285D01*
X95804261Y-23117285D01*
X95709023Y-23069666D01*
X95661404Y-23022047D01*
X95613785Y-22926809D01*
X95613785Y-22641095D01*
X95661404Y-22545857D01*
X95709023Y-22498238D01*
X95804261Y-22450619D01*
X95994738Y-22450619D01*
X96089976Y-22498238D01*
X95042357Y-22450619D02*
X95137595Y-22498238D01*
X95185214Y-22545857D01*
X95232833Y-22641095D01*
X95232833Y-22926809D01*
X95185214Y-23022047D01*
X95137595Y-23069666D01*
X95042357Y-23117285D01*
X94899500Y-23117285D01*
X94804261Y-23069666D01*
X94756642Y-23022047D01*
X94709023Y-22926809D01*
X94709023Y-22641095D01*
X94756642Y-22545857D01*
X94804261Y-22498238D01*
X94899500Y-22450619D01*
X95042357Y-22450619D01*
X94375690Y-23117285D02*
X94185214Y-22450619D01*
X93994738Y-22926809D01*
X93804261Y-22450619D01*
X93613785Y-23117285D01*
X92851880Y-22498238D02*
X92947119Y-22450619D01*
X93137595Y-22450619D01*
X93232833Y-22498238D01*
X93280452Y-22593476D01*
X93280452Y-22974428D01*
X93232833Y-23069666D01*
X93137595Y-23117285D01*
X92947119Y-23117285D01*
X92851880Y-23069666D01*
X92804261Y-22974428D01*
X92804261Y-22879190D01*
X93280452Y-22783952D01*
X92375690Y-22450619D02*
X92375690Y-23117285D01*
X92375690Y-22926809D02*
X92328071Y-23022047D01*
X92280452Y-23069666D01*
X92185214Y-23117285D01*
X92089976Y-23117285D01*
X90994738Y-22450619D02*
X90994738Y-23117285D01*
X90994738Y-23450619D02*
X91042357Y-23403000D01*
X90994738Y-23355380D01*
X90947119Y-23403000D01*
X90994738Y-23450619D01*
X90994738Y-23355380D01*
X90518547Y-23117285D02*
X90518547Y-22450619D01*
X90518547Y-23022047D02*
X90470928Y-23069666D01*
X90375690Y-23117285D01*
X90232833Y-23117285D01*
X90137595Y-23069666D01*
X90089976Y-22974428D01*
X90089976Y-22450619D01*
X88994738Y-23117285D02*
X88613785Y-23117285D01*
X88851880Y-22450619D02*
X88851880Y-23307761D01*
X88804261Y-23403000D01*
X88709023Y-23450619D01*
X88613785Y-23450619D01*
X88280452Y-22450619D02*
X88280452Y-23117285D01*
X88280452Y-22926809D02*
X88232833Y-23022047D01*
X88185214Y-23069666D01*
X88089976Y-23117285D01*
X87994738Y-23117285D01*
X87518547Y-22450619D02*
X87613785Y-22498238D01*
X87661404Y-22545857D01*
X87709023Y-22641095D01*
X87709023Y-22926809D01*
X87661404Y-23022047D01*
X87613785Y-23069666D01*
X87518547Y-23117285D01*
X87375690Y-23117285D01*
X87280452Y-23069666D01*
X87232833Y-23022047D01*
X87185214Y-22926809D01*
X87185214Y-22641095D01*
X87232833Y-22545857D01*
X87280452Y-22498238D01*
X87375690Y-22450619D01*
X87518547Y-22450619D01*
X86756642Y-22450619D02*
X86756642Y-23117285D01*
X86756642Y-23022047D02*
X86709023Y-23069666D01*
X86613785Y-23117285D01*
X86470928Y-23117285D01*
X86375690Y-23069666D01*
X86328071Y-22974428D01*
X86328071Y-22450619D01*
X86328071Y-22974428D02*
X86280452Y-23069666D01*
X86185214Y-23117285D01*
X86042357Y-23117285D01*
X85947119Y-23069666D01*
X85899500Y-22974428D01*
X85899500Y-22450619D01*
X84661404Y-22450619D02*
X84661404Y-23450619D01*
X84661404Y-23069666D02*
X84566166Y-23117285D01*
X84375690Y-23117285D01*
X84280452Y-23069666D01*
X84232833Y-23022047D01*
X84185214Y-22926809D01*
X84185214Y-22641095D01*
X84232833Y-22545857D01*
X84280452Y-22498238D01*
X84375690Y-22450619D01*
X84566166Y-22450619D01*
X84661404Y-22498238D01*
X83613785Y-22450619D02*
X83709023Y-22498238D01*
X83756642Y-22545857D01*
X83804261Y-22641095D01*
X83804261Y-22926809D01*
X83756642Y-23022047D01*
X83709023Y-23069666D01*
X83613785Y-23117285D01*
X83470928Y-23117285D01*
X83375690Y-23069666D01*
X83328071Y-23022047D01*
X83280452Y-22926809D01*
X83280452Y-22641095D01*
X83328071Y-22545857D01*
X83375690Y-22498238D01*
X83470928Y-22450619D01*
X83613785Y-22450619D01*
X82709023Y-22450619D02*
X82804261Y-22498238D01*
X82851880Y-22545857D01*
X82899500Y-22641095D01*
X82899500Y-22926809D01*
X82851880Y-23022047D01*
X82804261Y-23069666D01*
X82709023Y-23117285D01*
X82566166Y-23117285D01*
X82470928Y-23069666D01*
X82423309Y-23022047D01*
X82375690Y-22926809D01*
X82375690Y-22641095D01*
X82423309Y-22545857D01*
X82470928Y-22498238D01*
X82566166Y-22450619D01*
X82709023Y-22450619D01*
X81994738Y-22498238D02*
X81899500Y-22450619D01*
X81709023Y-22450619D01*
X81613785Y-22498238D01*
X81566166Y-22593476D01*
X81566166Y-22641095D01*
X81613785Y-22736333D01*
X81709023Y-22783952D01*
X81851880Y-22783952D01*
X81947119Y-22831571D01*
X81994738Y-22926809D01*
X81994738Y-22974428D01*
X81947119Y-23069666D01*
X81851880Y-23117285D01*
X81709023Y-23117285D01*
X81613785Y-23069666D01*
X81280452Y-23117285D02*
X80899500Y-23117285D01*
X81137595Y-23450619D02*
X81137595Y-22593476D01*
X81089976Y-22498238D01*
X80994738Y-22450619D01*
X80899500Y-22450619D01*
X79375690Y-22498238D02*
X79470928Y-22450619D01*
X79661404Y-22450619D01*
X79756642Y-22498238D01*
X79804261Y-22545857D01*
X79851880Y-22641095D01*
X79851880Y-22926809D01*
X79804261Y-23022047D01*
X79756642Y-23069666D01*
X79661404Y-23117285D01*
X79470928Y-23117285D01*
X79375690Y-23069666D01*
X78804261Y-22450619D02*
X78899500Y-22498238D01*
X78947119Y-22545857D01*
X78994738Y-22641095D01*
X78994738Y-22926809D01*
X78947119Y-23022047D01*
X78899500Y-23069666D01*
X78804261Y-23117285D01*
X78661404Y-23117285D01*
X78566166Y-23069666D01*
X78518547Y-23022047D01*
X78470928Y-22926809D01*
X78470928Y-22641095D01*
X78518547Y-22545857D01*
X78566166Y-22498238D01*
X78661404Y-22450619D01*
X78804261Y-22450619D01*
X78042357Y-23117285D02*
X78042357Y-22450619D01*
X78042357Y-23022047D02*
X77994738Y-23069666D01*
X77899500Y-23117285D01*
X77756642Y-23117285D01*
X77661404Y-23069666D01*
X77613785Y-22974428D01*
X77613785Y-22450619D01*
X77232833Y-23117285D02*
X76994738Y-22450619D01*
X76756642Y-23117285D01*
X75994738Y-22498238D02*
X76089976Y-22450619D01*
X76280452Y-22450619D01*
X76375690Y-22498238D01*
X76423309Y-22593476D01*
X76423309Y-22974428D01*
X76375690Y-23069666D01*
X76280452Y-23117285D01*
X76089976Y-23117285D01*
X75994738Y-23069666D01*
X75947119Y-22974428D01*
X75947119Y-22879190D01*
X76423309Y-22783952D01*
X75518547Y-22450619D02*
X75518547Y-23117285D01*
X75518547Y-22926809D02*
X75470928Y-23022047D01*
X75423309Y-23069666D01*
X75328071Y-23117285D01*
X75232833Y-23117285D01*
X75042357Y-23117285D02*
X74661404Y-23117285D01*
X74899500Y-23450619D02*
X74899500Y-22593476D01*
X74851880Y-22498238D01*
X74756642Y-22450619D01*
X74661404Y-22450619D01*
X73947119Y-22498238D02*
X74042357Y-22450619D01*
X74232833Y-22450619D01*
X74328071Y-22498238D01*
X74375690Y-22593476D01*
X74375690Y-22974428D01*
X74328071Y-23069666D01*
X74232833Y-23117285D01*
X74042357Y-23117285D01*
X73947119Y-23069666D01*
X73899500Y-22974428D01*
X73899500Y-22879190D01*
X74375690Y-22783952D01*
X73470928Y-22450619D02*
X73470928Y-23117285D01*
X73470928Y-22926809D02*
X73423309Y-23022047D01*
X73375690Y-23069666D01*
X73280452Y-23117285D01*
X73185214Y-23117285D01*
X72089976Y-22450619D02*
X72089976Y-23117285D01*
X72089976Y-23022047D02*
X72042357Y-23069666D01*
X71947119Y-23117285D01*
X71804261Y-23117285D01*
X71709023Y-23069666D01*
X71661404Y-22974428D01*
X71661404Y-22450619D01*
X71661404Y-22974428D02*
X71613785Y-23069666D01*
X71518547Y-23117285D01*
X71375690Y-23117285D01*
X71280452Y-23069666D01*
X71232833Y-22974428D01*
X71232833Y-22450619D01*
X70613785Y-22450619D02*
X70709023Y-22498238D01*
X70756642Y-22545857D01*
X70804261Y-22641095D01*
X70804261Y-22926809D01*
X70756642Y-23022047D01*
X70709023Y-23069666D01*
X70613785Y-23117285D01*
X70470928Y-23117285D01*
X70375690Y-23069666D01*
X70328071Y-23022047D01*
X70280452Y-22926809D01*
X70280452Y-22641095D01*
X70328071Y-22545857D01*
X70375690Y-22498238D01*
X70470928Y-22450619D01*
X70613785Y-22450619D01*
X69423309Y-22450619D02*
X69423309Y-23450619D01*
X69423309Y-22498238D02*
X69518547Y-22450619D01*
X69709023Y-22450619D01*
X69804261Y-22498238D01*
X69851880Y-22545857D01*
X69899500Y-22641095D01*
X69899500Y-22926809D01*
X69851880Y-23022047D01*
X69804261Y-23069666D01*
X69709023Y-23117285D01*
X69518547Y-23117285D01*
X69423309Y-23069666D01*
X68518547Y-23117285D02*
X68518547Y-22450619D01*
X68947119Y-23117285D02*
X68947119Y-22593476D01*
X68899500Y-22498238D01*
X68804261Y-22450619D01*
X68661404Y-22450619D01*
X68566166Y-22498238D01*
X68518547Y-22545857D01*
X67899500Y-22450619D02*
X67994738Y-22498238D01*
X68042357Y-22593476D01*
X68042357Y-23450619D01*
X67137595Y-22498238D02*
X67232833Y-22450619D01*
X67423309Y-22450619D01*
X67518547Y-22498238D01*
X67566166Y-22593476D01*
X67566166Y-22974428D01*
X67518547Y-23069666D01*
X67423309Y-23117285D01*
X67232833Y-23117285D01*
X67137595Y-23069666D01*
X67089976Y-22974428D01*
X67089976Y-22879190D01*
X67566166Y-22783952D01*
X81137595Y-20507285D02*
X81375690Y-20507285D01*
X81375690Y-21935857D01*
X81137595Y-21935857D01*
X80756642Y-20840619D02*
X80756642Y-21840619D01*
X80518547Y-21840619D01*
X80375690Y-21793000D01*
X80280452Y-21697761D01*
X80232833Y-21602523D01*
X80185214Y-21412047D01*
X80185214Y-21269190D01*
X80232833Y-21078714D01*
X80280452Y-20983476D01*
X80375690Y-20888238D01*
X80518547Y-20840619D01*
X80756642Y-20840619D01*
X79185214Y-20935857D02*
X79232833Y-20888238D01*
X79375690Y-20840619D01*
X79470928Y-20840619D01*
X79613785Y-20888238D01*
X79709023Y-20983476D01*
X79756642Y-21078714D01*
X79804261Y-21269190D01*
X79804261Y-21412047D01*
X79756642Y-21602523D01*
X79709023Y-21697761D01*
X79613785Y-21793000D01*
X79470928Y-21840619D01*
X79375690Y-21840619D01*
X79232833Y-21793000D01*
X79185214Y-21745380D01*
X78756642Y-21221571D02*
X77994738Y-21221571D01*
X77518547Y-20840619D02*
X77518547Y-21840619D01*
X77280452Y-21840619D01*
X77137595Y-21793000D01*
X77042357Y-21697761D01*
X76994738Y-21602523D01*
X76947119Y-21412047D01*
X76947119Y-21269190D01*
X76994738Y-21078714D01*
X77042357Y-20983476D01*
X77137595Y-20888238D01*
X77280452Y-20840619D01*
X77518547Y-20840619D01*
X75947119Y-20935857D02*
X75994738Y-20888238D01*
X76137595Y-20840619D01*
X76232833Y-20840619D01*
X76375690Y-20888238D01*
X76470928Y-20983476D01*
X76518547Y-21078714D01*
X76566166Y-21269190D01*
X76566166Y-21412047D01*
X76518547Y-21602523D01*
X76470928Y-21697761D01*
X76375690Y-21793000D01*
X76232833Y-21840619D01*
X76137595Y-21840619D01*
X75994738Y-21793000D01*
X75947119Y-21745380D01*
X74851880Y-21840619D02*
X74185214Y-20840619D01*
X74185214Y-21840619D02*
X74851880Y-20840619D01*
X73328071Y-20840619D02*
X73804261Y-20840619D01*
X73804261Y-21840619D01*
X72566166Y-21840619D02*
X72756642Y-21840619D01*
X72851880Y-21793000D01*
X72899500Y-21745380D01*
X72994738Y-21602523D01*
X73042357Y-21412047D01*
X73042357Y-21031095D01*
X72994738Y-20935857D01*
X72947119Y-20888238D01*
X72851880Y-20840619D01*
X72661404Y-20840619D01*
X72566166Y-20888238D01*
X72518547Y-20935857D01*
X72470928Y-21031095D01*
X72470928Y-21269190D01*
X72518547Y-21364428D01*
X72566166Y-21412047D01*
X72661404Y-21459666D01*
X72851880Y-21459666D01*
X72947119Y-21412047D01*
X72994738Y-21364428D01*
X73042357Y-21269190D01*
X71851880Y-21840619D02*
X71756642Y-21840619D01*
X71661404Y-21793000D01*
X71613785Y-21745380D01*
X71566166Y-21650142D01*
X71518547Y-21459666D01*
X71518547Y-21221571D01*
X71566166Y-21031095D01*
X71613785Y-20935857D01*
X71661404Y-20888238D01*
X71756642Y-20840619D01*
X71851880Y-20840619D01*
X71947119Y-20888238D01*
X71994738Y-20935857D01*
X72042357Y-21031095D01*
X72089976Y-21221571D01*
X72089976Y-21459666D01*
X72042357Y-21650142D01*
X71994738Y-21745380D01*
X71947119Y-21793000D01*
X71851880Y-21840619D01*
X70899500Y-21840619D02*
X70804261Y-21840619D01*
X70709023Y-21793000D01*
X70661404Y-21745380D01*
X70613785Y-21650142D01*
X70566166Y-21459666D01*
X70566166Y-21221571D01*
X70613785Y-21031095D01*
X70661404Y-20935857D01*
X70709023Y-20888238D01*
X70804261Y-20840619D01*
X70899500Y-20840619D01*
X70994738Y-20888238D01*
X71042357Y-20935857D01*
X71089976Y-21031095D01*
X71137595Y-21221571D01*
X71137595Y-21459666D01*
X71089976Y-21650142D01*
X71042357Y-21745380D01*
X70994738Y-21793000D01*
X70899500Y-21840619D01*
X70089976Y-20840619D02*
X69899500Y-20840619D01*
X69804261Y-20888238D01*
X69756642Y-20935857D01*
X69661404Y-21078714D01*
X69613785Y-21269190D01*
X69613785Y-21650142D01*
X69661404Y-21745380D01*
X69709023Y-21793000D01*
X69804261Y-21840619D01*
X69994738Y-21840619D01*
X70089976Y-21793000D01*
X70137595Y-21745380D01*
X70185214Y-21650142D01*
X70185214Y-21412047D01*
X70137595Y-21316809D01*
X70089976Y-21269190D01*
X69994738Y-21221571D01*
X69804261Y-21221571D01*
X69709023Y-21269190D01*
X69661404Y-21316809D01*
X69613785Y-21412047D01*
X69185214Y-21364428D02*
X68851880Y-21364428D01*
X68709023Y-20840619D02*
X69185214Y-20840619D01*
X69185214Y-21840619D01*
X68709023Y-21840619D01*
X67756642Y-20840619D02*
X68328071Y-20840619D01*
X68042357Y-20840619D02*
X68042357Y-21840619D01*
X68137595Y-21697761D01*
X68232833Y-21602523D01*
X68328071Y-21554904D01*
X67423309Y-20507285D02*
X67185214Y-20507285D01*
X67185214Y-21935857D01*
X67423309Y-21935857D01*
X103322380Y-53046190D02*
X103322380Y-53522380D01*
X102322380Y-53522380D01*
X103322380Y-52189047D02*
X103322380Y-52760476D01*
X103322380Y-52474761D02*
X102322380Y-52474761D01*
X102465238Y-52570000D01*
X102560476Y-52665238D01*
X102608095Y-52760476D01*
X103417619Y-51998571D02*
X103417619Y-51236666D01*
X103036666Y-51046190D02*
X103036666Y-50570000D01*
X103322380Y-51141428D02*
X102322380Y-50808095D01*
X103322380Y-50474761D01*
X105179714Y-72085523D02*
X103751142Y-72085523D01*
X104465428Y-71371238D02*
X104465428Y-70609333D01*
X104465428Y-70133142D02*
X104465428Y-69371238D01*
X104465428Y-68895047D02*
X104465428Y-68133142D01*
X104465428Y-67656952D02*
X104465428Y-66895047D01*
X103846380Y-65942666D02*
X103846380Y-66418857D01*
X104322571Y-66466476D01*
X104274952Y-66418857D01*
X104227333Y-66323619D01*
X104227333Y-66085523D01*
X104274952Y-65990285D01*
X104322571Y-65942666D01*
X104417809Y-65895047D01*
X104655904Y-65895047D01*
X104751142Y-65942666D01*
X104798761Y-65990285D01*
X104846380Y-66085523D01*
X104846380Y-66323619D01*
X104798761Y-66418857D01*
X104751142Y-66466476D01*
X103846380Y-65609333D02*
X104846380Y-65276000D01*
X103846380Y-64942666D01*
X104179714Y-63990285D02*
X104179714Y-63609333D01*
X104846380Y-63847428D02*
X103989238Y-63847428D01*
X103894000Y-63799809D01*
X103846380Y-63704571D01*
X103846380Y-63609333D01*
X104846380Y-62847428D02*
X104322571Y-62847428D01*
X104227333Y-62895047D01*
X104179714Y-62990285D01*
X104179714Y-63180761D01*
X104227333Y-63276000D01*
X104798761Y-62847428D02*
X104846380Y-62942666D01*
X104846380Y-63180761D01*
X104798761Y-63276000D01*
X104703523Y-63323619D01*
X104608285Y-63323619D01*
X104513047Y-63276000D01*
X104465428Y-63180761D01*
X104465428Y-62942666D01*
X104417809Y-62847428D01*
X104846380Y-62371238D02*
X104179714Y-62371238D01*
X103846380Y-62371238D02*
X103894000Y-62418857D01*
X103941619Y-62371238D01*
X103894000Y-62323619D01*
X103846380Y-62371238D01*
X103941619Y-62371238D01*
X104846380Y-61895047D02*
X104179714Y-61895047D01*
X104370190Y-61895047D02*
X104274952Y-61847428D01*
X104227333Y-61799809D01*
X104179714Y-61704571D01*
X104179714Y-61609333D01*
X104179714Y-61371238D02*
X104846380Y-61133142D01*
X104179714Y-60895047D02*
X104846380Y-61133142D01*
X105084476Y-61228380D01*
X105132095Y-61276000D01*
X105179714Y-61371238D01*
X104846380Y-59609333D02*
X104798761Y-59704571D01*
X104703523Y-59752190D01*
X103846380Y-59752190D01*
X104846380Y-59228380D02*
X104179714Y-59228380D01*
X103846380Y-59228380D02*
X103894000Y-59276000D01*
X103941619Y-59228380D01*
X103894000Y-59180761D01*
X103846380Y-59228380D01*
X103941619Y-59228380D01*
X104179714Y-58323619D02*
X104989238Y-58323619D01*
X105084476Y-58371238D01*
X105132095Y-58418857D01*
X105179714Y-58514095D01*
X105179714Y-58656952D01*
X105132095Y-58752190D01*
X104798761Y-58323619D02*
X104846380Y-58418857D01*
X104846380Y-58609333D01*
X104798761Y-58704571D01*
X104751142Y-58752190D01*
X104655904Y-58799809D01*
X104370190Y-58799809D01*
X104274952Y-58752190D01*
X104227333Y-58704571D01*
X104179714Y-58609333D01*
X104179714Y-58418857D01*
X104227333Y-58323619D01*
X104846380Y-57847428D02*
X103846380Y-57847428D01*
X104846380Y-57418857D02*
X104322571Y-57418857D01*
X104227333Y-57466476D01*
X104179714Y-57561714D01*
X104179714Y-57704571D01*
X104227333Y-57799809D01*
X104274952Y-57847428D01*
X104179714Y-57085523D02*
X104179714Y-56704571D01*
X103846380Y-56942666D02*
X104703523Y-56942666D01*
X104798761Y-56895047D01*
X104846380Y-56799809D01*
X104846380Y-56704571D01*
X104798761Y-56418857D02*
X104846380Y-56323619D01*
X104846380Y-56133142D01*
X104798761Y-56037904D01*
X104703523Y-55990285D01*
X104655904Y-55990285D01*
X104560666Y-56037904D01*
X104513047Y-56133142D01*
X104513047Y-56276000D01*
X104465428Y-56371238D01*
X104370190Y-56418857D01*
X104322571Y-56418857D01*
X104227333Y-56371238D01*
X104179714Y-56276000D01*
X104179714Y-56133142D01*
X104227333Y-56037904D01*
X104465428Y-55561714D02*
X104465428Y-54799809D01*
X104465428Y-54323619D02*
X104465428Y-53561714D01*
X104465428Y-53085523D02*
X104465428Y-52323619D01*
X104465428Y-51847428D02*
X104465428Y-51085523D01*
X104465428Y-50609333D02*
X104465428Y-49847428D01*
X105179714Y-49133142D02*
X103751142Y-49133142D01*
X104465428Y-48418857D02*
X104465428Y-47656952D01*
X104465428Y-47180761D02*
X104465428Y-46418857D01*
X104465428Y-45942666D02*
X104465428Y-45180761D01*
X104465428Y-44704571D02*
X104465428Y-43942666D01*
X103846380Y-43561714D02*
X103846380Y-42942666D01*
X104227333Y-43276000D01*
X104227333Y-43133142D01*
X104274952Y-43037904D01*
X104322571Y-42990285D01*
X104417809Y-42942666D01*
X104655904Y-42942666D01*
X104751142Y-42990285D01*
X104798761Y-43037904D01*
X104846380Y-43133142D01*
X104846380Y-43418857D01*
X104798761Y-43514095D01*
X104751142Y-43561714D01*
X104846380Y-41990285D02*
X104846380Y-42561714D01*
X104846380Y-42276000D02*
X103846380Y-42276000D01*
X103989238Y-42371238D01*
X104084476Y-42466476D01*
X104132095Y-42561714D01*
X103846380Y-41704571D02*
X104846380Y-41371238D01*
X103846380Y-41037904D01*
X104179714Y-40085523D02*
X104179714Y-39704571D01*
X104846380Y-39942666D02*
X103989238Y-39942666D01*
X103894000Y-39895047D01*
X103846380Y-39799809D01*
X103846380Y-39704571D01*
X104846380Y-38942666D02*
X104322571Y-38942666D01*
X104227333Y-38990285D01*
X104179714Y-39085523D01*
X104179714Y-39276000D01*
X104227333Y-39371238D01*
X104798761Y-38942666D02*
X104846380Y-39037904D01*
X104846380Y-39276000D01*
X104798761Y-39371238D01*
X104703523Y-39418857D01*
X104608285Y-39418857D01*
X104513047Y-39371238D01*
X104465428Y-39276000D01*
X104465428Y-39037904D01*
X104417809Y-38942666D01*
X104846380Y-38466476D02*
X104179714Y-38466476D01*
X103846380Y-38466476D02*
X103894000Y-38514095D01*
X103941619Y-38466476D01*
X103894000Y-38418857D01*
X103846380Y-38466476D01*
X103941619Y-38466476D01*
X104846380Y-37990285D02*
X104179714Y-37990285D01*
X104370190Y-37990285D02*
X104274952Y-37942666D01*
X104227333Y-37895047D01*
X104179714Y-37799809D01*
X104179714Y-37704571D01*
X104179714Y-37466476D02*
X104846380Y-37228380D01*
X104179714Y-36990285D02*
X104846380Y-37228380D01*
X105084476Y-37323619D01*
X105132095Y-37371238D01*
X105179714Y-37466476D01*
X104846380Y-35704571D02*
X104798761Y-35799809D01*
X104703523Y-35847428D01*
X103846380Y-35847428D01*
X104846380Y-35323619D02*
X104179714Y-35323619D01*
X103846380Y-35323619D02*
X103894000Y-35371238D01*
X103941619Y-35323619D01*
X103894000Y-35276000D01*
X103846380Y-35323619D01*
X103941619Y-35323619D01*
X104179714Y-34418857D02*
X104989238Y-34418857D01*
X105084476Y-34466476D01*
X105132095Y-34514095D01*
X105179714Y-34609333D01*
X105179714Y-34752190D01*
X105132095Y-34847428D01*
X104798761Y-34418857D02*
X104846380Y-34514095D01*
X104846380Y-34704571D01*
X104798761Y-34799809D01*
X104751142Y-34847428D01*
X104655904Y-34895047D01*
X104370190Y-34895047D01*
X104274952Y-34847428D01*
X104227333Y-34799809D01*
X104179714Y-34704571D01*
X104179714Y-34514095D01*
X104227333Y-34418857D01*
X104846380Y-33942666D02*
X103846380Y-33942666D01*
X104846380Y-33514095D02*
X104322571Y-33514095D01*
X104227333Y-33561714D01*
X104179714Y-33656952D01*
X104179714Y-33799809D01*
X104227333Y-33895047D01*
X104274952Y-33942666D01*
X104179714Y-33180761D02*
X104179714Y-32799809D01*
X103846380Y-33037904D02*
X104703523Y-33037904D01*
X104798761Y-32990285D01*
X104846380Y-32895047D01*
X104846380Y-32799809D01*
X104798761Y-32514095D02*
X104846380Y-32418857D01*
X104846380Y-32228380D01*
X104798761Y-32133142D01*
X104703523Y-32085523D01*
X104655904Y-32085523D01*
X104560666Y-32133142D01*
X104513047Y-32228380D01*
X104513047Y-32371238D01*
X104465428Y-32466476D01*
X104370190Y-32514095D01*
X104322571Y-32514095D01*
X104227333Y-32466476D01*
X104179714Y-32371238D01*
X104179714Y-32228380D01*
X104227333Y-32133142D01*
X104465428Y-31656952D02*
X104465428Y-30895047D01*
X104465428Y-30418857D02*
X104465428Y-29656952D01*
X104465428Y-29180761D02*
X104465428Y-28418857D01*
X104465428Y-27942666D02*
X104465428Y-27180761D01*
X105179714Y-26466476D02*
X103751142Y-26466476D01*
X69953333Y-90876380D02*
X69620000Y-90400190D01*
X69381904Y-90876380D02*
X69381904Y-89876380D01*
X69762857Y-89876380D01*
X69858095Y-89924000D01*
X69905714Y-89971619D01*
X69953333Y-90066857D01*
X69953333Y-90209714D01*
X69905714Y-90304952D01*
X69858095Y-90352571D01*
X69762857Y-90400190D01*
X69381904Y-90400190D01*
X70905714Y-89924000D02*
X70810476Y-89876380D01*
X70667619Y-89876380D01*
X70524761Y-89924000D01*
X70429523Y-90019238D01*
X70381904Y-90114476D01*
X70334285Y-90304952D01*
X70334285Y-90447809D01*
X70381904Y-90638285D01*
X70429523Y-90733523D01*
X70524761Y-90828761D01*
X70667619Y-90876380D01*
X70762857Y-90876380D01*
X70905714Y-90828761D01*
X70953333Y-90781142D01*
X70953333Y-90447809D01*
X70762857Y-90447809D01*
X71715238Y-90352571D02*
X71858095Y-90400190D01*
X71905714Y-90447809D01*
X71953333Y-90543047D01*
X71953333Y-90685904D01*
X71905714Y-90781142D01*
X71858095Y-90828761D01*
X71762857Y-90876380D01*
X71381904Y-90876380D01*
X71381904Y-89876380D01*
X71715238Y-89876380D01*
X71810476Y-89924000D01*
X71858095Y-89971619D01*
X71905714Y-90066857D01*
X71905714Y-90162095D01*
X71858095Y-90257333D01*
X71810476Y-90304952D01*
X71715238Y-90352571D01*
X71381904Y-90352571D01*
X72286666Y-89876380D02*
X72905714Y-89876380D01*
X72572380Y-90257333D01*
X72715238Y-90257333D01*
X72810476Y-90304952D01*
X72858095Y-90352571D01*
X72905714Y-90447809D01*
X72905714Y-90685904D01*
X72858095Y-90781142D01*
X72810476Y-90828761D01*
X72715238Y-90876380D01*
X72429523Y-90876380D01*
X72334285Y-90828761D01*
X72286666Y-90781142D01*
X33210476Y-20359619D02*
X33686666Y-20359619D01*
X33734285Y-19883428D01*
X33686666Y-19931047D01*
X33591428Y-19978666D01*
X33353333Y-19978666D01*
X33258095Y-19931047D01*
X33210476Y-19883428D01*
X33162857Y-19788190D01*
X33162857Y-19550095D01*
X33210476Y-19454857D01*
X33258095Y-19407238D01*
X33353333Y-19359619D01*
X33591428Y-19359619D01*
X33686666Y-19407238D01*
X33734285Y-19454857D01*
X32877142Y-20359619D02*
X32543809Y-19359619D01*
X32210476Y-20359619D01*
X65127333Y-90876380D02*
X64794000Y-90400190D01*
X64555904Y-90876380D02*
X64555904Y-89876380D01*
X64936857Y-89876380D01*
X65032095Y-89924000D01*
X65079714Y-89971619D01*
X65127333Y-90066857D01*
X65127333Y-90209714D01*
X65079714Y-90304952D01*
X65032095Y-90352571D01*
X64936857Y-90400190D01*
X64555904Y-90400190D01*
X66079714Y-89924000D02*
X65984476Y-89876380D01*
X65841619Y-89876380D01*
X65698761Y-89924000D01*
X65603523Y-90019238D01*
X65555904Y-90114476D01*
X65508285Y-90304952D01*
X65508285Y-90447809D01*
X65555904Y-90638285D01*
X65603523Y-90733523D01*
X65698761Y-90828761D01*
X65841619Y-90876380D01*
X65936857Y-90876380D01*
X66079714Y-90828761D01*
X66127333Y-90781142D01*
X66127333Y-90447809D01*
X65936857Y-90447809D01*
X66889238Y-90352571D02*
X67032095Y-90400190D01*
X67079714Y-90447809D01*
X67127333Y-90543047D01*
X67127333Y-90685904D01*
X67079714Y-90781142D01*
X67032095Y-90828761D01*
X66936857Y-90876380D01*
X66555904Y-90876380D01*
X66555904Y-89876380D01*
X66889238Y-89876380D01*
X66984476Y-89924000D01*
X67032095Y-89971619D01*
X67079714Y-90066857D01*
X67079714Y-90162095D01*
X67032095Y-90257333D01*
X66984476Y-90304952D01*
X66889238Y-90352571D01*
X66555904Y-90352571D01*
X67984476Y-90209714D02*
X67984476Y-90876380D01*
X67746380Y-89828761D02*
X67508285Y-90543047D01*
X68127333Y-90543047D01*
X70056952Y-33996380D02*
X70056952Y-34710666D01*
X70009333Y-34853523D01*
X69914095Y-34948761D01*
X69771238Y-34996380D01*
X69676000Y-34996380D01*
X71009333Y-34996380D02*
X70533142Y-34996380D01*
X70533142Y-33996380D01*
X71914095Y-34901142D02*
X71866476Y-34948761D01*
X71723619Y-34996380D01*
X71628380Y-34996380D01*
X71485523Y-34948761D01*
X71390285Y-34853523D01*
X71342666Y-34758285D01*
X71295047Y-34567809D01*
X71295047Y-34424952D01*
X71342666Y-34234476D01*
X71390285Y-34139238D01*
X71485523Y-34044000D01*
X71628380Y-33996380D01*
X71723619Y-33996380D01*
X71866476Y-34044000D01*
X71914095Y-34091619D01*
X72628380Y-33996380D02*
X72628380Y-34710666D01*
X72580761Y-34853523D01*
X72485523Y-34948761D01*
X72342666Y-34996380D01*
X72247428Y-34996380D01*
X73580761Y-34996380D02*
X73104571Y-34996380D01*
X73104571Y-33996380D01*
X74485523Y-34901142D02*
X74437904Y-34948761D01*
X74295047Y-34996380D01*
X74199809Y-34996380D01*
X74056952Y-34948761D01*
X73961714Y-34853523D01*
X73914095Y-34758285D01*
X73866476Y-34567809D01*
X73866476Y-34424952D01*
X73914095Y-34234476D01*
X73961714Y-34139238D01*
X74056952Y-34044000D01*
X74199809Y-33996380D01*
X74295047Y-33996380D01*
X74437904Y-34044000D01*
X74485523Y-34091619D01*
X75199809Y-33996380D02*
X75199809Y-34710666D01*
X75152190Y-34853523D01*
X75056952Y-34948761D01*
X74914095Y-34996380D01*
X74818857Y-34996380D01*
X76152190Y-34996380D02*
X75676000Y-34996380D01*
X75676000Y-33996380D01*
X77056952Y-34901142D02*
X77009333Y-34948761D01*
X76866476Y-34996380D01*
X76771238Y-34996380D01*
X76628380Y-34948761D01*
X76533142Y-34853523D01*
X76485523Y-34758285D01*
X76437904Y-34567809D01*
X76437904Y-34424952D01*
X76485523Y-34234476D01*
X76533142Y-34139238D01*
X76628380Y-34044000D01*
X76771238Y-33996380D01*
X76866476Y-33996380D01*
X77009333Y-34044000D01*
X77056952Y-34091619D01*
X77771238Y-33996380D02*
X77771238Y-34710666D01*
X77723619Y-34853523D01*
X77628380Y-34948761D01*
X77485523Y-34996380D01*
X77390285Y-34996380D01*
X78723619Y-34996380D02*
X78247428Y-34996380D01*
X78247428Y-33996380D01*
X79628380Y-34901142D02*
X79580761Y-34948761D01*
X79437904Y-34996380D01*
X79342666Y-34996380D01*
X79199809Y-34948761D01*
X79104571Y-34853523D01*
X79056952Y-34758285D01*
X79009333Y-34567809D01*
X79009333Y-34424952D01*
X79056952Y-34234476D01*
X79104571Y-34139238D01*
X79199809Y-34044000D01*
X79342666Y-33996380D01*
X79437904Y-33996380D01*
X79580761Y-34044000D01*
X79628380Y-34091619D01*
X39369904Y-20058000D02*
X39465142Y-20105619D01*
X39608000Y-20105619D01*
X39750857Y-20058000D01*
X39846095Y-19962761D01*
X39893714Y-19867523D01*
X39941333Y-19677047D01*
X39941333Y-19534190D01*
X39893714Y-19343714D01*
X39846095Y-19248476D01*
X39750857Y-19153238D01*
X39608000Y-19105619D01*
X39512761Y-19105619D01*
X39369904Y-19153238D01*
X39322285Y-19200857D01*
X39322285Y-19534190D01*
X39512761Y-19534190D01*
X38893714Y-19105619D02*
X38893714Y-20105619D01*
X38322285Y-19105619D01*
X38322285Y-20105619D01*
X37846095Y-19105619D02*
X37846095Y-20105619D01*
X37608000Y-20105619D01*
X37465142Y-20058000D01*
X37369904Y-19962761D01*
X37322285Y-19867523D01*
X37274666Y-19677047D01*
X37274666Y-19534190D01*
X37322285Y-19343714D01*
X37369904Y-19248476D01*
X37465142Y-19153238D01*
X37608000Y-19105619D01*
X37846095Y-19105619D01*
X96464380Y-87701047D02*
X95940571Y-87701047D01*
X95845333Y-87748666D01*
X95797714Y-87843904D01*
X95797714Y-88034380D01*
X95845333Y-88129619D01*
X96416761Y-87701047D02*
X96464380Y-87796285D01*
X96464380Y-88034380D01*
X96416761Y-88129619D01*
X96321523Y-88177238D01*
X96226285Y-88177238D01*
X96131047Y-88129619D01*
X96083428Y-88034380D01*
X96083428Y-87796285D01*
X96035809Y-87701047D01*
X96464380Y-86796285D02*
X95464380Y-86796285D01*
X96416761Y-86796285D02*
X96464380Y-86891523D01*
X96464380Y-87082000D01*
X96416761Y-87177238D01*
X96369142Y-87224857D01*
X96273904Y-87272476D01*
X95988190Y-87272476D01*
X95892952Y-87224857D01*
X95845333Y-87177238D01*
X95797714Y-87082000D01*
X95797714Y-86891523D01*
X95845333Y-86796285D01*
X96464380Y-85891523D02*
X95464380Y-85891523D01*
X96416761Y-85891523D02*
X96464380Y-85986761D01*
X96464380Y-86177238D01*
X96416761Y-86272476D01*
X96369142Y-86320095D01*
X96273904Y-86367714D01*
X95988190Y-86367714D01*
X95892952Y-86320095D01*
X95845333Y-86272476D01*
X95797714Y-86177238D01*
X95797714Y-85986761D01*
X95845333Y-85891523D01*
X96464380Y-85415333D02*
X95797714Y-85415333D01*
X95988190Y-85415333D02*
X95892952Y-85367714D01*
X95845333Y-85320095D01*
X95797714Y-85224857D01*
X95797714Y-85129619D01*
X96369142Y-84796285D02*
X96416761Y-84748666D01*
X96464380Y-84796285D01*
X96416761Y-84843904D01*
X96369142Y-84796285D01*
X96464380Y-84796285D01*
X96464380Y-82986761D02*
X95988190Y-83320095D01*
X96464380Y-83558190D02*
X95464380Y-83558190D01*
X95464380Y-83177238D01*
X95512000Y-83082000D01*
X95559619Y-83034380D01*
X95654857Y-82986761D01*
X95797714Y-82986761D01*
X95892952Y-83034380D01*
X95940571Y-83082000D01*
X95988190Y-83177238D01*
X95988190Y-83558190D01*
X95512000Y-82034380D02*
X95464380Y-82129619D01*
X95464380Y-82272476D01*
X95512000Y-82415333D01*
X95607238Y-82510571D01*
X95702476Y-82558190D01*
X95892952Y-82605809D01*
X96035809Y-82605809D01*
X96226285Y-82558190D01*
X96321523Y-82510571D01*
X96416761Y-82415333D01*
X96464380Y-82272476D01*
X96464380Y-82177238D01*
X96416761Y-82034380D01*
X96369142Y-81986761D01*
X96035809Y-81986761D01*
X96035809Y-82177238D01*
X95940571Y-81224857D02*
X95988190Y-81082000D01*
X96035809Y-81034380D01*
X96131047Y-80986761D01*
X96273904Y-80986761D01*
X96369142Y-81034380D01*
X96416761Y-81082000D01*
X96464380Y-81177238D01*
X96464380Y-81558190D01*
X95464380Y-81558190D01*
X95464380Y-81224857D01*
X95512000Y-81129619D01*
X95559619Y-81082000D01*
X95654857Y-81034380D01*
X95750095Y-81034380D01*
X95845333Y-81082000D01*
X95892952Y-81129619D01*
X95940571Y-81224857D01*
X95940571Y-81558190D01*
X86463333Y-90876380D02*
X86130000Y-90400190D01*
X85891904Y-90876380D02*
X85891904Y-89876380D01*
X86272857Y-89876380D01*
X86368095Y-89924000D01*
X86415714Y-89971619D01*
X86463333Y-90066857D01*
X86463333Y-90209714D01*
X86415714Y-90304952D01*
X86368095Y-90352571D01*
X86272857Y-90400190D01*
X85891904Y-90400190D01*
X87415714Y-89924000D02*
X87320476Y-89876380D01*
X87177619Y-89876380D01*
X87034761Y-89924000D01*
X86939523Y-90019238D01*
X86891904Y-90114476D01*
X86844285Y-90304952D01*
X86844285Y-90447809D01*
X86891904Y-90638285D01*
X86939523Y-90733523D01*
X87034761Y-90828761D01*
X87177619Y-90876380D01*
X87272857Y-90876380D01*
X87415714Y-90828761D01*
X87463333Y-90781142D01*
X87463333Y-90447809D01*
X87272857Y-90447809D01*
X88225238Y-90352571D02*
X88368095Y-90400190D01*
X88415714Y-90447809D01*
X88463333Y-90543047D01*
X88463333Y-90685904D01*
X88415714Y-90781142D01*
X88368095Y-90828761D01*
X88272857Y-90876380D01*
X87891904Y-90876380D01*
X87891904Y-89876380D01*
X88225238Y-89876380D01*
X88320476Y-89924000D01*
X88368095Y-89971619D01*
X88415714Y-90066857D01*
X88415714Y-90162095D01*
X88368095Y-90257333D01*
X88320476Y-90304952D01*
X88225238Y-90352571D01*
X87891904Y-90352571D01*
X89415714Y-90876380D02*
X88844285Y-90876380D01*
X89130000Y-90876380D02*
X89130000Y-89876380D01*
X89034761Y-90019238D01*
X88939523Y-90114476D01*
X88844285Y-90162095D01*
X27686095Y-90312857D02*
X29209904Y-90312857D01*
X28448000Y-91074761D02*
X28448000Y-89550952D01*
X103322380Y-35337619D02*
X103322380Y-35813809D01*
X102322380Y-35813809D01*
X103322380Y-34480476D02*
X103322380Y-35051904D01*
X103322380Y-34766190D02*
X102322380Y-34766190D01*
X102465238Y-34861428D01*
X102560476Y-34956666D01*
X102608095Y-35051904D01*
X103417619Y-34290000D02*
X103417619Y-33528095D01*
X102798571Y-32956666D02*
X102846190Y-32813809D01*
X102893809Y-32766190D01*
X102989047Y-32718571D01*
X103131904Y-32718571D01*
X103227142Y-32766190D01*
X103274761Y-32813809D01*
X103322380Y-32909047D01*
X103322380Y-33290000D01*
X102322380Y-33290000D01*
X102322380Y-32956666D01*
X102370000Y-32861428D01*
X102417619Y-32813809D01*
X102512857Y-32766190D01*
X102608095Y-32766190D01*
X102703333Y-32813809D01*
X102750952Y-32861428D01*
X102798571Y-32956666D01*
X102798571Y-33290000D01*
X60353380Y-90113714D02*
X59353380Y-90113714D01*
X59734333Y-90113714D02*
X59686714Y-90018476D01*
X59686714Y-89828000D01*
X59734333Y-89732761D01*
X59781952Y-89685142D01*
X59877190Y-89637523D01*
X60162904Y-89637523D01*
X60258142Y-89685142D01*
X60305761Y-89732761D01*
X60353380Y-89828000D01*
X60353380Y-90018476D01*
X60305761Y-90113714D01*
X60353380Y-88780380D02*
X59829571Y-88780380D01*
X59734333Y-88828000D01*
X59686714Y-88923238D01*
X59686714Y-89113714D01*
X59734333Y-89208952D01*
X60305761Y-88780380D02*
X60353380Y-88875619D01*
X60353380Y-89113714D01*
X60305761Y-89208952D01*
X60210523Y-89256571D01*
X60115285Y-89256571D01*
X60020047Y-89208952D01*
X59972428Y-89113714D01*
X59972428Y-88875619D01*
X59924809Y-88780380D01*
X59686714Y-88447047D02*
X59686714Y-88066095D01*
X59353380Y-88304190D02*
X60210523Y-88304190D01*
X60305761Y-88256571D01*
X60353380Y-88161333D01*
X60353380Y-88066095D01*
X59686714Y-87875619D02*
X59686714Y-87494666D01*
X59353380Y-87732761D02*
X60210523Y-87732761D01*
X60305761Y-87685142D01*
X60353380Y-87589904D01*
X60353380Y-87494666D01*
X60305761Y-86780380D02*
X60353380Y-86875619D01*
X60353380Y-87066095D01*
X60305761Y-87161333D01*
X60210523Y-87208952D01*
X59829571Y-87208952D01*
X59734333Y-87161333D01*
X59686714Y-87066095D01*
X59686714Y-86875619D01*
X59734333Y-86780380D01*
X59829571Y-86732761D01*
X59924809Y-86732761D01*
X60020047Y-87208952D01*
X60353380Y-86304190D02*
X59686714Y-86304190D01*
X59877190Y-86304190D02*
X59781952Y-86256571D01*
X59734333Y-86208952D01*
X59686714Y-86113714D01*
X59686714Y-86018476D01*
X59686714Y-85780380D02*
X60353380Y-85542285D01*
X59686714Y-85304190D02*
X60353380Y-85542285D01*
X60591476Y-85637523D01*
X60639095Y-85685142D01*
X60686714Y-85780380D01*
X59686714Y-84161333D02*
X60686714Y-84161333D01*
X59734333Y-84161333D02*
X59686714Y-84066095D01*
X59686714Y-83875619D01*
X59734333Y-83780380D01*
X59781952Y-83732761D01*
X59877190Y-83685142D01*
X60162904Y-83685142D01*
X60258142Y-83732761D01*
X60305761Y-83780380D01*
X60353380Y-83875619D01*
X60353380Y-84066095D01*
X60305761Y-84161333D01*
X60353380Y-83113714D02*
X60305761Y-83208952D01*
X60258142Y-83256571D01*
X60162904Y-83304190D01*
X59877190Y-83304190D01*
X59781952Y-83256571D01*
X59734333Y-83208952D01*
X59686714Y-83113714D01*
X59686714Y-82970857D01*
X59734333Y-82875619D01*
X59781952Y-82828000D01*
X59877190Y-82780380D01*
X60162904Y-82780380D01*
X60258142Y-82828000D01*
X60305761Y-82875619D01*
X60353380Y-82970857D01*
X60353380Y-83113714D01*
X59686714Y-82447047D02*
X60353380Y-82256571D01*
X59877190Y-82066095D01*
X60353380Y-81875619D01*
X59686714Y-81685142D01*
X60305761Y-80923238D02*
X60353380Y-81018476D01*
X60353380Y-81208952D01*
X60305761Y-81304190D01*
X60210523Y-81351809D01*
X59829571Y-81351809D01*
X59734333Y-81304190D01*
X59686714Y-81208952D01*
X59686714Y-81018476D01*
X59734333Y-80923238D01*
X59829571Y-80875619D01*
X59924809Y-80875619D01*
X60020047Y-81351809D01*
X60353380Y-80447047D02*
X59686714Y-80447047D01*
X59877190Y-80447047D02*
X59781952Y-80399428D01*
X59734333Y-80351809D01*
X59686714Y-80256571D01*
X59686714Y-80161333D01*
X60305761Y-79447047D02*
X60353380Y-79542285D01*
X60353380Y-79732761D01*
X60305761Y-79828000D01*
X60210523Y-79875619D01*
X59829571Y-79875619D01*
X59734333Y-79828000D01*
X59686714Y-79732761D01*
X59686714Y-79542285D01*
X59734333Y-79447047D01*
X59829571Y-79399428D01*
X59924809Y-79399428D01*
X60020047Y-79875619D01*
X60353380Y-78542285D02*
X59353380Y-78542285D01*
X60305761Y-78542285D02*
X60353380Y-78637523D01*
X60353380Y-78828000D01*
X60305761Y-78923238D01*
X60258142Y-78970857D01*
X60162904Y-79018476D01*
X59877190Y-79018476D01*
X59781952Y-78970857D01*
X59734333Y-78923238D01*
X59686714Y-78828000D01*
X59686714Y-78637523D01*
X59734333Y-78542285D01*
X61963380Y-87899428D02*
X61963380Y-88375619D01*
X60963380Y-88375619D01*
X61439571Y-87566095D02*
X61439571Y-87232761D01*
X61963380Y-87089904D02*
X61963380Y-87566095D01*
X60963380Y-87566095D01*
X60963380Y-87089904D01*
X61963380Y-86661333D02*
X60963380Y-86661333D01*
X60963380Y-86423238D01*
X61011000Y-86280380D01*
X61106238Y-86185142D01*
X61201476Y-86137523D01*
X61391952Y-86089904D01*
X61534809Y-86089904D01*
X61725285Y-86137523D01*
X61820523Y-86185142D01*
X61915761Y-86280380D01*
X61963380Y-86423238D01*
X61963380Y-86661333D01*
X61915761Y-84947047D02*
X61963380Y-84851809D01*
X61963380Y-84661333D01*
X61915761Y-84566095D01*
X61820523Y-84518476D01*
X61772904Y-84518476D01*
X61677666Y-84566095D01*
X61630047Y-84661333D01*
X61630047Y-84804190D01*
X61582428Y-84899428D01*
X61487190Y-84947047D01*
X61439571Y-84947047D01*
X61344333Y-84899428D01*
X61296714Y-84804190D01*
X61296714Y-84661333D01*
X61344333Y-84566095D01*
X61296714Y-84232761D02*
X61296714Y-83851809D01*
X60963380Y-84089904D02*
X61820523Y-84089904D01*
X61915761Y-84042285D01*
X61963380Y-83947047D01*
X61963380Y-83851809D01*
X61963380Y-83518476D02*
X61296714Y-83518476D01*
X61487190Y-83518476D02*
X61391952Y-83470857D01*
X61344333Y-83423238D01*
X61296714Y-83328000D01*
X61296714Y-83232761D01*
X61963380Y-82899428D02*
X61296714Y-82899428D01*
X60963380Y-82899428D02*
X61011000Y-82947047D01*
X61058619Y-82899428D01*
X61011000Y-82851809D01*
X60963380Y-82899428D01*
X61058619Y-82899428D01*
X61296714Y-82423238D02*
X61963380Y-82423238D01*
X61391952Y-82423238D02*
X61344333Y-82375619D01*
X61296714Y-82280380D01*
X61296714Y-82137523D01*
X61344333Y-82042285D01*
X61439571Y-81994666D01*
X61963380Y-81994666D01*
X61296714Y-81089904D02*
X62106238Y-81089904D01*
X62201476Y-81137523D01*
X62249095Y-81185142D01*
X62296714Y-81280380D01*
X62296714Y-81423238D01*
X62249095Y-81518476D01*
X61915761Y-81089904D02*
X61963380Y-81185142D01*
X61963380Y-81375619D01*
X61915761Y-81470857D01*
X61868142Y-81518476D01*
X61772904Y-81566095D01*
X61487190Y-81566095D01*
X61391952Y-81518476D01*
X61344333Y-81470857D01*
X61296714Y-81375619D01*
X61296714Y-81185142D01*
X61344333Y-81089904D01*
X61915761Y-80661333D02*
X61963380Y-80566095D01*
X61963380Y-80375619D01*
X61915761Y-80280380D01*
X61820523Y-80232761D01*
X61772904Y-80232761D01*
X61677666Y-80280380D01*
X61630047Y-80375619D01*
X61630047Y-80518476D01*
X61582428Y-80613714D01*
X61487190Y-80661333D01*
X61439571Y-80661333D01*
X61344333Y-80613714D01*
X61296714Y-80518476D01*
X61296714Y-80375619D01*
X61344333Y-80280380D01*
X44196095Y-90312857D02*
X45719904Y-90312857D01*
X81788095Y-89924000D02*
X81692857Y-89876380D01*
X81550000Y-89876380D01*
X81407142Y-89924000D01*
X81311904Y-90019238D01*
X81264285Y-90114476D01*
X81216666Y-90304952D01*
X81216666Y-90447809D01*
X81264285Y-90638285D01*
X81311904Y-90733523D01*
X81407142Y-90828761D01*
X81550000Y-90876380D01*
X81645238Y-90876380D01*
X81788095Y-90828761D01*
X81835714Y-90781142D01*
X81835714Y-90447809D01*
X81645238Y-90447809D01*
X82264285Y-90876380D02*
X82264285Y-89876380D01*
X82835714Y-90876380D01*
X82835714Y-89876380D01*
X83311904Y-90876380D02*
X83311904Y-89876380D01*
X83550000Y-89876380D01*
X83692857Y-89924000D01*
X83788095Y-90019238D01*
X83835714Y-90114476D01*
X83883333Y-90304952D01*
X83883333Y-90447809D01*
X83835714Y-90638285D01*
X83788095Y-90733523D01*
X83692857Y-90828761D01*
X83550000Y-90876380D01*
X83311904Y-90876380D01*
X103322380Y-46513619D02*
X103322380Y-46989809D01*
X102322380Y-46989809D01*
X102417619Y-46227904D02*
X102370000Y-46180285D01*
X102322380Y-46085047D01*
X102322380Y-45846952D01*
X102370000Y-45751714D01*
X102417619Y-45704095D01*
X102512857Y-45656476D01*
X102608095Y-45656476D01*
X102750952Y-45704095D01*
X103322380Y-46275523D01*
X103322380Y-45656476D01*
X103417619Y-45466000D02*
X103417619Y-44704095D01*
X102798571Y-44132666D02*
X102846190Y-43989809D01*
X102893809Y-43942190D01*
X102989047Y-43894571D01*
X103131904Y-43894571D01*
X103227142Y-43942190D01*
X103274761Y-43989809D01*
X103322380Y-44085047D01*
X103322380Y-44466000D01*
X102322380Y-44466000D01*
X102322380Y-44132666D01*
X102370000Y-44037428D01*
X102417619Y-43989809D01*
X102512857Y-43942190D01*
X102608095Y-43942190D01*
X102703333Y-43989809D01*
X102750952Y-44037428D01*
X102798571Y-44132666D01*
X102798571Y-44466000D01*
X55626095Y-90312857D02*
X57149904Y-90312857D01*
X50292095Y-90312857D02*
X51815904Y-90312857D01*
X51054000Y-91074761D02*
X51054000Y-89550952D01*
X18867428Y-42451142D02*
X18867428Y-42784476D01*
X18343619Y-42927333D02*
X18343619Y-42451142D01*
X19343619Y-42451142D01*
X19343619Y-42927333D01*
X18391238Y-43308285D02*
X18343619Y-43451142D01*
X18343619Y-43689238D01*
X18391238Y-43784476D01*
X18438857Y-43832095D01*
X18534095Y-43879714D01*
X18629333Y-43879714D01*
X18724571Y-43832095D01*
X18772190Y-43784476D01*
X18819809Y-43689238D01*
X18867428Y-43498761D01*
X18915047Y-43403523D01*
X18962666Y-43355904D01*
X19057904Y-43308285D01*
X19153142Y-43308285D01*
X19248380Y-43355904D01*
X19296000Y-43403523D01*
X19343619Y-43498761D01*
X19343619Y-43736857D01*
X19296000Y-43879714D01*
X18343619Y-44308285D02*
X19343619Y-44308285D01*
X19343619Y-44689238D01*
X19296000Y-44784476D01*
X19248380Y-44832095D01*
X19153142Y-44879714D01*
X19010285Y-44879714D01*
X18915047Y-44832095D01*
X18867428Y-44784476D01*
X18819809Y-44689238D01*
X18819809Y-44308285D01*
X19343619Y-45213047D02*
X19343619Y-45832095D01*
X18962666Y-45498761D01*
X18962666Y-45641619D01*
X18915047Y-45736857D01*
X18867428Y-45784476D01*
X18772190Y-45832095D01*
X18534095Y-45832095D01*
X18438857Y-45784476D01*
X18391238Y-45736857D01*
X18343619Y-45641619D01*
X18343619Y-45355904D01*
X18391238Y-45260666D01*
X18438857Y-45213047D01*
X19248380Y-46213047D02*
X19296000Y-46260666D01*
X19343619Y-46355904D01*
X19343619Y-46594000D01*
X19296000Y-46689238D01*
X19248380Y-46736857D01*
X19153142Y-46784476D01*
X19057904Y-46784476D01*
X18915047Y-46736857D01*
X18343619Y-46165428D01*
X18343619Y-46784476D01*
X18343619Y-47213047D02*
X19343619Y-47213047D01*
X19343619Y-47451142D01*
X19296000Y-47594000D01*
X19200761Y-47689238D01*
X19105523Y-47736857D01*
X18915047Y-47784476D01*
X18772190Y-47784476D01*
X18581714Y-47736857D01*
X18486476Y-47689238D01*
X18391238Y-47594000D01*
X18343619Y-47451142D01*
X18343619Y-47213047D01*
X19343619Y-48403523D02*
X19343619Y-48594000D01*
X19296000Y-48689238D01*
X19200761Y-48784476D01*
X19010285Y-48832095D01*
X18676952Y-48832095D01*
X18486476Y-48784476D01*
X18391238Y-48689238D01*
X18343619Y-48594000D01*
X18343619Y-48403523D01*
X18391238Y-48308285D01*
X18486476Y-48213047D01*
X18676952Y-48165428D01*
X19010285Y-48165428D01*
X19200761Y-48213047D01*
X19296000Y-48308285D01*
X19343619Y-48403523D01*
X18343619Y-49260666D02*
X19343619Y-49260666D01*
X19343619Y-49594000D02*
X19343619Y-50165428D01*
X18343619Y-49879714D02*
X19343619Y-49879714D01*
X18724571Y-50498761D02*
X18724571Y-51260666D01*
X18343619Y-51736857D02*
X19343619Y-51736857D01*
X19343619Y-51974952D01*
X19296000Y-52117809D01*
X19200761Y-52213047D01*
X19105523Y-52260666D01*
X18915047Y-52308285D01*
X18772190Y-52308285D01*
X18581714Y-52260666D01*
X18486476Y-52213047D01*
X18391238Y-52117809D01*
X18343619Y-51974952D01*
X18343619Y-51736857D01*
X18867428Y-52736857D02*
X18867428Y-53070190D01*
X18343619Y-53213047D02*
X18343619Y-52736857D01*
X19343619Y-52736857D01*
X19343619Y-53213047D01*
X19343619Y-53498761D02*
X18343619Y-53832095D01*
X19343619Y-54165428D01*
X18343619Y-54498761D02*
X19343619Y-54498761D01*
X18343619Y-55070190D02*
X18915047Y-54641619D01*
X19343619Y-55070190D02*
X18772190Y-54498761D01*
X18343619Y-55498761D02*
X19343619Y-55498761D01*
X19343619Y-55832095D02*
X19343619Y-56403523D01*
X18343619Y-56117809D02*
X19343619Y-56117809D01*
X18724571Y-56736857D02*
X18724571Y-57498761D01*
X19343619Y-57832095D02*
X18343619Y-58165428D01*
X19343619Y-58498761D01*
X18343619Y-59355904D02*
X18343619Y-58784476D01*
X18343619Y-59070190D02*
X19343619Y-59070190D01*
X19200761Y-58974952D01*
X19105523Y-58879714D01*
X19057904Y-58784476D01*
X18724571Y-59784476D02*
X18724571Y-60546380D01*
X19343619Y-60927333D02*
X19343619Y-61546380D01*
X18962666Y-61213047D01*
X18962666Y-61355904D01*
X18915047Y-61451142D01*
X18867428Y-61498761D01*
X18772190Y-61546380D01*
X18534095Y-61546380D01*
X18438857Y-61498761D01*
X18391238Y-61451142D01*
X18343619Y-61355904D01*
X18343619Y-61070190D01*
X18391238Y-60974952D01*
X18438857Y-60927333D01*
X19343619Y-62165428D02*
X19343619Y-62260666D01*
X19296000Y-62355904D01*
X19248380Y-62403523D01*
X19153142Y-62451142D01*
X18962666Y-62498761D01*
X18724571Y-62498761D01*
X18534095Y-62451142D01*
X18438857Y-62403523D01*
X18391238Y-62355904D01*
X18343619Y-62260666D01*
X18343619Y-62165428D01*
X18391238Y-62070190D01*
X18438857Y-62022571D01*
X18534095Y-61974952D01*
X18724571Y-61927333D01*
X18962666Y-61927333D01*
X19153142Y-61974952D01*
X19248380Y-62022571D01*
X19296000Y-62070190D01*
X19343619Y-62165428D01*
X19010285Y-62927333D02*
X18010285Y-62927333D01*
X18962666Y-62927333D02*
X19010285Y-63022571D01*
X19010285Y-63213047D01*
X18962666Y-63308285D01*
X18915047Y-63355904D01*
X18819809Y-63403523D01*
X18534095Y-63403523D01*
X18438857Y-63355904D01*
X18391238Y-63308285D01*
X18343619Y-63213047D01*
X18343619Y-63022571D01*
X18391238Y-62927333D01*
X18343619Y-63832095D02*
X19010285Y-63832095D01*
X19343619Y-63832095D02*
X19296000Y-63784476D01*
X19248380Y-63832095D01*
X19296000Y-63879714D01*
X19343619Y-63832095D01*
X19248380Y-63832095D01*
X19010285Y-64308285D02*
X18343619Y-64308285D01*
X18915047Y-64308285D02*
X18962666Y-64355904D01*
X19010285Y-64451142D01*
X19010285Y-64594000D01*
X18962666Y-64689238D01*
X18867428Y-64736857D01*
X18343619Y-64736857D01*
X64436476Y-20010380D02*
X64388857Y-20058000D01*
X64293619Y-20105619D01*
X64055523Y-20105619D01*
X63960285Y-20058000D01*
X63912666Y-20010380D01*
X63865047Y-19915142D01*
X63865047Y-19819904D01*
X63912666Y-19677047D01*
X64484095Y-19105619D01*
X63865047Y-19105619D01*
X63293619Y-19677047D02*
X63388857Y-19724666D01*
X63436476Y-19772285D01*
X63484095Y-19867523D01*
X63484095Y-19915142D01*
X63436476Y-20010380D01*
X63388857Y-20058000D01*
X63293619Y-20105619D01*
X63103142Y-20105619D01*
X63007904Y-20058000D01*
X62960285Y-20010380D01*
X62912666Y-19915142D01*
X62912666Y-19867523D01*
X62960285Y-19772285D01*
X63007904Y-19724666D01*
X63103142Y-19677047D01*
X63293619Y-19677047D01*
X63388857Y-19629428D01*
X63436476Y-19581809D01*
X63484095Y-19486571D01*
X63484095Y-19296095D01*
X63436476Y-19200857D01*
X63388857Y-19153238D01*
X63293619Y-19105619D01*
X63103142Y-19105619D01*
X63007904Y-19153238D01*
X62960285Y-19200857D01*
X62912666Y-19296095D01*
X62912666Y-19486571D01*
X62960285Y-19581809D01*
X63007904Y-19629428D01*
X63103142Y-19677047D01*
X62626952Y-20105619D02*
X62293619Y-19105619D01*
X61960285Y-20105619D01*
X103322380Y-64730190D02*
X103322380Y-65206380D01*
X102322380Y-65206380D01*
X102417619Y-64444476D02*
X102370000Y-64396857D01*
X102322380Y-64301619D01*
X102322380Y-64063523D01*
X102370000Y-63968285D01*
X102417619Y-63920666D01*
X102512857Y-63873047D01*
X102608095Y-63873047D01*
X102750952Y-63920666D01*
X103322380Y-64492095D01*
X103322380Y-63873047D01*
X103417619Y-63682571D02*
X103417619Y-62920666D01*
X103036666Y-62730190D02*
X103036666Y-62254000D01*
X103322380Y-62825428D02*
X102322380Y-62492095D01*
X103322380Y-62158761D01*
X27435285Y-20114000D02*
X26435285Y-20114000D01*
X27387666Y-20114000D02*
X27435285Y-20209238D01*
X27435285Y-20399714D01*
X27387666Y-20494952D01*
X27340047Y-20542571D01*
X27244809Y-20590190D01*
X26959095Y-20590190D01*
X26863857Y-20542571D01*
X26816238Y-20494952D01*
X26768619Y-20399714D01*
X26768619Y-20209238D01*
X26816238Y-20114000D01*
X26768619Y-21161619D02*
X26816238Y-21066380D01*
X26863857Y-21018761D01*
X26959095Y-20971142D01*
X27244809Y-20971142D01*
X27340047Y-21018761D01*
X27387666Y-21066380D01*
X27435285Y-21161619D01*
X27435285Y-21304476D01*
X27387666Y-21399714D01*
X27340047Y-21447333D01*
X27244809Y-21494952D01*
X26959095Y-21494952D01*
X26863857Y-21447333D01*
X26816238Y-21399714D01*
X26768619Y-21304476D01*
X26768619Y-21161619D01*
X27435285Y-21828285D02*
X26768619Y-22018761D01*
X27244809Y-22209238D01*
X26768619Y-22399714D01*
X27435285Y-22590190D01*
X26816238Y-23352095D02*
X26768619Y-23256857D01*
X26768619Y-23066380D01*
X26816238Y-22971142D01*
X26911476Y-22923523D01*
X27292428Y-22923523D01*
X27387666Y-22971142D01*
X27435285Y-23066380D01*
X27435285Y-23256857D01*
X27387666Y-23352095D01*
X27292428Y-23399714D01*
X27197190Y-23399714D01*
X27101952Y-22923523D01*
X26768619Y-23828285D02*
X27435285Y-23828285D01*
X27244809Y-23828285D02*
X27340047Y-23875904D01*
X27387666Y-23923523D01*
X27435285Y-24018761D01*
X27435285Y-24114000D01*
X26768619Y-25209238D02*
X27435285Y-25209238D01*
X27768619Y-25209238D02*
X27721000Y-25161619D01*
X27673380Y-25209238D01*
X27721000Y-25256857D01*
X27768619Y-25209238D01*
X27673380Y-25209238D01*
X27435285Y-25685428D02*
X26768619Y-25685428D01*
X27340047Y-25685428D02*
X27387666Y-25733047D01*
X27435285Y-25828285D01*
X27435285Y-25971142D01*
X27387666Y-26066380D01*
X27292428Y-26114000D01*
X26768619Y-26114000D01*
X25158619Y-21114000D02*
X25158619Y-20542571D01*
X25158619Y-20828285D02*
X26158619Y-20828285D01*
X26015761Y-20733047D01*
X25920523Y-20637809D01*
X25872904Y-20542571D01*
X26063380Y-21494952D02*
X26111000Y-21542571D01*
X26158619Y-21637809D01*
X26158619Y-21875904D01*
X26111000Y-21971142D01*
X26063380Y-22018761D01*
X25968142Y-22066380D01*
X25872904Y-22066380D01*
X25730047Y-22018761D01*
X25158619Y-21447333D01*
X25158619Y-22066380D01*
X26158619Y-22352095D02*
X25158619Y-22685428D01*
X26158619Y-23018761D01*
X25158619Y-24114000D02*
X26158619Y-24114000D01*
X26158619Y-24352095D01*
X26111000Y-24494952D01*
X26015761Y-24590190D01*
X25920523Y-24637809D01*
X25730047Y-24685428D01*
X25587190Y-24685428D01*
X25396714Y-24637809D01*
X25301476Y-24590190D01*
X25206238Y-24494952D01*
X25158619Y-24352095D01*
X25158619Y-24114000D01*
X25253857Y-25685428D02*
X25206238Y-25637809D01*
X25158619Y-25494952D01*
X25158619Y-25399714D01*
X25206238Y-25256857D01*
X25301476Y-25161619D01*
X25396714Y-25114000D01*
X25587190Y-25066380D01*
X25730047Y-25066380D01*
X25920523Y-25114000D01*
X26015761Y-25161619D01*
X26111000Y-25256857D01*
X26158619Y-25399714D01*
X26158619Y-25494952D01*
X26111000Y-25637809D01*
X26063380Y-25685428D01*
X103322380Y-69627619D02*
X103322380Y-70103809D01*
X102322380Y-70103809D01*
X102417619Y-69341904D02*
X102370000Y-69294285D01*
X102322380Y-69199047D01*
X102322380Y-68960952D01*
X102370000Y-68865714D01*
X102417619Y-68818095D01*
X102512857Y-68770476D01*
X102608095Y-68770476D01*
X102750952Y-68818095D01*
X103322380Y-69389523D01*
X103322380Y-68770476D01*
X103417619Y-68580000D02*
X103417619Y-67818095D01*
X102798571Y-67246666D02*
X102846190Y-67103809D01*
X102893809Y-67056190D01*
X102989047Y-67008571D01*
X103131904Y-67008571D01*
X103227142Y-67056190D01*
X103274761Y-67103809D01*
X103322380Y-67199047D01*
X103322380Y-67580000D01*
X102322380Y-67580000D01*
X102322380Y-67246666D01*
X102370000Y-67151428D01*
X102417619Y-67103809D01*
X102512857Y-67056190D01*
X102608095Y-67056190D01*
X102703333Y-67103809D01*
X102750952Y-67151428D01*
X102798571Y-67246666D01*
X102798571Y-67580000D01*
X52102833Y-22137619D02*
X52579023Y-22137619D01*
X52626642Y-21661428D01*
X52579023Y-21709047D01*
X52483785Y-21756666D01*
X52245690Y-21756666D01*
X52150452Y-21709047D01*
X52102833Y-21661428D01*
X52055214Y-21566190D01*
X52055214Y-21328095D01*
X52102833Y-21232857D01*
X52150452Y-21185238D01*
X52245690Y-21137619D01*
X52483785Y-21137619D01*
X52579023Y-21185238D01*
X52626642Y-21232857D01*
X51769500Y-22137619D02*
X51436166Y-21137619D01*
X51102833Y-22137619D01*
X50007595Y-21804285D02*
X50007595Y-20804285D01*
X50007595Y-21756666D02*
X49912357Y-21804285D01*
X49721880Y-21804285D01*
X49626642Y-21756666D01*
X49579023Y-21709047D01*
X49531404Y-21613809D01*
X49531404Y-21328095D01*
X49579023Y-21232857D01*
X49626642Y-21185238D01*
X49721880Y-21137619D01*
X49912357Y-21137619D01*
X50007595Y-21185238D01*
X48959976Y-21137619D02*
X49055214Y-21185238D01*
X49102833Y-21232857D01*
X49150452Y-21328095D01*
X49150452Y-21613809D01*
X49102833Y-21709047D01*
X49055214Y-21756666D01*
X48959976Y-21804285D01*
X48817119Y-21804285D01*
X48721880Y-21756666D01*
X48674261Y-21709047D01*
X48626642Y-21613809D01*
X48626642Y-21328095D01*
X48674261Y-21232857D01*
X48721880Y-21185238D01*
X48817119Y-21137619D01*
X48959976Y-21137619D01*
X48293309Y-21804285D02*
X48102833Y-21137619D01*
X47912357Y-21613809D01*
X47721880Y-21137619D01*
X47531404Y-21804285D01*
X46769500Y-21185238D02*
X46864738Y-21137619D01*
X47055214Y-21137619D01*
X47150452Y-21185238D01*
X47198071Y-21280476D01*
X47198071Y-21661428D01*
X47150452Y-21756666D01*
X47055214Y-21804285D01*
X46864738Y-21804285D01*
X46769500Y-21756666D01*
X46721880Y-21661428D01*
X46721880Y-21566190D01*
X47198071Y-21470952D01*
X46293309Y-21137619D02*
X46293309Y-21804285D01*
X46293309Y-21613809D02*
X46245690Y-21709047D01*
X46198071Y-21756666D01*
X46102833Y-21804285D01*
X46007595Y-21804285D01*
X44769500Y-21137619D02*
X44864738Y-21185238D01*
X44912357Y-21232857D01*
X44959976Y-21328095D01*
X44959976Y-21613809D01*
X44912357Y-21709047D01*
X44864738Y-21756666D01*
X44769500Y-21804285D01*
X44626642Y-21804285D01*
X44531404Y-21756666D01*
X44483785Y-21709047D01*
X44436166Y-21613809D01*
X44436166Y-21328095D01*
X44483785Y-21232857D01*
X44531404Y-21185238D01*
X44626642Y-21137619D01*
X44769500Y-21137619D01*
X43579023Y-21804285D02*
X43579023Y-21137619D01*
X44007595Y-21804285D02*
X44007595Y-21280476D01*
X43959976Y-21185238D01*
X43864738Y-21137619D01*
X43721880Y-21137619D01*
X43626642Y-21185238D01*
X43579023Y-21232857D01*
X43245690Y-21804285D02*
X42864738Y-21804285D01*
X43102833Y-22137619D02*
X43102833Y-21280476D01*
X43055214Y-21185238D01*
X42959976Y-21137619D01*
X42864738Y-21137619D01*
X103322380Y-57689619D02*
X103322380Y-58165809D01*
X102322380Y-58165809D01*
X103322380Y-56832476D02*
X103322380Y-57403904D01*
X103322380Y-57118190D02*
X102322380Y-57118190D01*
X102465238Y-57213428D01*
X102560476Y-57308666D01*
X102608095Y-57403904D01*
X103417619Y-56642000D02*
X103417619Y-55880095D01*
X102798571Y-55308666D02*
X102846190Y-55165809D01*
X102893809Y-55118190D01*
X102989047Y-55070571D01*
X103131904Y-55070571D01*
X103227142Y-55118190D01*
X103274761Y-55165809D01*
X103322380Y-55261047D01*
X103322380Y-55642000D01*
X102322380Y-55642000D01*
X102322380Y-55308666D01*
X102370000Y-55213428D01*
X102417619Y-55165809D01*
X102512857Y-55118190D01*
X102608095Y-55118190D01*
X102703333Y-55165809D01*
X102750952Y-55213428D01*
X102798571Y-55308666D01*
X102798571Y-55642000D01*
X103322380Y-30186190D02*
X103322380Y-30662380D01*
X102322380Y-30662380D01*
X103322380Y-29329047D02*
X103322380Y-29900476D01*
X103322380Y-29614761D02*
X102322380Y-29614761D01*
X102465238Y-29710000D01*
X102560476Y-29805238D01*
X102608095Y-29900476D01*
X103417619Y-29138571D02*
X103417619Y-28376666D01*
X103036666Y-28186190D02*
X103036666Y-27710000D01*
X103322380Y-28281428D02*
X102322380Y-27948095D01*
X103322380Y-27614761D01*
X92265523Y-89876380D02*
X91789333Y-89876380D01*
X91741714Y-90352571D01*
X91789333Y-90304952D01*
X91884571Y-90257333D01*
X92122666Y-90257333D01*
X92217904Y-90304952D01*
X92265523Y-90352571D01*
X92313142Y-90447809D01*
X92313142Y-90685904D01*
X92265523Y-90781142D01*
X92217904Y-90828761D01*
X92122666Y-90876380D01*
X91884571Y-90876380D01*
X91789333Y-90828761D01*
X91741714Y-90781142D01*
X92598857Y-89876380D02*
X92932190Y-90876380D01*
X93265523Y-89876380D01*
X32766095Y-90312857D02*
X34289904Y-90312857D01*
X58419904Y-20058000D02*
X58515142Y-20105619D01*
X58658000Y-20105619D01*
X58800857Y-20058000D01*
X58896095Y-19962761D01*
X58943714Y-19867523D01*
X58991333Y-19677047D01*
X58991333Y-19534190D01*
X58943714Y-19343714D01*
X58896095Y-19248476D01*
X58800857Y-19153238D01*
X58658000Y-19105619D01*
X58562761Y-19105619D01*
X58419904Y-19153238D01*
X58372285Y-19200857D01*
X58372285Y-19534190D01*
X58562761Y-19534190D01*
X57943714Y-19105619D02*
X57943714Y-20105619D01*
X57372285Y-19105619D01*
X57372285Y-20105619D01*
X56896095Y-19105619D02*
X56896095Y-20105619D01*
X56658000Y-20105619D01*
X56515142Y-20058000D01*
X56419904Y-19962761D01*
X56372285Y-19867523D01*
X56324666Y-19677047D01*
X56324666Y-19534190D01*
X56372285Y-19343714D01*
X56419904Y-19248476D01*
X56515142Y-19153238D01*
X56658000Y-19105619D01*
X56896095Y-19105619D01*
X39116095Y-90312857D02*
X40639904Y-90312857D01*
X39878000Y-91074761D02*
X39878000Y-89550952D01*
X18327619Y-27638571D02*
X18327619Y-27162380D01*
X17851428Y-27114761D01*
X17899047Y-27162380D01*
X17946666Y-27257619D01*
X17946666Y-27495714D01*
X17899047Y-27590952D01*
X17851428Y-27638571D01*
X17756190Y-27686190D01*
X17518095Y-27686190D01*
X17422857Y-27638571D01*
X17375238Y-27590952D01*
X17327619Y-27495714D01*
X17327619Y-27257619D01*
X17375238Y-27162380D01*
X17422857Y-27114761D01*
X18327619Y-27971904D02*
X17327619Y-28305238D01*
X18327619Y-28638571D01*
X17327619Y-29733809D02*
X18327619Y-29733809D01*
X18327619Y-29971904D01*
X18280000Y-30114761D01*
X18184761Y-30210000D01*
X18089523Y-30257619D01*
X17899047Y-30305238D01*
X17756190Y-30305238D01*
X17565714Y-30257619D01*
X17470476Y-30210000D01*
X17375238Y-30114761D01*
X17327619Y-29971904D01*
X17327619Y-29733809D01*
X17422857Y-31305238D02*
X17375238Y-31257619D01*
X17327619Y-31114761D01*
X17327619Y-31019523D01*
X17375238Y-30876666D01*
X17470476Y-30781428D01*
X17565714Y-30733809D01*
X17756190Y-30686190D01*
X17899047Y-30686190D01*
X18089523Y-30733809D01*
X18184761Y-30781428D01*
X18280000Y-30876666D01*
X18327619Y-31019523D01*
X18327619Y-31114761D01*
X18280000Y-31257619D01*
X18232380Y-31305238D01*
X18280000Y-34290095D02*
X18327619Y-34194857D01*
X18327619Y-34052000D01*
X18280000Y-33909142D01*
X18184761Y-33813904D01*
X18089523Y-33766285D01*
X17899047Y-33718666D01*
X17756190Y-33718666D01*
X17565714Y-33766285D01*
X17470476Y-33813904D01*
X17375238Y-33909142D01*
X17327619Y-34052000D01*
X17327619Y-34147238D01*
X17375238Y-34290095D01*
X17422857Y-34337714D01*
X17756190Y-34337714D01*
X17756190Y-34147238D01*
X17327619Y-34766285D02*
X18327619Y-34766285D01*
X17327619Y-35337714D01*
X18327619Y-35337714D01*
X17327619Y-35813904D02*
X18327619Y-35813904D01*
X18327619Y-36052000D01*
X18280000Y-36194857D01*
X18184761Y-36290095D01*
X18089523Y-36337714D01*
X17899047Y-36385333D01*
X17756190Y-36385333D01*
X17565714Y-36337714D01*
X17470476Y-36290095D01*
X17375238Y-36194857D01*
X17327619Y-36052000D01*
X17327619Y-35813904D01*
X103322380Y-41362190D02*
X103322380Y-41838380D01*
X102322380Y-41838380D01*
X102417619Y-41076476D02*
X102370000Y-41028857D01*
X102322380Y-40933619D01*
X102322380Y-40695523D01*
X102370000Y-40600285D01*
X102417619Y-40552666D01*
X102512857Y-40505047D01*
X102608095Y-40505047D01*
X102750952Y-40552666D01*
X103322380Y-41124095D01*
X103322380Y-40505047D01*
X103417619Y-40314571D02*
X103417619Y-39552666D01*
X103036666Y-39362190D02*
X103036666Y-38886000D01*
X103322380Y-39457428D02*
X102322380Y-39124095D01*
X103322380Y-38790761D01*
X74779333Y-90876380D02*
X74446000Y-90400190D01*
X74207904Y-90876380D02*
X74207904Y-89876380D01*
X74588857Y-89876380D01*
X74684095Y-89924000D01*
X74731714Y-89971619D01*
X74779333Y-90066857D01*
X74779333Y-90209714D01*
X74731714Y-90304952D01*
X74684095Y-90352571D01*
X74588857Y-90400190D01*
X74207904Y-90400190D01*
X75731714Y-89924000D02*
X75636476Y-89876380D01*
X75493619Y-89876380D01*
X75350761Y-89924000D01*
X75255523Y-90019238D01*
X75207904Y-90114476D01*
X75160285Y-90304952D01*
X75160285Y-90447809D01*
X75207904Y-90638285D01*
X75255523Y-90733523D01*
X75350761Y-90828761D01*
X75493619Y-90876380D01*
X75588857Y-90876380D01*
X75731714Y-90828761D01*
X75779333Y-90781142D01*
X75779333Y-90447809D01*
X75588857Y-90447809D01*
X76541238Y-90352571D02*
X76684095Y-90400190D01*
X76731714Y-90447809D01*
X76779333Y-90543047D01*
X76779333Y-90685904D01*
X76731714Y-90781142D01*
X76684095Y-90828761D01*
X76588857Y-90876380D01*
X76207904Y-90876380D01*
X76207904Y-89876380D01*
X76541238Y-89876380D01*
X76636476Y-89924000D01*
X76684095Y-89971619D01*
X76731714Y-90066857D01*
X76731714Y-90162095D01*
X76684095Y-90257333D01*
X76636476Y-90304952D01*
X76541238Y-90352571D01*
X76207904Y-90352571D01*
X77160285Y-89971619D02*
X77207904Y-89924000D01*
X77303142Y-89876380D01*
X77541238Y-89876380D01*
X77636476Y-89924000D01*
X77684095Y-89971619D01*
X77731714Y-90066857D01*
X77731714Y-90162095D01*
X77684095Y-90304952D01*
X77112666Y-90876380D01*
X77731714Y-90876380D01*
D11*
%TO.C,G\u002A\u002A\u002A*%
X26343428Y-53086000D02*
X26198285Y-53013428D01*
X25980571Y-53013428D01*
X25762857Y-53086000D01*
X25617714Y-53231142D01*
X25545142Y-53376285D01*
X25472571Y-53666571D01*
X25472571Y-53884285D01*
X25545142Y-54174571D01*
X25617714Y-54319714D01*
X25762857Y-54464857D01*
X25980571Y-54537428D01*
X26125714Y-54537428D01*
X26343428Y-54464857D01*
X26416000Y-54392285D01*
X26416000Y-53884285D01*
X26125714Y-53884285D01*
X27286857Y-53013428D02*
X27286857Y-53376285D01*
X26924000Y-53231142D02*
X27286857Y-53376285D01*
X27649714Y-53231142D01*
X27069142Y-53666571D02*
X27286857Y-53376285D01*
X27504571Y-53666571D01*
X28448000Y-53013428D02*
X28448000Y-53376285D01*
X28085142Y-53231142D02*
X28448000Y-53376285D01*
X28810857Y-53231142D01*
X28230285Y-53666571D02*
X28448000Y-53376285D01*
X28665714Y-53666571D01*
X29609142Y-53013428D02*
X29609142Y-53376285D01*
X29246285Y-53231142D02*
X29609142Y-53376285D01*
X29972000Y-53231142D01*
X29391428Y-53666571D02*
X29609142Y-53376285D01*
X29826857Y-53666571D01*
D10*
%TO.C,R23*%
X58110380Y-74302857D02*
X57634190Y-74636190D01*
X58110380Y-74874285D02*
X57110380Y-74874285D01*
X57110380Y-74493333D01*
X57158000Y-74398095D01*
X57205619Y-74350476D01*
X57300857Y-74302857D01*
X57443714Y-74302857D01*
X57538952Y-74350476D01*
X57586571Y-74398095D01*
X57634190Y-74493333D01*
X57634190Y-74874285D01*
X57205619Y-73921904D02*
X57158000Y-73874285D01*
X57110380Y-73779047D01*
X57110380Y-73540952D01*
X57158000Y-73445714D01*
X57205619Y-73398095D01*
X57300857Y-73350476D01*
X57396095Y-73350476D01*
X57538952Y-73398095D01*
X58110380Y-73969523D01*
X58110380Y-73350476D01*
X57110380Y-73017142D02*
X57110380Y-72398095D01*
X57491333Y-72731428D01*
X57491333Y-72588571D01*
X57538952Y-72493333D01*
X57586571Y-72445714D01*
X57681809Y-72398095D01*
X57919904Y-72398095D01*
X58015142Y-72445714D01*
X58062761Y-72493333D01*
X58110380Y-72588571D01*
X58110380Y-72874285D01*
X58062761Y-72969523D01*
X58015142Y-73017142D01*
%TO.C,Q3*%
X75613119Y-43275238D02*
X75565500Y-43370476D01*
X75470261Y-43465714D01*
X75327404Y-43608571D01*
X75279785Y-43703809D01*
X75279785Y-43799047D01*
X75517880Y-43751428D02*
X75470261Y-43846666D01*
X75375023Y-43941904D01*
X75184547Y-43989523D01*
X74851214Y-43989523D01*
X74660738Y-43941904D01*
X74565500Y-43846666D01*
X74517880Y-43751428D01*
X74517880Y-43560952D01*
X74565500Y-43465714D01*
X74660738Y-43370476D01*
X74851214Y-43322857D01*
X75184547Y-43322857D01*
X75375023Y-43370476D01*
X75470261Y-43465714D01*
X75517880Y-43560952D01*
X75517880Y-43751428D01*
X74517880Y-42989523D02*
X74517880Y-42370476D01*
X74898833Y-42703809D01*
X74898833Y-42560952D01*
X74946452Y-42465714D01*
X74994071Y-42418095D01*
X75089309Y-42370476D01*
X75327404Y-42370476D01*
X75422642Y-42418095D01*
X75470261Y-42465714D01*
X75517880Y-42560952D01*
X75517880Y-42846666D01*
X75470261Y-42941904D01*
X75422642Y-42989523D01*
%TO.C,R1*%
X31067880Y-73826666D02*
X30591690Y-74160000D01*
X31067880Y-74398095D02*
X30067880Y-74398095D01*
X30067880Y-74017142D01*
X30115500Y-73921904D01*
X30163119Y-73874285D01*
X30258357Y-73826666D01*
X30401214Y-73826666D01*
X30496452Y-73874285D01*
X30544071Y-73921904D01*
X30591690Y-74017142D01*
X30591690Y-74398095D01*
X31067880Y-72874285D02*
X31067880Y-73445714D01*
X31067880Y-73160000D02*
X30067880Y-73160000D01*
X30210738Y-73255238D01*
X30305976Y-73350476D01*
X30353595Y-73445714D01*
%TO.C,J14*%
X33226476Y-70020380D02*
X33226476Y-70734666D01*
X33178857Y-70877523D01*
X33083619Y-70972761D01*
X32940761Y-71020380D01*
X32845523Y-71020380D01*
X34226476Y-71020380D02*
X33655047Y-71020380D01*
X33940761Y-71020380D02*
X33940761Y-70020380D01*
X33845523Y-70163238D01*
X33750285Y-70258476D01*
X33655047Y-70306095D01*
X35083619Y-70353714D02*
X35083619Y-71020380D01*
X34845523Y-69972761D02*
X34607428Y-70687047D01*
X35226476Y-70687047D01*
%TO.C,R27*%
X68651380Y-74302857D02*
X68175190Y-74636190D01*
X68651380Y-74874285D02*
X67651380Y-74874285D01*
X67651380Y-74493333D01*
X67699000Y-74398095D01*
X67746619Y-74350476D01*
X67841857Y-74302857D01*
X67984714Y-74302857D01*
X68079952Y-74350476D01*
X68127571Y-74398095D01*
X68175190Y-74493333D01*
X68175190Y-74874285D01*
X67746619Y-73921904D02*
X67699000Y-73874285D01*
X67651380Y-73779047D01*
X67651380Y-73540952D01*
X67699000Y-73445714D01*
X67746619Y-73398095D01*
X67841857Y-73350476D01*
X67937095Y-73350476D01*
X68079952Y-73398095D01*
X68651380Y-73969523D01*
X68651380Y-73350476D01*
X67651380Y-73017142D02*
X67651380Y-72350476D01*
X68651380Y-72779047D01*
%TO.C,J12*%
X35044476Y-29678380D02*
X35044476Y-30392666D01*
X34996857Y-30535523D01*
X34901619Y-30630761D01*
X34758761Y-30678380D01*
X34663523Y-30678380D01*
X36044476Y-30678380D02*
X35473047Y-30678380D01*
X35758761Y-30678380D02*
X35758761Y-29678380D01*
X35663523Y-29821238D01*
X35568285Y-29916476D01*
X35473047Y-29964095D01*
X36425428Y-29773619D02*
X36473047Y-29726000D01*
X36568285Y-29678380D01*
X36806380Y-29678380D01*
X36901619Y-29726000D01*
X36949238Y-29773619D01*
X36996857Y-29868857D01*
X36996857Y-29964095D01*
X36949238Y-30106952D01*
X36377809Y-30678380D01*
X36996857Y-30678380D01*
%TO.C,J4*%
X92269380Y-54729333D02*
X92983666Y-54729333D01*
X93126523Y-54776952D01*
X93221761Y-54872190D01*
X93269380Y-55015047D01*
X93269380Y-55110285D01*
X92602714Y-53824571D02*
X93269380Y-53824571D01*
X92221761Y-54062666D02*
X92936047Y-54300761D01*
X92936047Y-53681714D01*
%TO.C,*%
%TO.C,Q6*%
X68501119Y-43275238D02*
X68453500Y-43370476D01*
X68358261Y-43465714D01*
X68215404Y-43608571D01*
X68167785Y-43703809D01*
X68167785Y-43799047D01*
X68405880Y-43751428D02*
X68358261Y-43846666D01*
X68263023Y-43941904D01*
X68072547Y-43989523D01*
X67739214Y-43989523D01*
X67548738Y-43941904D01*
X67453500Y-43846666D01*
X67405880Y-43751428D01*
X67405880Y-43560952D01*
X67453500Y-43465714D01*
X67548738Y-43370476D01*
X67739214Y-43322857D01*
X68072547Y-43322857D01*
X68263023Y-43370476D01*
X68358261Y-43465714D01*
X68405880Y-43560952D01*
X68405880Y-43751428D01*
X67405880Y-42465714D02*
X67405880Y-42656190D01*
X67453500Y-42751428D01*
X67501119Y-42799047D01*
X67643976Y-42894285D01*
X67834452Y-42941904D01*
X68215404Y-42941904D01*
X68310642Y-42894285D01*
X68358261Y-42846666D01*
X68405880Y-42751428D01*
X68405880Y-42560952D01*
X68358261Y-42465714D01*
X68310642Y-42418095D01*
X68215404Y-42370476D01*
X67977309Y-42370476D01*
X67882071Y-42418095D01*
X67834452Y-42465714D01*
X67786833Y-42560952D01*
X67786833Y-42751428D01*
X67834452Y-42846666D01*
X67882071Y-42894285D01*
X67977309Y-42941904D01*
%TO.C,J15*%
X52784476Y-89876380D02*
X52784476Y-90590666D01*
X52736857Y-90733523D01*
X52641619Y-90828761D01*
X52498761Y-90876380D01*
X52403523Y-90876380D01*
X53784476Y-90876380D02*
X53213047Y-90876380D01*
X53498761Y-90876380D02*
X53498761Y-89876380D01*
X53403523Y-90019238D01*
X53308285Y-90114476D01*
X53213047Y-90162095D01*
X54689238Y-89876380D02*
X54213047Y-89876380D01*
X54165428Y-90352571D01*
X54213047Y-90304952D01*
X54308285Y-90257333D01*
X54546380Y-90257333D01*
X54641619Y-90304952D01*
X54689238Y-90352571D01*
X54736857Y-90447809D01*
X54736857Y-90685904D01*
X54689238Y-90781142D01*
X54641619Y-90828761D01*
X54546380Y-90876380D01*
X54308285Y-90876380D01*
X54213047Y-90828761D01*
X54165428Y-90781142D01*
%TO.C,R25*%
X63317380Y-74302857D02*
X62841190Y-74636190D01*
X63317380Y-74874285D02*
X62317380Y-74874285D01*
X62317380Y-74493333D01*
X62365000Y-74398095D01*
X62412619Y-74350476D01*
X62507857Y-74302857D01*
X62650714Y-74302857D01*
X62745952Y-74350476D01*
X62793571Y-74398095D01*
X62841190Y-74493333D01*
X62841190Y-74874285D01*
X62412619Y-73921904D02*
X62365000Y-73874285D01*
X62317380Y-73779047D01*
X62317380Y-73540952D01*
X62365000Y-73445714D01*
X62412619Y-73398095D01*
X62507857Y-73350476D01*
X62603095Y-73350476D01*
X62745952Y-73398095D01*
X63317380Y-73969523D01*
X63317380Y-73350476D01*
X62317380Y-72445714D02*
X62317380Y-72921904D01*
X62793571Y-72969523D01*
X62745952Y-72921904D01*
X62698333Y-72826666D01*
X62698333Y-72588571D01*
X62745952Y-72493333D01*
X62793571Y-72445714D01*
X62888809Y-72398095D01*
X63126904Y-72398095D01*
X63222142Y-72445714D01*
X63269761Y-72493333D01*
X63317380Y-72588571D01*
X63317380Y-72826666D01*
X63269761Y-72921904D01*
X63222142Y-72969523D01*
%TO.C,R10*%
X90712380Y-44076857D02*
X90236190Y-44410190D01*
X90712380Y-44648285D02*
X89712380Y-44648285D01*
X89712380Y-44267333D01*
X89760000Y-44172095D01*
X89807619Y-44124476D01*
X89902857Y-44076857D01*
X90045714Y-44076857D01*
X90140952Y-44124476D01*
X90188571Y-44172095D01*
X90236190Y-44267333D01*
X90236190Y-44648285D01*
X90712380Y-43124476D02*
X90712380Y-43695904D01*
X90712380Y-43410190D02*
X89712380Y-43410190D01*
X89855238Y-43505428D01*
X89950476Y-43600666D01*
X89998095Y-43695904D01*
X89712380Y-42505428D02*
X89712380Y-42410190D01*
X89760000Y-42314952D01*
X89807619Y-42267333D01*
X89902857Y-42219714D01*
X90093333Y-42172095D01*
X90331428Y-42172095D01*
X90521904Y-42219714D01*
X90617142Y-42267333D01*
X90664761Y-42314952D01*
X90712380Y-42410190D01*
X90712380Y-42505428D01*
X90664761Y-42600666D01*
X90617142Y-42648285D01*
X90521904Y-42695904D01*
X90331428Y-42743523D01*
X90093333Y-42743523D01*
X89902857Y-42695904D01*
X89807619Y-42648285D01*
X89760000Y-42600666D01*
X89712380Y-42505428D01*
%TO.C,R5*%
X83256380Y-43346666D02*
X82780190Y-43680000D01*
X83256380Y-43918095D02*
X82256380Y-43918095D01*
X82256380Y-43537142D01*
X82304000Y-43441904D01*
X82351619Y-43394285D01*
X82446857Y-43346666D01*
X82589714Y-43346666D01*
X82684952Y-43394285D01*
X82732571Y-43441904D01*
X82780190Y-43537142D01*
X82780190Y-43918095D01*
X82256380Y-42441904D02*
X82256380Y-42918095D01*
X82732571Y-42965714D01*
X82684952Y-42918095D01*
X82637333Y-42822857D01*
X82637333Y-42584761D01*
X82684952Y-42489523D01*
X82732571Y-42441904D01*
X82827809Y-42394285D01*
X83065904Y-42394285D01*
X83161142Y-42441904D01*
X83208761Y-42489523D01*
X83256380Y-42584761D01*
X83256380Y-42822857D01*
X83208761Y-42918095D01*
X83161142Y-42965714D01*
%TO.C,U3*%
X84034380Y-35091904D02*
X84843904Y-35091904D01*
X84939142Y-35044285D01*
X84986761Y-34996666D01*
X85034380Y-34901428D01*
X85034380Y-34710952D01*
X84986761Y-34615714D01*
X84939142Y-34568095D01*
X84843904Y-34520476D01*
X84034380Y-34520476D01*
X84034380Y-34139523D02*
X84034380Y-33520476D01*
X84415333Y-33853809D01*
X84415333Y-33710952D01*
X84462952Y-33615714D01*
X84510571Y-33568095D01*
X84605809Y-33520476D01*
X84843904Y-33520476D01*
X84939142Y-33568095D01*
X84986761Y-33615714D01*
X85034380Y-33710952D01*
X85034380Y-33996666D01*
X84986761Y-34091904D01*
X84939142Y-34139523D01*
%TO.C,U5*%
X90936380Y-73405904D02*
X91745904Y-73405904D01*
X91841142Y-73358285D01*
X91888761Y-73310666D01*
X91936380Y-73215428D01*
X91936380Y-73024952D01*
X91888761Y-72929714D01*
X91841142Y-72882095D01*
X91745904Y-72834476D01*
X90936380Y-72834476D01*
X90936380Y-71882095D02*
X90936380Y-72358285D01*
X91412571Y-72405904D01*
X91364952Y-72358285D01*
X91317333Y-72263047D01*
X91317333Y-72024952D01*
X91364952Y-71929714D01*
X91412571Y-71882095D01*
X91507809Y-71834476D01*
X91745904Y-71834476D01*
X91841142Y-71882095D01*
X91888761Y-71929714D01*
X91936380Y-72024952D01*
X91936380Y-72263047D01*
X91888761Y-72358285D01*
X91841142Y-72405904D01*
%TO.C,R22*%
X55570380Y-74302857D02*
X55094190Y-74636190D01*
X55570380Y-74874285D02*
X54570380Y-74874285D01*
X54570380Y-74493333D01*
X54618000Y-74398095D01*
X54665619Y-74350476D01*
X54760857Y-74302857D01*
X54903714Y-74302857D01*
X54998952Y-74350476D01*
X55046571Y-74398095D01*
X55094190Y-74493333D01*
X55094190Y-74874285D01*
X54665619Y-73921904D02*
X54618000Y-73874285D01*
X54570380Y-73779047D01*
X54570380Y-73540952D01*
X54618000Y-73445714D01*
X54665619Y-73398095D01*
X54760857Y-73350476D01*
X54856095Y-73350476D01*
X54998952Y-73398095D01*
X55570380Y-73969523D01*
X55570380Y-73350476D01*
X54665619Y-72969523D02*
X54618000Y-72921904D01*
X54570380Y-72826666D01*
X54570380Y-72588571D01*
X54618000Y-72493333D01*
X54665619Y-72445714D01*
X54760857Y-72398095D01*
X54856095Y-72398095D01*
X54998952Y-72445714D01*
X55570380Y-73017142D01*
X55570380Y-72398095D01*
%TO.C,R13*%
X73017142Y-25852380D02*
X72683809Y-25376190D01*
X72445714Y-25852380D02*
X72445714Y-24852380D01*
X72826666Y-24852380D01*
X72921904Y-24900000D01*
X72969523Y-24947619D01*
X73017142Y-25042857D01*
X73017142Y-25185714D01*
X72969523Y-25280952D01*
X72921904Y-25328571D01*
X72826666Y-25376190D01*
X72445714Y-25376190D01*
X73969523Y-25852380D02*
X73398095Y-25852380D01*
X73683809Y-25852380D02*
X73683809Y-24852380D01*
X73588571Y-24995238D01*
X73493333Y-25090476D01*
X73398095Y-25138095D01*
X74302857Y-24852380D02*
X74921904Y-24852380D01*
X74588571Y-25233333D01*
X74731428Y-25233333D01*
X74826666Y-25280952D01*
X74874285Y-25328571D01*
X74921904Y-25423809D01*
X74921904Y-25661904D01*
X74874285Y-25757142D01*
X74826666Y-25804761D01*
X74731428Y-25852380D01*
X74445714Y-25852380D01*
X74350476Y-25804761D01*
X74302857Y-25757142D01*
%TO.C,U4*%
X25439619Y-52578095D02*
X24630095Y-52578095D01*
X24534857Y-52625714D01*
X24487238Y-52673333D01*
X24439619Y-52768571D01*
X24439619Y-52959047D01*
X24487238Y-53054285D01*
X24534857Y-53101904D01*
X24630095Y-53149523D01*
X25439619Y-53149523D01*
X25106285Y-54054285D02*
X24439619Y-54054285D01*
X25487238Y-53816190D02*
X24772952Y-53578095D01*
X24772952Y-54197142D01*
X42727619Y-42245595D02*
X43727619Y-42245595D01*
X43727619Y-42912261D02*
X43727619Y-43102738D01*
X43680000Y-43197976D01*
X43584761Y-43293214D01*
X43394285Y-43340833D01*
X43060952Y-43340833D01*
X42870476Y-43293214D01*
X42775238Y-43197976D01*
X42727619Y-43102738D01*
X42727619Y-42912261D01*
X42775238Y-42817023D01*
X42870476Y-42721785D01*
X43060952Y-42674166D01*
X43394285Y-42674166D01*
X43584761Y-42721785D01*
X43680000Y-42817023D01*
X43727619Y-42912261D01*
X43727619Y-43674166D02*
X43727619Y-44293214D01*
X43346666Y-43959880D01*
X43346666Y-44102738D01*
X43299047Y-44197976D01*
X43251428Y-44245595D01*
X43156190Y-44293214D01*
X42918095Y-44293214D01*
X42822857Y-44245595D01*
X42775238Y-44197976D01*
X42727619Y-44102738D01*
X42727619Y-43817023D01*
X42775238Y-43721785D01*
X42822857Y-43674166D01*
X43727619Y-44626547D02*
X43727619Y-45245595D01*
X43346666Y-44912261D01*
X43346666Y-45055119D01*
X43299047Y-45150357D01*
X43251428Y-45197976D01*
X43156190Y-45245595D01*
X42918095Y-45245595D01*
X42822857Y-45197976D01*
X42775238Y-45150357D01*
X42727619Y-45055119D01*
X42727619Y-44769404D01*
X42775238Y-44674166D01*
X42822857Y-44626547D01*
X52887619Y-62434404D02*
X53887619Y-62434404D01*
X53887619Y-63101071D02*
X53887619Y-63291547D01*
X53840000Y-63386785D01*
X53744761Y-63482023D01*
X53554285Y-63529642D01*
X53220952Y-63529642D01*
X53030476Y-63482023D01*
X52935238Y-63386785D01*
X52887619Y-63291547D01*
X52887619Y-63101071D01*
X52935238Y-63005833D01*
X53030476Y-62910595D01*
X53220952Y-62862976D01*
X53554285Y-62862976D01*
X53744761Y-62910595D01*
X53840000Y-63005833D01*
X53887619Y-63101071D01*
X52887619Y-64482023D02*
X52887619Y-63910595D01*
X52887619Y-64196309D02*
X53887619Y-64196309D01*
X53744761Y-64101071D01*
X53649523Y-64005833D01*
X53601904Y-63910595D01*
X35107619Y-61482023D02*
X36107619Y-61482023D01*
X36107619Y-62148690D02*
X36107619Y-62339166D01*
X36060000Y-62434404D01*
X35964761Y-62529642D01*
X35774285Y-62577261D01*
X35440952Y-62577261D01*
X35250476Y-62529642D01*
X35155238Y-62434404D01*
X35107619Y-62339166D01*
X35107619Y-62148690D01*
X35155238Y-62053452D01*
X35250476Y-61958214D01*
X35440952Y-61910595D01*
X35774285Y-61910595D01*
X35964761Y-61958214D01*
X36060000Y-62053452D01*
X36107619Y-62148690D01*
X35107619Y-63529642D02*
X35107619Y-62958214D01*
X35107619Y-63243928D02*
X36107619Y-63243928D01*
X35964761Y-63148690D01*
X35869523Y-63053452D01*
X35821904Y-62958214D01*
X36107619Y-64386785D02*
X36107619Y-64196309D01*
X36060000Y-64101071D01*
X36012380Y-64053452D01*
X35869523Y-63958214D01*
X35679047Y-63910595D01*
X35298095Y-63910595D01*
X35202857Y-63958214D01*
X35155238Y-64005833D01*
X35107619Y-64101071D01*
X35107619Y-64291547D01*
X35155238Y-64386785D01*
X35202857Y-64434404D01*
X35298095Y-64482023D01*
X35536190Y-64482023D01*
X35631428Y-64434404D01*
X35679047Y-64386785D01*
X35726666Y-64291547D01*
X35726666Y-64101071D01*
X35679047Y-64005833D01*
X35631428Y-63958214D01*
X35536190Y-63910595D01*
X23407619Y-62053452D02*
X23407619Y-62672500D01*
X23026666Y-62339166D01*
X23026666Y-62482023D01*
X22979047Y-62577261D01*
X22931428Y-62624880D01*
X22836190Y-62672500D01*
X22598095Y-62672500D01*
X22502857Y-62624880D01*
X22455238Y-62577261D01*
X22407619Y-62482023D01*
X22407619Y-62196309D01*
X22455238Y-62101071D01*
X22502857Y-62053452D01*
X23407619Y-62958214D02*
X22407619Y-63291547D01*
X23407619Y-63624880D01*
X23407619Y-63862976D02*
X23407619Y-64482023D01*
X23026666Y-64148690D01*
X23026666Y-64291547D01*
X22979047Y-64386785D01*
X22931428Y-64434404D01*
X22836190Y-64482023D01*
X22598095Y-64482023D01*
X22502857Y-64434404D01*
X22455238Y-64386785D01*
X22407619Y-64291547D01*
X22407619Y-64005833D01*
X22455238Y-63910595D01*
X22502857Y-63862976D01*
X35107619Y-42245595D02*
X36107619Y-42245595D01*
X36107619Y-42912261D02*
X36107619Y-43102738D01*
X36060000Y-43197976D01*
X35964761Y-43293214D01*
X35774285Y-43340833D01*
X35440952Y-43340833D01*
X35250476Y-43293214D01*
X35155238Y-43197976D01*
X35107619Y-43102738D01*
X35107619Y-42912261D01*
X35155238Y-42817023D01*
X35250476Y-42721785D01*
X35440952Y-42674166D01*
X35774285Y-42674166D01*
X35964761Y-42721785D01*
X36060000Y-42817023D01*
X36107619Y-42912261D01*
X36012380Y-43721785D02*
X36060000Y-43769404D01*
X36107619Y-43864642D01*
X36107619Y-44102738D01*
X36060000Y-44197976D01*
X36012380Y-44245595D01*
X35917142Y-44293214D01*
X35821904Y-44293214D01*
X35679047Y-44245595D01*
X35107619Y-43674166D01*
X35107619Y-44293214D01*
X36107619Y-44626547D02*
X36107619Y-45293214D01*
X35107619Y-44864642D01*
X23407619Y-42102738D02*
X22407619Y-42436071D01*
X23407619Y-42769404D01*
X22407619Y-43102738D02*
X23407619Y-43102738D01*
X22407619Y-43578928D02*
X23407619Y-43578928D01*
X22407619Y-44150357D01*
X23407619Y-44150357D01*
X50347619Y-42245595D02*
X51347619Y-42245595D01*
X51347619Y-42912261D02*
X51347619Y-43102738D01*
X51300000Y-43197976D01*
X51204761Y-43293214D01*
X51014285Y-43340833D01*
X50680952Y-43340833D01*
X50490476Y-43293214D01*
X50395238Y-43197976D01*
X50347619Y-43102738D01*
X50347619Y-42912261D01*
X50395238Y-42817023D01*
X50490476Y-42721785D01*
X50680952Y-42674166D01*
X51014285Y-42674166D01*
X51204761Y-42721785D01*
X51300000Y-42817023D01*
X51347619Y-42912261D01*
X51347619Y-43674166D02*
X51347619Y-44293214D01*
X50966666Y-43959880D01*
X50966666Y-44102738D01*
X50919047Y-44197976D01*
X50871428Y-44245595D01*
X50776190Y-44293214D01*
X50538095Y-44293214D01*
X50442857Y-44245595D01*
X50395238Y-44197976D01*
X50347619Y-44102738D01*
X50347619Y-43817023D01*
X50395238Y-43721785D01*
X50442857Y-43674166D01*
X51014285Y-45150357D02*
X50347619Y-45150357D01*
X51395238Y-44912261D02*
X50680952Y-44674166D01*
X50680952Y-45293214D01*
X40187619Y-42245595D02*
X41187619Y-42245595D01*
X41187619Y-42912261D02*
X41187619Y-43102738D01*
X41140000Y-43197976D01*
X41044761Y-43293214D01*
X40854285Y-43340833D01*
X40520952Y-43340833D01*
X40330476Y-43293214D01*
X40235238Y-43197976D01*
X40187619Y-43102738D01*
X40187619Y-42912261D01*
X40235238Y-42817023D01*
X40330476Y-42721785D01*
X40520952Y-42674166D01*
X40854285Y-42674166D01*
X41044761Y-42721785D01*
X41140000Y-42817023D01*
X41187619Y-42912261D01*
X41092380Y-43721785D02*
X41140000Y-43769404D01*
X41187619Y-43864642D01*
X41187619Y-44102738D01*
X41140000Y-44197976D01*
X41092380Y-44245595D01*
X40997142Y-44293214D01*
X40901904Y-44293214D01*
X40759047Y-44245595D01*
X40187619Y-43674166D01*
X40187619Y-44293214D01*
X41187619Y-45197976D02*
X41187619Y-44721785D01*
X40711428Y-44674166D01*
X40759047Y-44721785D01*
X40806666Y-44817023D01*
X40806666Y-45055119D01*
X40759047Y-45150357D01*
X40711428Y-45197976D01*
X40616190Y-45245595D01*
X40378095Y-45245595D01*
X40282857Y-45197976D01*
X40235238Y-45150357D01*
X40187619Y-45055119D01*
X40187619Y-44817023D01*
X40235238Y-44721785D01*
X40282857Y-44674166D01*
X58491428Y-42245595D02*
X58491428Y-42578928D01*
X57967619Y-42721785D02*
X57967619Y-42245595D01*
X58967619Y-42245595D01*
X58967619Y-42721785D01*
X57967619Y-43150357D02*
X58967619Y-43150357D01*
X57967619Y-43721785D01*
X58967619Y-43721785D01*
X37647619Y-61482023D02*
X38647619Y-61482023D01*
X38647619Y-62148690D02*
X38647619Y-62339166D01*
X38600000Y-62434404D01*
X38504761Y-62529642D01*
X38314285Y-62577261D01*
X37980952Y-62577261D01*
X37790476Y-62529642D01*
X37695238Y-62434404D01*
X37647619Y-62339166D01*
X37647619Y-62148690D01*
X37695238Y-62053452D01*
X37790476Y-61958214D01*
X37980952Y-61910595D01*
X38314285Y-61910595D01*
X38504761Y-61958214D01*
X38600000Y-62053452D01*
X38647619Y-62148690D01*
X37647619Y-63529642D02*
X37647619Y-62958214D01*
X37647619Y-63243928D02*
X38647619Y-63243928D01*
X38504761Y-63148690D01*
X38409523Y-63053452D01*
X38361904Y-62958214D01*
X38647619Y-63862976D02*
X38647619Y-64529642D01*
X37647619Y-64101071D01*
X37647619Y-42245595D02*
X38647619Y-42245595D01*
X38647619Y-42912261D02*
X38647619Y-43102738D01*
X38600000Y-43197976D01*
X38504761Y-43293214D01*
X38314285Y-43340833D01*
X37980952Y-43340833D01*
X37790476Y-43293214D01*
X37695238Y-43197976D01*
X37647619Y-43102738D01*
X37647619Y-42912261D01*
X37695238Y-42817023D01*
X37790476Y-42721785D01*
X37980952Y-42674166D01*
X38314285Y-42674166D01*
X38504761Y-42721785D01*
X38600000Y-42817023D01*
X38647619Y-42912261D01*
X38552380Y-43721785D02*
X38600000Y-43769404D01*
X38647619Y-43864642D01*
X38647619Y-44102738D01*
X38600000Y-44197976D01*
X38552380Y-44245595D01*
X38457142Y-44293214D01*
X38361904Y-44293214D01*
X38219047Y-44245595D01*
X37647619Y-43674166D01*
X37647619Y-44293214D01*
X38647619Y-45150357D02*
X38647619Y-44959880D01*
X38600000Y-44864642D01*
X38552380Y-44817023D01*
X38409523Y-44721785D01*
X38219047Y-44674166D01*
X37838095Y-44674166D01*
X37742857Y-44721785D01*
X37695238Y-44769404D01*
X37647619Y-44864642D01*
X37647619Y-45055119D01*
X37695238Y-45150357D01*
X37742857Y-45197976D01*
X37838095Y-45245595D01*
X38076190Y-45245595D01*
X38171428Y-45197976D01*
X38219047Y-45150357D01*
X38266666Y-45055119D01*
X38266666Y-44864642D01*
X38219047Y-44769404D01*
X38171428Y-44721785D01*
X38076190Y-44674166D01*
X47807619Y-61990023D02*
X48807619Y-61990023D01*
X48807619Y-62656690D02*
X48807619Y-62847166D01*
X48760000Y-62942404D01*
X48664761Y-63037642D01*
X48474285Y-63085261D01*
X48140952Y-63085261D01*
X47950476Y-63037642D01*
X47855238Y-62942404D01*
X47807619Y-62847166D01*
X47807619Y-62656690D01*
X47855238Y-62561452D01*
X47950476Y-62466214D01*
X48140952Y-62418595D01*
X48474285Y-62418595D01*
X48664761Y-62466214D01*
X48760000Y-62561452D01*
X48807619Y-62656690D01*
X48712380Y-63466214D02*
X48760000Y-63513833D01*
X48807619Y-63609071D01*
X48807619Y-63847166D01*
X48760000Y-63942404D01*
X48712380Y-63990023D01*
X48617142Y-64037642D01*
X48521904Y-64037642D01*
X48379047Y-63990023D01*
X47807619Y-63418595D01*
X47807619Y-64037642D01*
X47807619Y-64990023D02*
X47807619Y-64418595D01*
X47807619Y-64704309D02*
X48807619Y-64704309D01*
X48664761Y-64609071D01*
X48569523Y-64513833D01*
X48521904Y-64418595D01*
X25900000Y-42769404D02*
X25947619Y-42674166D01*
X25947619Y-42531309D01*
X25900000Y-42388452D01*
X25804761Y-42293214D01*
X25709523Y-42245595D01*
X25519047Y-42197976D01*
X25376190Y-42197976D01*
X25185714Y-42245595D01*
X25090476Y-42293214D01*
X24995238Y-42388452D01*
X24947619Y-42531309D01*
X24947619Y-42626547D01*
X24995238Y-42769404D01*
X25042857Y-42817023D01*
X25376190Y-42817023D01*
X25376190Y-42626547D01*
X24947619Y-43245595D02*
X25947619Y-43245595D01*
X24947619Y-43817023D01*
X25947619Y-43817023D01*
X24947619Y-44293214D02*
X25947619Y-44293214D01*
X25947619Y-44531309D01*
X25900000Y-44674166D01*
X25804761Y-44769404D01*
X25709523Y-44817023D01*
X25519047Y-44864642D01*
X25376190Y-44864642D01*
X25185714Y-44817023D01*
X25090476Y-44769404D01*
X24995238Y-44674166D01*
X24947619Y-44531309D01*
X24947619Y-44293214D01*
X55427619Y-42245595D02*
X56427619Y-42245595D01*
X56427619Y-42912261D02*
X56427619Y-43102738D01*
X56380000Y-43197976D01*
X56284761Y-43293214D01*
X56094285Y-43340833D01*
X55760952Y-43340833D01*
X55570476Y-43293214D01*
X55475238Y-43197976D01*
X55427619Y-43102738D01*
X55427619Y-42912261D01*
X55475238Y-42817023D01*
X55570476Y-42721785D01*
X55760952Y-42674166D01*
X56094285Y-42674166D01*
X56284761Y-42721785D01*
X56380000Y-42817023D01*
X56427619Y-42912261D01*
X56427619Y-43674166D02*
X56427619Y-44293214D01*
X56046666Y-43959880D01*
X56046666Y-44102738D01*
X55999047Y-44197976D01*
X55951428Y-44245595D01*
X55856190Y-44293214D01*
X55618095Y-44293214D01*
X55522857Y-44245595D01*
X55475238Y-44197976D01*
X55427619Y-44102738D01*
X55427619Y-43817023D01*
X55475238Y-43721785D01*
X55522857Y-43674166D01*
X56427619Y-45150357D02*
X56427619Y-44959880D01*
X56380000Y-44864642D01*
X56332380Y-44817023D01*
X56189523Y-44721785D01*
X55999047Y-44674166D01*
X55618095Y-44674166D01*
X55522857Y-44721785D01*
X55475238Y-44769404D01*
X55427619Y-44864642D01*
X55427619Y-45055119D01*
X55475238Y-45150357D01*
X55522857Y-45197976D01*
X55618095Y-45245595D01*
X55856190Y-45245595D01*
X55951428Y-45197976D01*
X55999047Y-45150357D01*
X56046666Y-45055119D01*
X56046666Y-44864642D01*
X55999047Y-44769404D01*
X55951428Y-44721785D01*
X55856190Y-44674166D01*
X56475238Y-46388452D02*
X55189523Y-45531309D01*
X56427619Y-46578928D02*
X55427619Y-46912261D01*
X56427619Y-47245595D01*
X55427619Y-47578928D02*
X56427619Y-47578928D01*
X56427619Y-47959880D01*
X56380000Y-48055119D01*
X56332380Y-48102738D01*
X56237142Y-48150357D01*
X56094285Y-48150357D01*
X55999047Y-48102738D01*
X55951428Y-48055119D01*
X55903809Y-47959880D01*
X55903809Y-47578928D01*
X52887619Y-42245595D02*
X53887619Y-42245595D01*
X53887619Y-42912261D02*
X53887619Y-43102738D01*
X53840000Y-43197976D01*
X53744761Y-43293214D01*
X53554285Y-43340833D01*
X53220952Y-43340833D01*
X53030476Y-43293214D01*
X52935238Y-43197976D01*
X52887619Y-43102738D01*
X52887619Y-42912261D01*
X52935238Y-42817023D01*
X53030476Y-42721785D01*
X53220952Y-42674166D01*
X53554285Y-42674166D01*
X53744761Y-42721785D01*
X53840000Y-42817023D01*
X53887619Y-42912261D01*
X53887619Y-43674166D02*
X53887619Y-44293214D01*
X53506666Y-43959880D01*
X53506666Y-44102738D01*
X53459047Y-44197976D01*
X53411428Y-44245595D01*
X53316190Y-44293214D01*
X53078095Y-44293214D01*
X52982857Y-44245595D01*
X52935238Y-44197976D01*
X52887619Y-44102738D01*
X52887619Y-43817023D01*
X52935238Y-43721785D01*
X52982857Y-43674166D01*
X52887619Y-44769404D02*
X52887619Y-44959880D01*
X52935238Y-45055119D01*
X52982857Y-45102738D01*
X53125714Y-45197976D01*
X53316190Y-45245595D01*
X53697142Y-45245595D01*
X53792380Y-45197976D01*
X53840000Y-45150357D01*
X53887619Y-45055119D01*
X53887619Y-44864642D01*
X53840000Y-44769404D01*
X53792380Y-44721785D01*
X53697142Y-44674166D01*
X53459047Y-44674166D01*
X53363809Y-44721785D01*
X53316190Y-44769404D01*
X53268571Y-44864642D01*
X53268571Y-45055119D01*
X53316190Y-45150357D01*
X53363809Y-45197976D01*
X53459047Y-45245595D01*
X53935238Y-46388452D02*
X52649523Y-45531309D01*
X53887619Y-46578928D02*
X52887619Y-46912261D01*
X53887619Y-47245595D01*
X52887619Y-47578928D02*
X53887619Y-47578928D01*
X52887619Y-48150357D01*
X53887619Y-48150357D01*
X40187619Y-62434404D02*
X41187619Y-62434404D01*
X41187619Y-63101071D02*
X41187619Y-63291547D01*
X41140000Y-63386785D01*
X41044761Y-63482023D01*
X40854285Y-63529642D01*
X40520952Y-63529642D01*
X40330476Y-63482023D01*
X40235238Y-63386785D01*
X40187619Y-63291547D01*
X40187619Y-63101071D01*
X40235238Y-63005833D01*
X40330476Y-62910595D01*
X40520952Y-62862976D01*
X40854285Y-62862976D01*
X41044761Y-62910595D01*
X41140000Y-63005833D01*
X41187619Y-63101071D01*
X41187619Y-64434404D02*
X41187619Y-63958214D01*
X40711428Y-63910595D01*
X40759047Y-63958214D01*
X40806666Y-64053452D01*
X40806666Y-64291547D01*
X40759047Y-64386785D01*
X40711428Y-64434404D01*
X40616190Y-64482023D01*
X40378095Y-64482023D01*
X40282857Y-64434404D01*
X40235238Y-64386785D01*
X40187619Y-64291547D01*
X40187619Y-64053452D01*
X40235238Y-63958214D01*
X40282857Y-63910595D01*
X30027619Y-42245595D02*
X31027619Y-42245595D01*
X31027619Y-42912261D02*
X31027619Y-43102738D01*
X30980000Y-43197976D01*
X30884761Y-43293214D01*
X30694285Y-43340833D01*
X30360952Y-43340833D01*
X30170476Y-43293214D01*
X30075238Y-43197976D01*
X30027619Y-43102738D01*
X30027619Y-42912261D01*
X30075238Y-42817023D01*
X30170476Y-42721785D01*
X30360952Y-42674166D01*
X30694285Y-42674166D01*
X30884761Y-42721785D01*
X30980000Y-42817023D01*
X31027619Y-42912261D01*
X30027619Y-44293214D02*
X30027619Y-43721785D01*
X30027619Y-44007500D02*
X31027619Y-44007500D01*
X30884761Y-43912261D01*
X30789523Y-43817023D01*
X30741904Y-43721785D01*
X30932380Y-44674166D02*
X30980000Y-44721785D01*
X31027619Y-44817023D01*
X31027619Y-45055119D01*
X30980000Y-45150357D01*
X30932380Y-45197976D01*
X30837142Y-45245595D01*
X30741904Y-45245595D01*
X30599047Y-45197976D01*
X30027619Y-44626547D01*
X30027619Y-45245595D01*
X42727619Y-61482023D02*
X43727619Y-61482023D01*
X43727619Y-62148690D02*
X43727619Y-62339166D01*
X43680000Y-62434404D01*
X43584761Y-62529642D01*
X43394285Y-62577261D01*
X43060952Y-62577261D01*
X42870476Y-62529642D01*
X42775238Y-62434404D01*
X42727619Y-62339166D01*
X42727619Y-62148690D01*
X42775238Y-62053452D01*
X42870476Y-61958214D01*
X43060952Y-61910595D01*
X43394285Y-61910595D01*
X43584761Y-61958214D01*
X43680000Y-62053452D01*
X43727619Y-62148690D01*
X42727619Y-63529642D02*
X42727619Y-62958214D01*
X42727619Y-63243928D02*
X43727619Y-63243928D01*
X43584761Y-63148690D01*
X43489523Y-63053452D01*
X43441904Y-62958214D01*
X43299047Y-64101071D02*
X43346666Y-64005833D01*
X43394285Y-63958214D01*
X43489523Y-63910595D01*
X43537142Y-63910595D01*
X43632380Y-63958214D01*
X43680000Y-64005833D01*
X43727619Y-64101071D01*
X43727619Y-64291547D01*
X43680000Y-64386785D01*
X43632380Y-64434404D01*
X43537142Y-64482023D01*
X43489523Y-64482023D01*
X43394285Y-64434404D01*
X43346666Y-64386785D01*
X43299047Y-64291547D01*
X43299047Y-64101071D01*
X43251428Y-64005833D01*
X43203809Y-63958214D01*
X43108571Y-63910595D01*
X42918095Y-63910595D01*
X42822857Y-63958214D01*
X42775238Y-64005833D01*
X42727619Y-64101071D01*
X42727619Y-64291547D01*
X42775238Y-64386785D01*
X42822857Y-64434404D01*
X42918095Y-64482023D01*
X43108571Y-64482023D01*
X43203809Y-64434404D01*
X43251428Y-64386785D01*
X43299047Y-64291547D01*
X30027619Y-62434404D02*
X31027619Y-62434404D01*
X31027619Y-63101071D02*
X31027619Y-63291547D01*
X30980000Y-63386785D01*
X30884761Y-63482023D01*
X30694285Y-63529642D01*
X30360952Y-63529642D01*
X30170476Y-63482023D01*
X30075238Y-63386785D01*
X30027619Y-63291547D01*
X30027619Y-63101071D01*
X30075238Y-63005833D01*
X30170476Y-62910595D01*
X30360952Y-62862976D01*
X30694285Y-62862976D01*
X30884761Y-62910595D01*
X30980000Y-63005833D01*
X31027619Y-63101071D01*
X30932380Y-63910595D02*
X30980000Y-63958214D01*
X31027619Y-64053452D01*
X31027619Y-64291547D01*
X30980000Y-64386785D01*
X30932380Y-64434404D01*
X30837142Y-64482023D01*
X30741904Y-64482023D01*
X30599047Y-64434404D01*
X30027619Y-63862976D01*
X30027619Y-64482023D01*
X57967619Y-61990023D02*
X58967619Y-61990023D01*
X58967619Y-62656690D02*
X58967619Y-62847166D01*
X58920000Y-62942404D01*
X58824761Y-63037642D01*
X58634285Y-63085261D01*
X58300952Y-63085261D01*
X58110476Y-63037642D01*
X58015238Y-62942404D01*
X57967619Y-62847166D01*
X57967619Y-62656690D01*
X58015238Y-62561452D01*
X58110476Y-62466214D01*
X58300952Y-62418595D01*
X58634285Y-62418595D01*
X58824761Y-62466214D01*
X58920000Y-62561452D01*
X58967619Y-62656690D01*
X58872380Y-63466214D02*
X58920000Y-63513833D01*
X58967619Y-63609071D01*
X58967619Y-63847166D01*
X58920000Y-63942404D01*
X58872380Y-63990023D01*
X58777142Y-64037642D01*
X58681904Y-64037642D01*
X58539047Y-63990023D01*
X57967619Y-63418595D01*
X57967619Y-64037642D01*
X58967619Y-64370976D02*
X58967619Y-64990023D01*
X58586666Y-64656690D01*
X58586666Y-64799547D01*
X58539047Y-64894785D01*
X58491428Y-64942404D01*
X58396190Y-64990023D01*
X58158095Y-64990023D01*
X58062857Y-64942404D01*
X58015238Y-64894785D01*
X57967619Y-64799547D01*
X57967619Y-64513833D01*
X58015238Y-64418595D01*
X58062857Y-64370976D01*
X50347619Y-62434404D02*
X51347619Y-62434404D01*
X51347619Y-63101071D02*
X51347619Y-63291547D01*
X51300000Y-63386785D01*
X51204761Y-63482023D01*
X51014285Y-63529642D01*
X50680952Y-63529642D01*
X50490476Y-63482023D01*
X50395238Y-63386785D01*
X50347619Y-63291547D01*
X50347619Y-63101071D01*
X50395238Y-63005833D01*
X50490476Y-62910595D01*
X50680952Y-62862976D01*
X51014285Y-62862976D01*
X51204761Y-62910595D01*
X51300000Y-63005833D01*
X51347619Y-63101071D01*
X51347619Y-63862976D02*
X51347619Y-64482023D01*
X50966666Y-64148690D01*
X50966666Y-64291547D01*
X50919047Y-64386785D01*
X50871428Y-64434404D01*
X50776190Y-64482023D01*
X50538095Y-64482023D01*
X50442857Y-64434404D01*
X50395238Y-64386785D01*
X50347619Y-64291547D01*
X50347619Y-64005833D01*
X50395238Y-63910595D01*
X50442857Y-63862976D01*
X45267619Y-42245595D02*
X46267619Y-42245595D01*
X46267619Y-42912261D02*
X46267619Y-43102738D01*
X46220000Y-43197976D01*
X46124761Y-43293214D01*
X45934285Y-43340833D01*
X45600952Y-43340833D01*
X45410476Y-43293214D01*
X45315238Y-43197976D01*
X45267619Y-43102738D01*
X45267619Y-42912261D01*
X45315238Y-42817023D01*
X45410476Y-42721785D01*
X45600952Y-42674166D01*
X45934285Y-42674166D01*
X46124761Y-42721785D01*
X46220000Y-42817023D01*
X46267619Y-42912261D01*
X46267619Y-43674166D02*
X46267619Y-44293214D01*
X45886666Y-43959880D01*
X45886666Y-44102738D01*
X45839047Y-44197976D01*
X45791428Y-44245595D01*
X45696190Y-44293214D01*
X45458095Y-44293214D01*
X45362857Y-44245595D01*
X45315238Y-44197976D01*
X45267619Y-44102738D01*
X45267619Y-43817023D01*
X45315238Y-43721785D01*
X45362857Y-43674166D01*
X46172380Y-44674166D02*
X46220000Y-44721785D01*
X46267619Y-44817023D01*
X46267619Y-45055119D01*
X46220000Y-45150357D01*
X46172380Y-45197976D01*
X46077142Y-45245595D01*
X45981904Y-45245595D01*
X45839047Y-45197976D01*
X45267619Y-44626547D01*
X45267619Y-45245595D01*
X32567619Y-42245595D02*
X33567619Y-42245595D01*
X33567619Y-42912261D02*
X33567619Y-43102738D01*
X33520000Y-43197976D01*
X33424761Y-43293214D01*
X33234285Y-43340833D01*
X32900952Y-43340833D01*
X32710476Y-43293214D01*
X32615238Y-43197976D01*
X32567619Y-43102738D01*
X32567619Y-42912261D01*
X32615238Y-42817023D01*
X32710476Y-42721785D01*
X32900952Y-42674166D01*
X33234285Y-42674166D01*
X33424761Y-42721785D01*
X33520000Y-42817023D01*
X33567619Y-42912261D01*
X32567619Y-44293214D02*
X32567619Y-43721785D01*
X32567619Y-44007500D02*
X33567619Y-44007500D01*
X33424761Y-43912261D01*
X33329523Y-43817023D01*
X33281904Y-43721785D01*
X33234285Y-45150357D02*
X32567619Y-45150357D01*
X33615238Y-44912261D02*
X32900952Y-44674166D01*
X32900952Y-45293214D01*
X27487619Y-42245595D02*
X28487619Y-42245595D01*
X28487619Y-42912261D02*
X28487619Y-43102738D01*
X28440000Y-43197976D01*
X28344761Y-43293214D01*
X28154285Y-43340833D01*
X27820952Y-43340833D01*
X27630476Y-43293214D01*
X27535238Y-43197976D01*
X27487619Y-43102738D01*
X27487619Y-42912261D01*
X27535238Y-42817023D01*
X27630476Y-42721785D01*
X27820952Y-42674166D01*
X28154285Y-42674166D01*
X28344761Y-42721785D01*
X28440000Y-42817023D01*
X28487619Y-42912261D01*
X27487619Y-44293214D02*
X27487619Y-43721785D01*
X27487619Y-44007500D02*
X28487619Y-44007500D01*
X28344761Y-43912261D01*
X28249523Y-43817023D01*
X28201904Y-43721785D01*
X28487619Y-44626547D02*
X28487619Y-45245595D01*
X28106666Y-44912261D01*
X28106666Y-45055119D01*
X28059047Y-45150357D01*
X28011428Y-45197976D01*
X27916190Y-45245595D01*
X27678095Y-45245595D01*
X27582857Y-45197976D01*
X27535238Y-45150357D01*
X27487619Y-45055119D01*
X27487619Y-44769404D01*
X27535238Y-44674166D01*
X27582857Y-44626547D01*
X25900000Y-62386785D02*
X25947619Y-62291547D01*
X25947619Y-62148690D01*
X25900000Y-62005833D01*
X25804761Y-61910595D01*
X25709523Y-61862976D01*
X25519047Y-61815357D01*
X25376190Y-61815357D01*
X25185714Y-61862976D01*
X25090476Y-61910595D01*
X24995238Y-62005833D01*
X24947619Y-62148690D01*
X24947619Y-62243928D01*
X24995238Y-62386785D01*
X25042857Y-62434404D01*
X25376190Y-62434404D01*
X25376190Y-62243928D01*
X24947619Y-62862976D02*
X25947619Y-62862976D01*
X24947619Y-63434404D01*
X25947619Y-63434404D01*
X24947619Y-63910595D02*
X25947619Y-63910595D01*
X25947619Y-64148690D01*
X25900000Y-64291547D01*
X25804761Y-64386785D01*
X25709523Y-64434404D01*
X25519047Y-64482023D01*
X25376190Y-64482023D01*
X25185714Y-64434404D01*
X25090476Y-64386785D01*
X24995238Y-64291547D01*
X24947619Y-64148690D01*
X24947619Y-63910595D01*
X32567619Y-62434404D02*
X33567619Y-62434404D01*
X33567619Y-63101071D02*
X33567619Y-63291547D01*
X33520000Y-63386785D01*
X33424761Y-63482023D01*
X33234285Y-63529642D01*
X32900952Y-63529642D01*
X32710476Y-63482023D01*
X32615238Y-63386785D01*
X32567619Y-63291547D01*
X32567619Y-63101071D01*
X32615238Y-63005833D01*
X32710476Y-62910595D01*
X32900952Y-62862976D01*
X33234285Y-62862976D01*
X33424761Y-62910595D01*
X33520000Y-63005833D01*
X33567619Y-63101071D01*
X33234285Y-64386785D02*
X32567619Y-64386785D01*
X33615238Y-64148690D02*
X32900952Y-63910595D01*
X32900952Y-64529642D01*
X45267619Y-61990023D02*
X46267619Y-61990023D01*
X46267619Y-62656690D02*
X46267619Y-62847166D01*
X46220000Y-62942404D01*
X46124761Y-63037642D01*
X45934285Y-63085261D01*
X45600952Y-63085261D01*
X45410476Y-63037642D01*
X45315238Y-62942404D01*
X45267619Y-62847166D01*
X45267619Y-62656690D01*
X45315238Y-62561452D01*
X45410476Y-62466214D01*
X45600952Y-62418595D01*
X45934285Y-62418595D01*
X46124761Y-62466214D01*
X46220000Y-62561452D01*
X46267619Y-62656690D01*
X45267619Y-64037642D02*
X45267619Y-63466214D01*
X45267619Y-63751928D02*
X46267619Y-63751928D01*
X46124761Y-63656690D01*
X46029523Y-63561452D01*
X45981904Y-63466214D01*
X45267619Y-64513833D02*
X45267619Y-64704309D01*
X45315238Y-64799547D01*
X45362857Y-64847166D01*
X45505714Y-64942404D01*
X45696190Y-64990023D01*
X46077142Y-64990023D01*
X46172380Y-64942404D01*
X46220000Y-64894785D01*
X46267619Y-64799547D01*
X46267619Y-64609071D01*
X46220000Y-64513833D01*
X46172380Y-64466214D01*
X46077142Y-64418595D01*
X45839047Y-64418595D01*
X45743809Y-64466214D01*
X45696190Y-64513833D01*
X45648571Y-64609071D01*
X45648571Y-64799547D01*
X45696190Y-64894785D01*
X45743809Y-64942404D01*
X45839047Y-64990023D01*
X27487619Y-61482023D02*
X28487619Y-61482023D01*
X28487619Y-62148690D02*
X28487619Y-62339166D01*
X28440000Y-62434404D01*
X28344761Y-62529642D01*
X28154285Y-62577261D01*
X27820952Y-62577261D01*
X27630476Y-62529642D01*
X27535238Y-62434404D01*
X27487619Y-62339166D01*
X27487619Y-62148690D01*
X27535238Y-62053452D01*
X27630476Y-61958214D01*
X27820952Y-61910595D01*
X28154285Y-61910595D01*
X28344761Y-61958214D01*
X28440000Y-62053452D01*
X28487619Y-62148690D01*
X27487619Y-63529642D02*
X27487619Y-62958214D01*
X27487619Y-63243928D02*
X28487619Y-63243928D01*
X28344761Y-63148690D01*
X28249523Y-63053452D01*
X28201904Y-62958214D01*
X28487619Y-64434404D02*
X28487619Y-63958214D01*
X28011428Y-63910595D01*
X28059047Y-63958214D01*
X28106666Y-64053452D01*
X28106666Y-64291547D01*
X28059047Y-64386785D01*
X28011428Y-64434404D01*
X27916190Y-64482023D01*
X27678095Y-64482023D01*
X27582857Y-64434404D01*
X27535238Y-64386785D01*
X27487619Y-64291547D01*
X27487619Y-64053452D01*
X27535238Y-63958214D01*
X27582857Y-63910595D01*
X47807619Y-42245595D02*
X48807619Y-42245595D01*
X48807619Y-42912261D02*
X48807619Y-43102738D01*
X48760000Y-43197976D01*
X48664761Y-43293214D01*
X48474285Y-43340833D01*
X48140952Y-43340833D01*
X47950476Y-43293214D01*
X47855238Y-43197976D01*
X47807619Y-43102738D01*
X47807619Y-42912261D01*
X47855238Y-42817023D01*
X47950476Y-42721785D01*
X48140952Y-42674166D01*
X48474285Y-42674166D01*
X48664761Y-42721785D01*
X48760000Y-42817023D01*
X48807619Y-42912261D01*
X48807619Y-43674166D02*
X48807619Y-44293214D01*
X48426666Y-43959880D01*
X48426666Y-44102738D01*
X48379047Y-44197976D01*
X48331428Y-44245595D01*
X48236190Y-44293214D01*
X47998095Y-44293214D01*
X47902857Y-44245595D01*
X47855238Y-44197976D01*
X47807619Y-44102738D01*
X47807619Y-43817023D01*
X47855238Y-43721785D01*
X47902857Y-43674166D01*
X48807619Y-45197976D02*
X48807619Y-44721785D01*
X48331428Y-44674166D01*
X48379047Y-44721785D01*
X48426666Y-44817023D01*
X48426666Y-45055119D01*
X48379047Y-45150357D01*
X48331428Y-45197976D01*
X48236190Y-45245595D01*
X47998095Y-45245595D01*
X47902857Y-45197976D01*
X47855238Y-45150357D01*
X47807619Y-45055119D01*
X47807619Y-44817023D01*
X47855238Y-44721785D01*
X47902857Y-44674166D01*
X55427619Y-61990023D02*
X56427619Y-61990023D01*
X56427619Y-62656690D02*
X56427619Y-62847166D01*
X56380000Y-62942404D01*
X56284761Y-63037642D01*
X56094285Y-63085261D01*
X55760952Y-63085261D01*
X55570476Y-63037642D01*
X55475238Y-62942404D01*
X55427619Y-62847166D01*
X55427619Y-62656690D01*
X55475238Y-62561452D01*
X55570476Y-62466214D01*
X55760952Y-62418595D01*
X56094285Y-62418595D01*
X56284761Y-62466214D01*
X56380000Y-62561452D01*
X56427619Y-62656690D01*
X56332380Y-63466214D02*
X56380000Y-63513833D01*
X56427619Y-63609071D01*
X56427619Y-63847166D01*
X56380000Y-63942404D01*
X56332380Y-63990023D01*
X56237142Y-64037642D01*
X56141904Y-64037642D01*
X55999047Y-63990023D01*
X55427619Y-63418595D01*
X55427619Y-64037642D01*
X56332380Y-64418595D02*
X56380000Y-64466214D01*
X56427619Y-64561452D01*
X56427619Y-64799547D01*
X56380000Y-64894785D01*
X56332380Y-64942404D01*
X56237142Y-64990023D01*
X56141904Y-64990023D01*
X55999047Y-64942404D01*
X55427619Y-64370976D01*
X55427619Y-64990023D01*
%TO.C,J17*%
X86058476Y-49446380D02*
X86058476Y-50160666D01*
X86010857Y-50303523D01*
X85915619Y-50398761D01*
X85772761Y-50446380D01*
X85677523Y-50446380D01*
X87058476Y-50446380D02*
X86487047Y-50446380D01*
X86772761Y-50446380D02*
X86772761Y-49446380D01*
X86677523Y-49589238D01*
X86582285Y-49684476D01*
X86487047Y-49732095D01*
X87391809Y-49446380D02*
X88058476Y-49446380D01*
X87629904Y-50446380D01*
%TO.C,U2*%
X80239380Y-55371904D02*
X81048904Y-55371904D01*
X81144142Y-55324285D01*
X81191761Y-55276666D01*
X81239380Y-55181428D01*
X81239380Y-54990952D01*
X81191761Y-54895714D01*
X81144142Y-54848095D01*
X81048904Y-54800476D01*
X80239380Y-54800476D01*
X80334619Y-54371904D02*
X80287000Y-54324285D01*
X80239380Y-54229047D01*
X80239380Y-53990952D01*
X80287000Y-53895714D01*
X80334619Y-53848095D01*
X80429857Y-53800476D01*
X80525095Y-53800476D01*
X80667952Y-53848095D01*
X81239380Y-54419523D01*
X81239380Y-53800476D01*
%TO.C,J9*%
X91146380Y-25479333D02*
X91860666Y-25479333D01*
X92003523Y-25526952D01*
X92098761Y-25622190D01*
X92146380Y-25765047D01*
X92146380Y-25860285D01*
X92146380Y-24955523D02*
X92146380Y-24765047D01*
X92098761Y-24669809D01*
X92051142Y-24622190D01*
X91908285Y-24526952D01*
X91717809Y-24479333D01*
X91336857Y-24479333D01*
X91241619Y-24526952D01*
X91194000Y-24574571D01*
X91146380Y-24669809D01*
X91146380Y-24860285D01*
X91194000Y-24955523D01*
X91241619Y-25003142D01*
X91336857Y-25050761D01*
X91574952Y-25050761D01*
X91670190Y-25003142D01*
X91717809Y-24955523D01*
X91765428Y-24860285D01*
X91765428Y-24669809D01*
X91717809Y-24574571D01*
X91670190Y-24526952D01*
X91574952Y-24479333D01*
%TO.C,R26*%
X66111380Y-74302857D02*
X65635190Y-74636190D01*
X66111380Y-74874285D02*
X65111380Y-74874285D01*
X65111380Y-74493333D01*
X65159000Y-74398095D01*
X65206619Y-74350476D01*
X65301857Y-74302857D01*
X65444714Y-74302857D01*
X65539952Y-74350476D01*
X65587571Y-74398095D01*
X65635190Y-74493333D01*
X65635190Y-74874285D01*
X65206619Y-73921904D02*
X65159000Y-73874285D01*
X65111380Y-73779047D01*
X65111380Y-73540952D01*
X65159000Y-73445714D01*
X65206619Y-73398095D01*
X65301857Y-73350476D01*
X65397095Y-73350476D01*
X65539952Y-73398095D01*
X66111380Y-73969523D01*
X66111380Y-73350476D01*
X65111380Y-72493333D02*
X65111380Y-72683809D01*
X65159000Y-72779047D01*
X65206619Y-72826666D01*
X65349476Y-72921904D01*
X65539952Y-72969523D01*
X65920904Y-72969523D01*
X66016142Y-72921904D01*
X66063761Y-72874285D01*
X66111380Y-72779047D01*
X66111380Y-72588571D01*
X66063761Y-72493333D01*
X66016142Y-72445714D01*
X65920904Y-72398095D01*
X65682809Y-72398095D01*
X65587571Y-72445714D01*
X65539952Y-72493333D01*
X65492333Y-72588571D01*
X65492333Y-72779047D01*
X65539952Y-72874285D01*
X65587571Y-72921904D01*
X65682809Y-72969523D01*
%TO.C,Q4*%
X74834761Y-67607619D02*
X74739523Y-67560000D01*
X74644285Y-67464761D01*
X74501428Y-67321904D01*
X74406190Y-67274285D01*
X74310952Y-67274285D01*
X74358571Y-67512380D02*
X74263333Y-67464761D01*
X74168095Y-67369523D01*
X74120476Y-67179047D01*
X74120476Y-66845714D01*
X74168095Y-66655238D01*
X74263333Y-66560000D01*
X74358571Y-66512380D01*
X74549047Y-66512380D01*
X74644285Y-66560000D01*
X74739523Y-66655238D01*
X74787142Y-66845714D01*
X74787142Y-67179047D01*
X74739523Y-67369523D01*
X74644285Y-67464761D01*
X74549047Y-67512380D01*
X74358571Y-67512380D01*
X75644285Y-66845714D02*
X75644285Y-67512380D01*
X75406190Y-66464761D02*
X75168095Y-67179047D01*
X75787142Y-67179047D01*
%TO.C,Q1*%
X39528761Y-78779619D02*
X39433523Y-78732000D01*
X39338285Y-78636761D01*
X39195428Y-78493904D01*
X39100190Y-78446285D01*
X39004952Y-78446285D01*
X39052571Y-78684380D02*
X38957333Y-78636761D01*
X38862095Y-78541523D01*
X38814476Y-78351047D01*
X38814476Y-78017714D01*
X38862095Y-77827238D01*
X38957333Y-77732000D01*
X39052571Y-77684380D01*
X39243047Y-77684380D01*
X39338285Y-77732000D01*
X39433523Y-77827238D01*
X39481142Y-78017714D01*
X39481142Y-78351047D01*
X39433523Y-78541523D01*
X39338285Y-78636761D01*
X39243047Y-78684380D01*
X39052571Y-78684380D01*
X40433523Y-78684380D02*
X39862095Y-78684380D01*
X40147809Y-78684380D02*
X40147809Y-77684380D01*
X40052571Y-77827238D01*
X39957333Y-77922476D01*
X39862095Y-77970095D01*
%TO.C,R20*%
X44140380Y-74302857D02*
X43664190Y-74636190D01*
X44140380Y-74874285D02*
X43140380Y-74874285D01*
X43140380Y-74493333D01*
X43188000Y-74398095D01*
X43235619Y-74350476D01*
X43330857Y-74302857D01*
X43473714Y-74302857D01*
X43568952Y-74350476D01*
X43616571Y-74398095D01*
X43664190Y-74493333D01*
X43664190Y-74874285D01*
X43235619Y-73921904D02*
X43188000Y-73874285D01*
X43140380Y-73779047D01*
X43140380Y-73540952D01*
X43188000Y-73445714D01*
X43235619Y-73398095D01*
X43330857Y-73350476D01*
X43426095Y-73350476D01*
X43568952Y-73398095D01*
X44140380Y-73969523D01*
X44140380Y-73350476D01*
X43140380Y-72731428D02*
X43140380Y-72636190D01*
X43188000Y-72540952D01*
X43235619Y-72493333D01*
X43330857Y-72445714D01*
X43521333Y-72398095D01*
X43759428Y-72398095D01*
X43949904Y-72445714D01*
X44045142Y-72493333D01*
X44092761Y-72540952D01*
X44140380Y-72636190D01*
X44140380Y-72731428D01*
X44092761Y-72826666D01*
X44045142Y-72874285D01*
X43949904Y-72921904D01*
X43759428Y-72969523D01*
X43521333Y-72969523D01*
X43330857Y-72921904D01*
X43235619Y-72874285D01*
X43188000Y-72826666D01*
X43140380Y-72731428D01*
%TO.C,R19*%
X28527880Y-74302857D02*
X28051690Y-74636190D01*
X28527880Y-74874285D02*
X27527880Y-74874285D01*
X27527880Y-74493333D01*
X27575500Y-74398095D01*
X27623119Y-74350476D01*
X27718357Y-74302857D01*
X27861214Y-74302857D01*
X27956452Y-74350476D01*
X28004071Y-74398095D01*
X28051690Y-74493333D01*
X28051690Y-74874285D01*
X28527880Y-73350476D02*
X28527880Y-73921904D01*
X28527880Y-73636190D02*
X27527880Y-73636190D01*
X27670738Y-73731428D01*
X27765976Y-73826666D01*
X27813595Y-73921904D01*
X28527880Y-72874285D02*
X28527880Y-72683809D01*
X28480261Y-72588571D01*
X28432642Y-72540952D01*
X28289785Y-72445714D01*
X28099309Y-72398095D01*
X27718357Y-72398095D01*
X27623119Y-72445714D01*
X27575500Y-72493333D01*
X27527880Y-72588571D01*
X27527880Y-72779047D01*
X27575500Y-72874285D01*
X27623119Y-72921904D01*
X27718357Y-72969523D01*
X27956452Y-72969523D01*
X28051690Y-72921904D01*
X28099309Y-72874285D01*
X28146928Y-72779047D01*
X28146928Y-72588571D01*
X28099309Y-72493333D01*
X28051690Y-72445714D01*
X27956452Y-72398095D01*
%TO.C,R2*%
X44902380Y-29376666D02*
X44426190Y-29710000D01*
X44902380Y-29948095D02*
X43902380Y-29948095D01*
X43902380Y-29567142D01*
X43950000Y-29471904D01*
X43997619Y-29424285D01*
X44092857Y-29376666D01*
X44235714Y-29376666D01*
X44330952Y-29424285D01*
X44378571Y-29471904D01*
X44426190Y-29567142D01*
X44426190Y-29948095D01*
X43997619Y-28995714D02*
X43950000Y-28948095D01*
X43902380Y-28852857D01*
X43902380Y-28614761D01*
X43950000Y-28519523D01*
X43997619Y-28471904D01*
X44092857Y-28424285D01*
X44188095Y-28424285D01*
X44330952Y-28471904D01*
X44902380Y-29043333D01*
X44902380Y-28424285D01*
%TO.C,R14*%
X66413142Y-47696380D02*
X66079809Y-47220190D01*
X65841714Y-47696380D02*
X65841714Y-46696380D01*
X66222666Y-46696380D01*
X66317904Y-46744000D01*
X66365523Y-46791619D01*
X66413142Y-46886857D01*
X66413142Y-47029714D01*
X66365523Y-47124952D01*
X66317904Y-47172571D01*
X66222666Y-47220190D01*
X65841714Y-47220190D01*
X67365523Y-47696380D02*
X66794095Y-47696380D01*
X67079809Y-47696380D02*
X67079809Y-46696380D01*
X66984571Y-46839238D01*
X66889333Y-46934476D01*
X66794095Y-46982095D01*
X68222666Y-47029714D02*
X68222666Y-47696380D01*
X67984571Y-46648761D02*
X67746476Y-47363047D01*
X68365523Y-47363047D01*
%TO.C,J8*%
X27646380Y-32337333D02*
X28360666Y-32337333D01*
X28503523Y-32384952D01*
X28598761Y-32480190D01*
X28646380Y-32623047D01*
X28646380Y-32718285D01*
X28074952Y-31718285D02*
X28027333Y-31813523D01*
X27979714Y-31861142D01*
X27884476Y-31908761D01*
X27836857Y-31908761D01*
X27741619Y-31861142D01*
X27694000Y-31813523D01*
X27646380Y-31718285D01*
X27646380Y-31527809D01*
X27694000Y-31432571D01*
X27741619Y-31384952D01*
X27836857Y-31337333D01*
X27884476Y-31337333D01*
X27979714Y-31384952D01*
X28027333Y-31432571D01*
X28074952Y-31527809D01*
X28074952Y-31718285D01*
X28122571Y-31813523D01*
X28170190Y-31861142D01*
X28265428Y-31908761D01*
X28455904Y-31908761D01*
X28551142Y-31861142D01*
X28598761Y-31813523D01*
X28646380Y-31718285D01*
X28646380Y-31527809D01*
X28598761Y-31432571D01*
X28551142Y-31384952D01*
X28455904Y-31337333D01*
X28265428Y-31337333D01*
X28170190Y-31384952D01*
X28122571Y-31432571D01*
X28074952Y-31527809D01*
%TO.C,Q5*%
X82962761Y-26201619D02*
X82867523Y-26154000D01*
X82772285Y-26058761D01*
X82629428Y-25915904D01*
X82534190Y-25868285D01*
X82438952Y-25868285D01*
X82486571Y-26106380D02*
X82391333Y-26058761D01*
X82296095Y-25963523D01*
X82248476Y-25773047D01*
X82248476Y-25439714D01*
X82296095Y-25249238D01*
X82391333Y-25154000D01*
X82486571Y-25106380D01*
X82677047Y-25106380D01*
X82772285Y-25154000D01*
X82867523Y-25249238D01*
X82915142Y-25439714D01*
X82915142Y-25773047D01*
X82867523Y-25963523D01*
X82772285Y-26058761D01*
X82677047Y-26106380D01*
X82486571Y-26106380D01*
X83819904Y-25106380D02*
X83343714Y-25106380D01*
X83296095Y-25582571D01*
X83343714Y-25534952D01*
X83438952Y-25487333D01*
X83677047Y-25487333D01*
X83772285Y-25534952D01*
X83819904Y-25582571D01*
X83867523Y-25677809D01*
X83867523Y-25915904D01*
X83819904Y-26011142D01*
X83772285Y-26058761D01*
X83677047Y-26106380D01*
X83438952Y-26106380D01*
X83343714Y-26058761D01*
X83296095Y-26011142D01*
%TO.C,R21*%
X46680380Y-74302857D02*
X46204190Y-74636190D01*
X46680380Y-74874285D02*
X45680380Y-74874285D01*
X45680380Y-74493333D01*
X45728000Y-74398095D01*
X45775619Y-74350476D01*
X45870857Y-74302857D01*
X46013714Y-74302857D01*
X46108952Y-74350476D01*
X46156571Y-74398095D01*
X46204190Y-74493333D01*
X46204190Y-74874285D01*
X45775619Y-73921904D02*
X45728000Y-73874285D01*
X45680380Y-73779047D01*
X45680380Y-73540952D01*
X45728000Y-73445714D01*
X45775619Y-73398095D01*
X45870857Y-73350476D01*
X45966095Y-73350476D01*
X46108952Y-73398095D01*
X46680380Y-73969523D01*
X46680380Y-73350476D01*
X46680380Y-72398095D02*
X46680380Y-72969523D01*
X46680380Y-72683809D02*
X45680380Y-72683809D01*
X45823238Y-72779047D01*
X45918476Y-72874285D01*
X45966095Y-72969523D01*
%TO.C,Q2*%
X24170261Y-78779619D02*
X24075023Y-78732000D01*
X23979785Y-78636761D01*
X23836928Y-78493904D01*
X23741690Y-78446285D01*
X23646452Y-78446285D01*
X23694071Y-78684380D02*
X23598833Y-78636761D01*
X23503595Y-78541523D01*
X23455976Y-78351047D01*
X23455976Y-78017714D01*
X23503595Y-77827238D01*
X23598833Y-77732000D01*
X23694071Y-77684380D01*
X23884547Y-77684380D01*
X23979785Y-77732000D01*
X24075023Y-77827238D01*
X24122642Y-78017714D01*
X24122642Y-78351047D01*
X24075023Y-78541523D01*
X23979785Y-78636761D01*
X23884547Y-78684380D01*
X23694071Y-78684380D01*
X24503595Y-77779619D02*
X24551214Y-77732000D01*
X24646452Y-77684380D01*
X24884547Y-77684380D01*
X24979785Y-77732000D01*
X25027404Y-77779619D01*
X25075023Y-77874857D01*
X25075023Y-77970095D01*
X25027404Y-78112952D01*
X24455976Y-78684380D01*
X25075023Y-78684380D01*
%TO.C,*%
%TO.C,J10*%
X86058476Y-46437380D02*
X86058476Y-47151666D01*
X86010857Y-47294523D01*
X85915619Y-47389761D01*
X85772761Y-47437380D01*
X85677523Y-47437380D01*
X87058476Y-47437380D02*
X86487047Y-47437380D01*
X86772761Y-47437380D02*
X86772761Y-46437380D01*
X86677523Y-46580238D01*
X86582285Y-46675476D01*
X86487047Y-46723095D01*
X87677523Y-46437380D02*
X87772761Y-46437380D01*
X87868000Y-46485000D01*
X87915619Y-46532619D01*
X87963238Y-46627857D01*
X88010857Y-46818333D01*
X88010857Y-47056428D01*
X87963238Y-47246904D01*
X87915619Y-47342142D01*
X87868000Y-47389761D01*
X87772761Y-47437380D01*
X87677523Y-47437380D01*
X87582285Y-47389761D01*
X87534666Y-47342142D01*
X87487047Y-47246904D01*
X87439428Y-47056428D01*
X87439428Y-46818333D01*
X87487047Y-46627857D01*
X87534666Y-46532619D01*
X87582285Y-46485000D01*
X87677523Y-46437380D01*
%TO.C,Q7*%
X50958761Y-78779619D02*
X50863523Y-78732000D01*
X50768285Y-78636761D01*
X50625428Y-78493904D01*
X50530190Y-78446285D01*
X50434952Y-78446285D01*
X50482571Y-78684380D02*
X50387333Y-78636761D01*
X50292095Y-78541523D01*
X50244476Y-78351047D01*
X50244476Y-78017714D01*
X50292095Y-77827238D01*
X50387333Y-77732000D01*
X50482571Y-77684380D01*
X50673047Y-77684380D01*
X50768285Y-77732000D01*
X50863523Y-77827238D01*
X50911142Y-78017714D01*
X50911142Y-78351047D01*
X50863523Y-78541523D01*
X50768285Y-78636761D01*
X50673047Y-78684380D01*
X50482571Y-78684380D01*
X51244476Y-77684380D02*
X51911142Y-77684380D01*
X51482571Y-78684380D01*
%TO.C,R12*%
X38552380Y-50172857D02*
X38076190Y-50506190D01*
X38552380Y-50744285D02*
X37552380Y-50744285D01*
X37552380Y-50363333D01*
X37600000Y-50268095D01*
X37647619Y-50220476D01*
X37742857Y-50172857D01*
X37885714Y-50172857D01*
X37980952Y-50220476D01*
X38028571Y-50268095D01*
X38076190Y-50363333D01*
X38076190Y-50744285D01*
X38552380Y-49220476D02*
X38552380Y-49791904D01*
X38552380Y-49506190D02*
X37552380Y-49506190D01*
X37695238Y-49601428D01*
X37790476Y-49696666D01*
X37838095Y-49791904D01*
X37647619Y-48839523D02*
X37600000Y-48791904D01*
X37552380Y-48696666D01*
X37552380Y-48458571D01*
X37600000Y-48363333D01*
X37647619Y-48315714D01*
X37742857Y-48268095D01*
X37838095Y-48268095D01*
X37980952Y-48315714D01*
X38552380Y-48887142D01*
X38552380Y-48268095D01*
%TO.C,J6*%
X30654666Y-89876380D02*
X30654666Y-90590666D01*
X30607047Y-90733523D01*
X30511809Y-90828761D01*
X30368952Y-90876380D01*
X30273714Y-90876380D01*
X31559428Y-89876380D02*
X31368952Y-89876380D01*
X31273714Y-89924000D01*
X31226095Y-89971619D01*
X31130857Y-90114476D01*
X31083238Y-90304952D01*
X31083238Y-90685904D01*
X31130857Y-90781142D01*
X31178476Y-90828761D01*
X31273714Y-90876380D01*
X31464190Y-90876380D01*
X31559428Y-90828761D01*
X31607047Y-90781142D01*
X31654666Y-90685904D01*
X31654666Y-90447809D01*
X31607047Y-90352571D01*
X31559428Y-90304952D01*
X31464190Y-90257333D01*
X31273714Y-90257333D01*
X31178476Y-90304952D01*
X31130857Y-90352571D01*
X31083238Y-90447809D01*
%TO.C,J13*%
X86566476Y-79716380D02*
X86566476Y-80430666D01*
X86518857Y-80573523D01*
X86423619Y-80668761D01*
X86280761Y-80716380D01*
X86185523Y-80716380D01*
X87566476Y-80716380D02*
X86995047Y-80716380D01*
X87280761Y-80716380D02*
X87280761Y-79716380D01*
X87185523Y-79859238D01*
X87090285Y-79954476D01*
X86995047Y-80002095D01*
X87899809Y-79716380D02*
X88518857Y-79716380D01*
X88185523Y-80097333D01*
X88328380Y-80097333D01*
X88423619Y-80144952D01*
X88471238Y-80192571D01*
X88518857Y-80287809D01*
X88518857Y-80525904D01*
X88471238Y-80621142D01*
X88423619Y-80668761D01*
X88328380Y-80716380D01*
X88042666Y-80716380D01*
X87947428Y-80668761D01*
X87899809Y-80621142D01*
%TO.C,C3*%
X100163345Y-75541142D02*
X100115726Y-75588761D01*
X99972869Y-75636380D01*
X99877631Y-75636380D01*
X99734773Y-75588761D01*
X99639535Y-75493523D01*
X99591916Y-75398285D01*
X99544297Y-75207809D01*
X99544297Y-75064952D01*
X99591916Y-74874476D01*
X99639535Y-74779238D01*
X99734773Y-74684000D01*
X99877631Y-74636380D01*
X99972869Y-74636380D01*
X100115726Y-74684000D01*
X100163345Y-74731619D01*
X100496678Y-74636380D02*
X101115726Y-74636380D01*
X100782392Y-75017333D01*
X100925250Y-75017333D01*
X101020488Y-75064952D01*
X101068107Y-75112571D01*
X101115726Y-75207809D01*
X101115726Y-75445904D01*
X101068107Y-75541142D01*
X101020488Y-75588761D01*
X100925250Y-75636380D01*
X100639535Y-75636380D01*
X100544297Y-75588761D01*
X100496678Y-75541142D01*
%TO.C,J18*%
X86058476Y-58082380D02*
X86058476Y-58796666D01*
X86010857Y-58939523D01*
X85915619Y-59034761D01*
X85772761Y-59082380D01*
X85677523Y-59082380D01*
X87058476Y-59082380D02*
X86487047Y-59082380D01*
X86772761Y-59082380D02*
X86772761Y-58082380D01*
X86677523Y-58225238D01*
X86582285Y-58320476D01*
X86487047Y-58368095D01*
X87629904Y-58510952D02*
X87534666Y-58463333D01*
X87487047Y-58415714D01*
X87439428Y-58320476D01*
X87439428Y-58272857D01*
X87487047Y-58177619D01*
X87534666Y-58130000D01*
X87629904Y-58082380D01*
X87820380Y-58082380D01*
X87915619Y-58130000D01*
X87963238Y-58177619D01*
X88010857Y-58272857D01*
X88010857Y-58320476D01*
X87963238Y-58415714D01*
X87915619Y-58463333D01*
X87820380Y-58510952D01*
X87629904Y-58510952D01*
X87534666Y-58558571D01*
X87487047Y-58606190D01*
X87439428Y-58701428D01*
X87439428Y-58891904D01*
X87487047Y-58987142D01*
X87534666Y-59034761D01*
X87629904Y-59082380D01*
X87820380Y-59082380D01*
X87915619Y-59034761D01*
X87963238Y-58987142D01*
X88010857Y-58891904D01*
X88010857Y-58701428D01*
X87963238Y-58606190D01*
X87915619Y-58558571D01*
X87820380Y-58510952D01*
%TO.C,R6*%
X66635333Y-63952380D02*
X66302000Y-63476190D01*
X66063904Y-63952380D02*
X66063904Y-62952380D01*
X66444857Y-62952380D01*
X66540095Y-63000000D01*
X66587714Y-63047619D01*
X66635333Y-63142857D01*
X66635333Y-63285714D01*
X66587714Y-63380952D01*
X66540095Y-63428571D01*
X66444857Y-63476190D01*
X66063904Y-63476190D01*
X67492476Y-62952380D02*
X67302000Y-62952380D01*
X67206761Y-63000000D01*
X67159142Y-63047619D01*
X67063904Y-63190476D01*
X67016285Y-63380952D01*
X67016285Y-63761904D01*
X67063904Y-63857142D01*
X67111523Y-63904761D01*
X67206761Y-63952380D01*
X67397238Y-63952380D01*
X67492476Y-63904761D01*
X67540095Y-63857142D01*
X67587714Y-63761904D01*
X67587714Y-63523809D01*
X67540095Y-63428571D01*
X67492476Y-63380952D01*
X67397238Y-63333333D01*
X67206761Y-63333333D01*
X67111523Y-63380952D01*
X67063904Y-63428571D01*
X67016285Y-63523809D01*
%TO.C,D1*%
X49304904Y-31082380D02*
X49304904Y-30082380D01*
X49543000Y-30082380D01*
X49685857Y-30130000D01*
X49781095Y-30225238D01*
X49828714Y-30320476D01*
X49876333Y-30510952D01*
X49876333Y-30653809D01*
X49828714Y-30844285D01*
X49781095Y-30939523D01*
X49685857Y-31034761D01*
X49543000Y-31082380D01*
X49304904Y-31082380D01*
X50828714Y-31082380D02*
X50257285Y-31082380D01*
X50543000Y-31082380D02*
X50543000Y-30082380D01*
X50447761Y-30225238D01*
X50352523Y-30320476D01*
X50257285Y-30368095D01*
%TO.C,R9*%
X90622380Y-31916666D02*
X90146190Y-32250000D01*
X90622380Y-32488095D02*
X89622380Y-32488095D01*
X89622380Y-32107142D01*
X89670000Y-32011904D01*
X89717619Y-31964285D01*
X89812857Y-31916666D01*
X89955714Y-31916666D01*
X90050952Y-31964285D01*
X90098571Y-32011904D01*
X90146190Y-32107142D01*
X90146190Y-32488095D01*
X90622380Y-31440476D02*
X90622380Y-31250000D01*
X90574761Y-31154761D01*
X90527142Y-31107142D01*
X90384285Y-31011904D01*
X90193809Y-30964285D01*
X89812857Y-30964285D01*
X89717619Y-31011904D01*
X89670000Y-31059523D01*
X89622380Y-31154761D01*
X89622380Y-31345238D01*
X89670000Y-31440476D01*
X89717619Y-31488095D01*
X89812857Y-31535714D01*
X90050952Y-31535714D01*
X90146190Y-31488095D01*
X90193809Y-31440476D01*
X90241428Y-31345238D01*
X90241428Y-31154761D01*
X90193809Y-31059523D01*
X90146190Y-31011904D01*
X90050952Y-30964285D01*
%TO.C,J11*%
X70310476Y-79513380D02*
X70310476Y-80227666D01*
X70262857Y-80370523D01*
X70167619Y-80465761D01*
X70024761Y-80513380D01*
X69929523Y-80513380D01*
X71310476Y-80513380D02*
X70739047Y-80513380D01*
X71024761Y-80513380D02*
X71024761Y-79513380D01*
X70929523Y-79656238D01*
X70834285Y-79751476D01*
X70739047Y-79799095D01*
X72262857Y-80513380D02*
X71691428Y-80513380D01*
X71977142Y-80513380D02*
X71977142Y-79513380D01*
X71881904Y-79656238D01*
X71786666Y-79751476D01*
X71691428Y-79799095D01*
%TO.C,R3*%
X58872380Y-57824666D02*
X58396190Y-58158000D01*
X58872380Y-58396095D02*
X57872380Y-58396095D01*
X57872380Y-58015142D01*
X57920000Y-57919904D01*
X57967619Y-57872285D01*
X58062857Y-57824666D01*
X58205714Y-57824666D01*
X58300952Y-57872285D01*
X58348571Y-57919904D01*
X58396190Y-58015142D01*
X58396190Y-58396095D01*
X57872380Y-57491333D02*
X57872380Y-56872285D01*
X58253333Y-57205619D01*
X58253333Y-57062761D01*
X58300952Y-56967523D01*
X58348571Y-56919904D01*
X58443809Y-56872285D01*
X58681904Y-56872285D01*
X58777142Y-56919904D01*
X58824761Y-56967523D01*
X58872380Y-57062761D01*
X58872380Y-57348476D01*
X58824761Y-57443714D01*
X58777142Y-57491333D01*
%TO.C,J2*%
X92650380Y-32123333D02*
X93364666Y-32123333D01*
X93507523Y-32170952D01*
X93602761Y-32266190D01*
X93650380Y-32409047D01*
X93650380Y-32504285D01*
X92745619Y-31694761D02*
X92698000Y-31647142D01*
X92650380Y-31551904D01*
X92650380Y-31313809D01*
X92698000Y-31218571D01*
X92745619Y-31170952D01*
X92840857Y-31123333D01*
X92936095Y-31123333D01*
X93078952Y-31170952D01*
X93650380Y-31742380D01*
X93650380Y-31123333D01*
%TO.C,R18*%
X90622380Y-62872857D02*
X90146190Y-63206190D01*
X90622380Y-63444285D02*
X89622380Y-63444285D01*
X89622380Y-63063333D01*
X89670000Y-62968095D01*
X89717619Y-62920476D01*
X89812857Y-62872857D01*
X89955714Y-62872857D01*
X90050952Y-62920476D01*
X90098571Y-62968095D01*
X90146190Y-63063333D01*
X90146190Y-63444285D01*
X90622380Y-61920476D02*
X90622380Y-62491904D01*
X90622380Y-62206190D02*
X89622380Y-62206190D01*
X89765238Y-62301428D01*
X89860476Y-62396666D01*
X89908095Y-62491904D01*
X90050952Y-61349047D02*
X90003333Y-61444285D01*
X89955714Y-61491904D01*
X89860476Y-61539523D01*
X89812857Y-61539523D01*
X89717619Y-61491904D01*
X89670000Y-61444285D01*
X89622380Y-61349047D01*
X89622380Y-61158571D01*
X89670000Y-61063333D01*
X89717619Y-61015714D01*
X89812857Y-60968095D01*
X89860476Y-60968095D01*
X89955714Y-61015714D01*
X90003333Y-61063333D01*
X90050952Y-61158571D01*
X90050952Y-61349047D01*
X90098571Y-61444285D01*
X90146190Y-61491904D01*
X90241428Y-61539523D01*
X90431904Y-61539523D01*
X90527142Y-61491904D01*
X90574761Y-61444285D01*
X90622380Y-61349047D01*
X90622380Y-61158571D01*
X90574761Y-61063333D01*
X90527142Y-61015714D01*
X90431904Y-60968095D01*
X90241428Y-60968095D01*
X90146190Y-61015714D01*
X90098571Y-61063333D01*
X90050952Y-61158571D01*
%TO.C,J1*%
X59904666Y-29983380D02*
X59904666Y-30697666D01*
X59857047Y-30840523D01*
X59761809Y-30935761D01*
X59618952Y-30983380D01*
X59523714Y-30983380D01*
X60904666Y-30983380D02*
X60333238Y-30983380D01*
X60618952Y-30983380D02*
X60618952Y-29983380D01*
X60523714Y-30126238D01*
X60428476Y-30221476D01*
X60333238Y-30269095D01*
%TO.C,R24*%
X60777380Y-74302857D02*
X60301190Y-74636190D01*
X60777380Y-74874285D02*
X59777380Y-74874285D01*
X59777380Y-74493333D01*
X59825000Y-74398095D01*
X59872619Y-74350476D01*
X59967857Y-74302857D01*
X60110714Y-74302857D01*
X60205952Y-74350476D01*
X60253571Y-74398095D01*
X60301190Y-74493333D01*
X60301190Y-74874285D01*
X59872619Y-73921904D02*
X59825000Y-73874285D01*
X59777380Y-73779047D01*
X59777380Y-73540952D01*
X59825000Y-73445714D01*
X59872619Y-73398095D01*
X59967857Y-73350476D01*
X60063095Y-73350476D01*
X60205952Y-73398095D01*
X60777380Y-73969523D01*
X60777380Y-73350476D01*
X60110714Y-72493333D02*
X60777380Y-72493333D01*
X59729761Y-72731428D02*
X60444047Y-72969523D01*
X60444047Y-72350476D01*
%TO.C,J7*%
X42084666Y-89876380D02*
X42084666Y-90590666D01*
X42037047Y-90733523D01*
X41941809Y-90828761D01*
X41798952Y-90876380D01*
X41703714Y-90876380D01*
X42465619Y-89876380D02*
X43132285Y-89876380D01*
X42703714Y-90876380D01*
%TO.C,R4*%
X48712380Y-57824666D02*
X48236190Y-58158000D01*
X48712380Y-58396095D02*
X47712380Y-58396095D01*
X47712380Y-58015142D01*
X47760000Y-57919904D01*
X47807619Y-57872285D01*
X47902857Y-57824666D01*
X48045714Y-57824666D01*
X48140952Y-57872285D01*
X48188571Y-57919904D01*
X48236190Y-58015142D01*
X48236190Y-58396095D01*
X48045714Y-56967523D02*
X48712380Y-56967523D01*
X47664761Y-57205619D02*
X48379047Y-57443714D01*
X48379047Y-56824666D01*
%TO.C,R17*%
X90876380Y-53982857D02*
X90400190Y-54316190D01*
X90876380Y-54554285D02*
X89876380Y-54554285D01*
X89876380Y-54173333D01*
X89924000Y-54078095D01*
X89971619Y-54030476D01*
X90066857Y-53982857D01*
X90209714Y-53982857D01*
X90304952Y-54030476D01*
X90352571Y-54078095D01*
X90400190Y-54173333D01*
X90400190Y-54554285D01*
X90876380Y-53030476D02*
X90876380Y-53601904D01*
X90876380Y-53316190D02*
X89876380Y-53316190D01*
X90019238Y-53411428D01*
X90114476Y-53506666D01*
X90162095Y-53601904D01*
X89876380Y-52697142D02*
X89876380Y-52030476D01*
X90876380Y-52459047D01*
%TO.C,R15*%
X49369614Y-36520380D02*
X49036281Y-36044190D01*
X48798186Y-36520380D02*
X48798186Y-35520380D01*
X49179138Y-35520380D01*
X49274376Y-35568000D01*
X49321995Y-35615619D01*
X49369614Y-35710857D01*
X49369614Y-35853714D01*
X49321995Y-35948952D01*
X49274376Y-35996571D01*
X49179138Y-36044190D01*
X48798186Y-36044190D01*
X50321995Y-36520380D02*
X49750567Y-36520380D01*
X50036281Y-36520380D02*
X50036281Y-35520380D01*
X49941043Y-35663238D01*
X49845805Y-35758476D01*
X49750567Y-35806095D01*
X51226757Y-35520380D02*
X50750567Y-35520380D01*
X50702948Y-35996571D01*
X50750567Y-35948952D01*
X50845805Y-35901333D01*
X51083900Y-35901333D01*
X51179138Y-35948952D01*
X51226757Y-35996571D01*
X51274376Y-36091809D01*
X51274376Y-36329904D01*
X51226757Y-36425142D01*
X51179138Y-36472761D01*
X51083900Y-36520380D01*
X50845805Y-36520380D01*
X50750567Y-36472761D01*
X50702948Y-36425142D01*
%TO.C,R11*%
X49382412Y-33739179D02*
X49049079Y-33262989D01*
X48810984Y-33739179D02*
X48810984Y-32739179D01*
X49191936Y-32739179D01*
X49287174Y-32786799D01*
X49334793Y-32834418D01*
X49382412Y-32929656D01*
X49382412Y-33072513D01*
X49334793Y-33167751D01*
X49287174Y-33215370D01*
X49191936Y-33262989D01*
X48810984Y-33262989D01*
X50334793Y-33739179D02*
X49763365Y-33739179D01*
X50049079Y-33739179D02*
X50049079Y-32739179D01*
X49953841Y-32882037D01*
X49858603Y-32977275D01*
X49763365Y-33024894D01*
X51287174Y-33739179D02*
X50715746Y-33739179D01*
X51001460Y-33739179D02*
X51001460Y-32739179D01*
X50906222Y-32882037D01*
X50810984Y-32977275D01*
X50715746Y-33024894D01*
%TO.C,J5*%
X92523380Y-66667333D02*
X93237666Y-66667333D01*
X93380523Y-66714952D01*
X93475761Y-66810190D01*
X93523380Y-66953047D01*
X93523380Y-67048285D01*
X92523380Y-65714952D02*
X92523380Y-66191142D01*
X92999571Y-66238761D01*
X92951952Y-66191142D01*
X92904333Y-66095904D01*
X92904333Y-65857809D01*
X92951952Y-65762571D01*
X92999571Y-65714952D01*
X93094809Y-65667333D01*
X93332904Y-65667333D01*
X93428142Y-65714952D01*
X93475761Y-65762571D01*
X93523380Y-65857809D01*
X93523380Y-66095904D01*
X93475761Y-66191142D01*
X93428142Y-66238761D01*
%TO.C,R16*%
X40838380Y-50680857D02*
X40362190Y-51014190D01*
X40838380Y-51252285D02*
X39838380Y-51252285D01*
X39838380Y-50871333D01*
X39886000Y-50776095D01*
X39933619Y-50728476D01*
X40028857Y-50680857D01*
X40171714Y-50680857D01*
X40266952Y-50728476D01*
X40314571Y-50776095D01*
X40362190Y-50871333D01*
X40362190Y-51252285D01*
X40838380Y-49728476D02*
X40838380Y-50299904D01*
X40838380Y-50014190D02*
X39838380Y-50014190D01*
X39981238Y-50109428D01*
X40076476Y-50204666D01*
X40124095Y-50299904D01*
X39838380Y-48871333D02*
X39838380Y-49061809D01*
X39886000Y-49157047D01*
X39933619Y-49204666D01*
X40076476Y-49299904D01*
X40266952Y-49347523D01*
X40647904Y-49347523D01*
X40743142Y-49299904D01*
X40790761Y-49252285D01*
X40838380Y-49157047D01*
X40838380Y-48966571D01*
X40790761Y-48871333D01*
X40743142Y-48823714D01*
X40647904Y-48776095D01*
X40409809Y-48776095D01*
X40314571Y-48823714D01*
X40266952Y-48871333D01*
X40219333Y-48966571D01*
X40219333Y-49157047D01*
X40266952Y-49252285D01*
X40314571Y-49299904D01*
X40409809Y-49347523D01*
%TO.C,R8*%
X46172380Y-57824666D02*
X45696190Y-58158000D01*
X46172380Y-58396095D02*
X45172380Y-58396095D01*
X45172380Y-58015142D01*
X45220000Y-57919904D01*
X45267619Y-57872285D01*
X45362857Y-57824666D01*
X45505714Y-57824666D01*
X45600952Y-57872285D01*
X45648571Y-57919904D01*
X45696190Y-58015142D01*
X45696190Y-58396095D01*
X45600952Y-57253238D02*
X45553333Y-57348476D01*
X45505714Y-57396095D01*
X45410476Y-57443714D01*
X45362857Y-57443714D01*
X45267619Y-57396095D01*
X45220000Y-57348476D01*
X45172380Y-57253238D01*
X45172380Y-57062761D01*
X45220000Y-56967523D01*
X45267619Y-56919904D01*
X45362857Y-56872285D01*
X45410476Y-56872285D01*
X45505714Y-56919904D01*
X45553333Y-56967523D01*
X45600952Y-57062761D01*
X45600952Y-57253238D01*
X45648571Y-57348476D01*
X45696190Y-57396095D01*
X45791428Y-57443714D01*
X45981904Y-57443714D01*
X46077142Y-57396095D01*
X46124761Y-57348476D01*
X46172380Y-57253238D01*
X46172380Y-57062761D01*
X46124761Y-56967523D01*
X46077142Y-56919904D01*
X45981904Y-56872285D01*
X45791428Y-56872285D01*
X45696190Y-56919904D01*
X45648571Y-56967523D01*
X45600952Y-57062761D01*
%TO.C,R7*%
X56332380Y-57824666D02*
X55856190Y-58158000D01*
X56332380Y-58396095D02*
X55332380Y-58396095D01*
X55332380Y-58015142D01*
X55380000Y-57919904D01*
X55427619Y-57872285D01*
X55522857Y-57824666D01*
X55665714Y-57824666D01*
X55760952Y-57872285D01*
X55808571Y-57919904D01*
X55856190Y-58015142D01*
X55856190Y-58396095D01*
X55332380Y-57491333D02*
X55332380Y-56824666D01*
X56332380Y-57253238D01*
%TO.C,J3*%
X92650380Y-43513333D02*
X93364666Y-43513333D01*
X93507523Y-43560952D01*
X93602761Y-43656190D01*
X93650380Y-43799047D01*
X93650380Y-43894285D01*
X92650380Y-43132380D02*
X92650380Y-42513333D01*
X93031333Y-42846666D01*
X93031333Y-42703809D01*
X93078952Y-42608571D01*
X93126571Y-42560952D01*
X93221809Y-42513333D01*
X93459904Y-42513333D01*
X93555142Y-42560952D01*
X93602761Y-42608571D01*
X93650380Y-42703809D01*
X93650380Y-42989523D01*
X93602761Y-43084761D01*
X93555142Y-43132380D01*
D12*
%TO.C,R23*%
X56602500Y-75580000D02*
X56602500Y-71740000D01*
X58442500Y-75580000D02*
X58442500Y-71740000D01*
%TO.C,Q3*%
X76009500Y-41380000D02*
X76009500Y-44980000D01*
X76021022Y-45018478D02*
G75*
G03*
X80459500Y-43180000I1838478J1838478D01*
G01*
X76021022Y-41341522D02*
G75*
G02*
X80459500Y-43180000I1838478J-1838478D01*
G01*
%TO.C,R1*%
X29560000Y-75580000D02*
X29560000Y-71740000D01*
X31400000Y-75580000D02*
X31400000Y-71740000D01*
%TO.C,J14*%
X32706000Y-72898000D02*
X32706000Y-71568000D01*
X32706000Y-74168000D02*
X35366000Y-74168000D01*
X35366000Y-74168000D02*
X35366000Y-76768000D01*
X32706000Y-71568000D02*
X34036000Y-71568000D01*
X32706000Y-76768000D02*
X35366000Y-76768000D01*
X32706000Y-74168000D02*
X32706000Y-76768000D01*
%TO.C,R27*%
X68992000Y-71740000D02*
X68992000Y-75580000D01*
X67152000Y-71740000D02*
X67152000Y-75580000D01*
%TO.C,J12*%
X40914000Y-31169000D02*
X30794000Y-31169000D01*
X32079000Y-26977000D02*
X32126000Y-26931000D01*
X40914000Y-23308000D02*
X30794000Y-23308000D01*
X40914000Y-21808000D02*
X30794000Y-21808000D01*
X40914000Y-31169000D02*
X40914000Y-21248000D01*
X34581000Y-24885000D02*
X34628000Y-24839000D01*
X34388000Y-24669000D02*
X34423000Y-24634000D01*
X40914000Y-21248000D02*
X30794000Y-21248000D01*
X40914000Y-28209000D02*
X30794000Y-28209000D01*
X32284000Y-27183000D02*
X32319000Y-27147000D01*
X30794000Y-31169000D02*
X30794000Y-21248000D01*
X41154000Y-21748000D02*
X41154000Y-21008000D01*
X41154000Y-21008000D02*
X40654000Y-21008000D01*
X39889426Y-25224958D02*
G75*
G02*
X39889000Y-26592000I-1535426J-683042D01*
G01*
X38325195Y-24227747D02*
G75*
G02*
X39038000Y-24373000I28805J-1680253D01*
G01*
X39037042Y-27443426D02*
G75*
G02*
X37670000Y-27443000I-683042J1535426D01*
G01*
X37670682Y-24373244D02*
G75*
G02*
X38354000Y-24228000I683318J-1534756D01*
G01*
X36818574Y-26591042D02*
G75*
G02*
X36819000Y-25224000I1535426J683042D01*
G01*
X35034000Y-25908000D02*
G75*
G03*
X35034000Y-25908000I-1680000J0D01*
G01*
%TO.C,J4*%
X92021000Y-59456000D02*
X101942000Y-59456000D01*
X92021000Y-59456000D02*
X92021000Y-49336000D01*
X101382000Y-59456000D02*
X101382000Y-49336000D01*
X94981000Y-59456000D02*
X94981000Y-49336000D01*
X101442000Y-59696000D02*
X102182000Y-59696000D01*
X96007000Y-50826000D02*
X96043000Y-50861000D01*
X101942000Y-59456000D02*
X101942000Y-49336000D01*
X98305000Y-53123000D02*
X98351000Y-53170000D01*
X102182000Y-59696000D02*
X102182000Y-59196000D01*
X96213000Y-50621000D02*
X96259000Y-50668000D01*
X99882000Y-59456000D02*
X99882000Y-49336000D01*
X92021000Y-49336000D02*
X101942000Y-49336000D01*
X98521000Y-52930000D02*
X98556000Y-52965000D01*
X95746574Y-57579042D02*
G75*
G02*
X95747000Y-56212000I1535426J683042D01*
G01*
X97965042Y-58431426D02*
G75*
G02*
X96598000Y-58431000I-683042J1535426D01*
G01*
X98816756Y-56212682D02*
G75*
G02*
X98962000Y-56896000I-1534756J-683318D01*
G01*
X98962253Y-56867195D02*
G75*
G02*
X98817000Y-57580000I-1680253J-28805D01*
G01*
X96598958Y-55360574D02*
G75*
G02*
X97966000Y-55361000I683042J-1535426D01*
G01*
X98962000Y-51896000D02*
G75*
G03*
X98962000Y-51896000I-1680000J0D01*
G01*
%TO.C,Q6*%
X68897500Y-41380000D02*
X68897500Y-44980000D01*
X68909022Y-41341522D02*
G75*
G02*
X73347500Y-43180000I1838478J-1838478D01*
G01*
X68909022Y-45018478D02*
G75*
G03*
X73347500Y-43180000I1838478J1838478D01*
G01*
%TO.C,J15*%
X54867000Y-85402000D02*
X54820000Y-85448000D01*
X48534000Y-88479000D02*
X58654000Y-88479000D01*
X48534000Y-79118000D02*
X58654000Y-79118000D01*
X48534000Y-86979000D02*
X58654000Y-86979000D01*
X48534000Y-79118000D02*
X48534000Y-89039000D01*
X57164000Y-83104000D02*
X57129000Y-83140000D01*
X58654000Y-79118000D02*
X58654000Y-89039000D01*
X57369000Y-83310000D02*
X57322000Y-83356000D01*
X48294000Y-89279000D02*
X48794000Y-89279000D01*
X48534000Y-89039000D02*
X58654000Y-89039000D01*
X55060000Y-85618000D02*
X55025000Y-85653000D01*
X48534000Y-82078000D02*
X58654000Y-82078000D01*
X48294000Y-88539000D02*
X48294000Y-89279000D01*
X51777318Y-85913756D02*
G75*
G02*
X51094000Y-86059000I-683318J1534756D01*
G01*
X50410958Y-82843574D02*
G75*
G02*
X51778000Y-82844000I683042J-1535426D01*
G01*
X52629426Y-83695958D02*
G75*
G02*
X52629000Y-85063000I-1535426J-683042D01*
G01*
X49558574Y-85062042D02*
G75*
G02*
X49559000Y-83695000I1535426J683042D01*
G01*
X51122805Y-86059253D02*
G75*
G02*
X50410000Y-85914000I-28805J1680253D01*
G01*
X57774000Y-84379000D02*
G75*
G03*
X57774000Y-84379000I-1680000J0D01*
G01*
%TO.C,R25*%
X62072000Y-71740000D02*
X62072000Y-75580000D01*
X63912000Y-71740000D02*
X63912000Y-75580000D01*
%TO.C,R10*%
X91180000Y-41514000D02*
X91180000Y-45354000D01*
X89340000Y-41514000D02*
X89340000Y-45354000D01*
%TO.C,R5*%
X83724000Y-41260000D02*
X83724000Y-45100000D01*
X81884000Y-41260000D02*
X81884000Y-45100000D01*
%TO.C,U3*%
X87675000Y-36980000D02*
X87675000Y-35330000D01*
X67235000Y-31680000D02*
X67235000Y-36980000D01*
X87675000Y-33330000D02*
X87675000Y-31680000D01*
X87675000Y-31680000D02*
X67235000Y-31680000D01*
X67235000Y-36980000D02*
X87675000Y-36980000D01*
X87675000Y-35330000D02*
G75*
G02*
X87675000Y-33330000I0J1000000D01*
G01*
%TO.C,U5*%
X72584000Y-75294000D02*
X90484000Y-75294000D01*
X90484000Y-75294000D02*
X90484000Y-73644000D01*
X72584000Y-69994000D02*
X72584000Y-75294000D01*
X90484000Y-69994000D02*
X72584000Y-69994000D01*
X90484000Y-71644000D02*
X90484000Y-69994000D01*
X90484000Y-73644000D02*
G75*
G02*
X90484000Y-71644000I0J1000000D01*
G01*
%TO.C,R22*%
X54062500Y-71740000D02*
X54062500Y-75580000D01*
X55902500Y-71740000D02*
X55902500Y-75580000D01*
%TO.C,R13*%
X71740000Y-26360000D02*
X75580000Y-26360000D01*
X71740000Y-24520000D02*
X75580000Y-24520000D01*
%TO.C,U4*%
X60960000Y-39370000D02*
X60960000Y-67310000D01*
X59690000Y-68580000D02*
X21590000Y-68580000D01*
X60960000Y-39370000D02*
X59690000Y-38100000D01*
X20320000Y-67310000D02*
X21590000Y-68580000D01*
X20320000Y-67310000D02*
X20320000Y-39370000D01*
X21590000Y-38100000D02*
X20320000Y-39370000D01*
X60960000Y-67310000D02*
X59690000Y-68580000D01*
X21590000Y-38100000D02*
X59690000Y-38100000D01*
X22860000Y-50800000D02*
X20320000Y-50800000D01*
X20320000Y-50800000D02*
X20320000Y-55880000D01*
X20320000Y-55880000D02*
X22860000Y-55880000D01*
X22860000Y-55880000D02*
X22860000Y-50800000D01*
%TO.C,J17*%
X85538000Y-50994000D02*
X86868000Y-50994000D01*
X85538000Y-52324000D02*
X85538000Y-50994000D01*
X88198000Y-53594000D02*
X88198000Y-56194000D01*
X85538000Y-53594000D02*
X85538000Y-56194000D01*
X85538000Y-53594000D02*
X88198000Y-53594000D01*
X85538000Y-56194000D02*
X88198000Y-56194000D01*
%TO.C,U2*%
X63186000Y-51960000D02*
X63186000Y-57260000D01*
X83626000Y-57260000D02*
X83626000Y-55610000D01*
X83626000Y-53610000D02*
X83626000Y-51960000D01*
X63186000Y-57260000D02*
X83626000Y-57260000D01*
X83626000Y-51960000D02*
X63186000Y-51960000D01*
X83626000Y-55610000D02*
G75*
G02*
X83626000Y-53610000I0J1000000D01*
G01*
%TO.C,J9*%
X87884000Y-27238000D02*
X85284000Y-27238000D01*
X89154000Y-24578000D02*
X90484000Y-24578000D01*
X85284000Y-24578000D02*
X85284000Y-27238000D01*
X87884000Y-24578000D02*
X87884000Y-27238000D01*
X90484000Y-24578000D02*
X90484000Y-25908000D01*
X87884000Y-24578000D02*
X85284000Y-24578000D01*
%TO.C,R26*%
X64612000Y-71740000D02*
X64612000Y-75580000D01*
X66452000Y-71740000D02*
X66452000Y-75580000D01*
%TO.C,Q4*%
X76730000Y-61650000D02*
X73130000Y-61650000D01*
X76768478Y-61661522D02*
G75*
G02*
X74930000Y-66100000I-1838478J-1838478D01*
G01*
X73091522Y-61661522D02*
G75*
G03*
X74930000Y-66100000I1838478J-1838478D01*
G01*
%TO.C,Q1*%
X41592500Y-76730000D02*
X41592500Y-73130000D01*
X41580978Y-73091522D02*
G75*
G03*
X37142500Y-74930000I-1838478J-1838478D01*
G01*
X41580978Y-76768478D02*
G75*
G02*
X37142500Y-74930000I-1838478J1838478D01*
G01*
%TO.C,R20*%
X42632500Y-71740000D02*
X42632500Y-75580000D01*
X44472500Y-71740000D02*
X44472500Y-75580000D01*
%TO.C,R19*%
X28860000Y-71740000D02*
X28860000Y-75580000D01*
X27020000Y-71740000D02*
X27020000Y-75580000D01*
%TO.C,R2*%
X43530000Y-31130000D02*
X43530000Y-27290000D01*
X45370000Y-31130000D02*
X45370000Y-27290000D01*
%TO.C,R14*%
X65136000Y-46324000D02*
X68976000Y-46324000D01*
X65136000Y-48164000D02*
X68976000Y-48164000D01*
%TO.C,J8*%
X23361000Y-33277000D02*
X23315000Y-33230000D01*
X20224000Y-26704000D02*
X19484000Y-26704000D01*
X21784000Y-26944000D02*
X21784000Y-37064000D01*
X29645000Y-37064000D02*
X19724000Y-37064000D01*
X29645000Y-26944000D02*
X19724000Y-26944000D01*
X19484000Y-26704000D02*
X19484000Y-27204000D01*
X19724000Y-26944000D02*
X19724000Y-37064000D01*
X20284000Y-26944000D02*
X20284000Y-37064000D01*
X25453000Y-35779000D02*
X25407000Y-35732000D01*
X23145000Y-33470000D02*
X23110000Y-33435000D01*
X25659000Y-35574000D02*
X25623000Y-35539000D01*
X29645000Y-26944000D02*
X29645000Y-37064000D01*
X26685000Y-26944000D02*
X26685000Y-37064000D01*
X25919426Y-28820958D02*
G75*
G02*
X25919000Y-30188000I-1535426J-683042D01*
G01*
X23700958Y-27968574D02*
G75*
G02*
X25068000Y-27969000I683042J-1535426D01*
G01*
X22849244Y-30187318D02*
G75*
G02*
X22704000Y-29504000I1534756J683318D01*
G01*
X22703747Y-29532805D02*
G75*
G02*
X22849000Y-28820000I1680253J28805D01*
G01*
X25067042Y-31039426D02*
G75*
G02*
X23700000Y-31039000I-683042J1535426D01*
G01*
X26064000Y-34504000D02*
G75*
G03*
X26064000Y-34504000I-1680000J0D01*
G01*
%TO.C,Q5*%
X81950000Y-28470000D02*
X81950000Y-24870000D01*
X81938478Y-28508478D02*
G75*
G02*
X77500000Y-26670000I-1838478J1838478D01*
G01*
X81938478Y-24831522D02*
G75*
G03*
X77500000Y-26670000I-1838478J-1838478D01*
G01*
%TO.C,R21*%
X47012500Y-75580000D02*
X47012500Y-71740000D01*
X45172500Y-75580000D02*
X45172500Y-71740000D01*
%TO.C,Q2*%
X26115500Y-76730000D02*
X26115500Y-73130000D01*
X26103978Y-76768478D02*
G75*
G02*
X21665500Y-74930000I-1838478J1838478D01*
G01*
X26103978Y-73091522D02*
G75*
G03*
X21665500Y-74930000I-1838478J-1838478D01*
G01*
%TO.C,J10*%
X88198000Y-40580000D02*
X85538000Y-40580000D01*
X88198000Y-43180000D02*
X88198000Y-40580000D01*
X88198000Y-43180000D02*
X85538000Y-43180000D01*
X88198000Y-44450000D02*
X88198000Y-45780000D01*
X88198000Y-45780000D02*
X86868000Y-45780000D01*
X85538000Y-43180000D02*
X85538000Y-40580000D01*
%TO.C,Q7*%
X53022500Y-76730000D02*
X53022500Y-73130000D01*
X53010978Y-76768478D02*
G75*
G02*
X48572500Y-74930000I-1838478J1838478D01*
G01*
X53010978Y-73091522D02*
G75*
G03*
X48572500Y-74930000I-1838478J-1838478D01*
G01*
%TO.C,R12*%
X39020000Y-47610000D02*
X39020000Y-51450000D01*
X37180000Y-47610000D02*
X37180000Y-51450000D01*
%TO.C,J6*%
X25928000Y-79118000D02*
X25928000Y-89039000D01*
X25928000Y-89039000D02*
X36048000Y-89039000D01*
X34558000Y-83104000D02*
X34523000Y-83140000D01*
X32454000Y-85618000D02*
X32419000Y-85653000D01*
X25928000Y-82078000D02*
X36048000Y-82078000D01*
X36048000Y-79118000D02*
X36048000Y-89039000D01*
X25688000Y-89279000D02*
X26188000Y-89279000D01*
X25688000Y-88539000D02*
X25688000Y-89279000D01*
X34763000Y-83310000D02*
X34716000Y-83356000D01*
X32261000Y-85402000D02*
X32214000Y-85448000D01*
X25928000Y-86979000D02*
X36048000Y-86979000D01*
X25928000Y-79118000D02*
X36048000Y-79118000D01*
X25928000Y-88479000D02*
X36048000Y-88479000D01*
X26952574Y-85062042D02*
G75*
G02*
X26953000Y-83695000I1535426J683042D01*
G01*
X28516805Y-86059253D02*
G75*
G02*
X27804000Y-85914000I-28805J1680253D01*
G01*
X30023426Y-83695958D02*
G75*
G02*
X30023000Y-85063000I-1535426J-683042D01*
G01*
X29171318Y-85913756D02*
G75*
G02*
X28488000Y-86059000I-683318J1534756D01*
G01*
X27804958Y-82843574D02*
G75*
G02*
X29172000Y-82844000I683042J-1535426D01*
G01*
X35168000Y-84379000D02*
G75*
G03*
X35168000Y-84379000I-1680000J0D01*
G01*
%TO.C,J13*%
X79576000Y-88539000D02*
X79576000Y-89279000D01*
X79816000Y-86979000D02*
X94936000Y-86979000D01*
X79576000Y-89279000D02*
X80076000Y-89279000D01*
X86342000Y-85618000D02*
X86307000Y-85653000D01*
X79816000Y-89039000D02*
X94936000Y-89039000D01*
X93446000Y-83104000D02*
X93411000Y-83140000D01*
X91149000Y-85402000D02*
X91102000Y-85448000D01*
X86149000Y-85402000D02*
X86102000Y-85448000D01*
X79816000Y-82078000D02*
X94936000Y-82078000D01*
X91342000Y-85618000D02*
X91307000Y-85653000D01*
X94936000Y-79118000D02*
X94936000Y-89039000D01*
X93651000Y-83310000D02*
X93604000Y-83356000D01*
X88651000Y-83310000D02*
X88604000Y-83356000D01*
X79816000Y-79118000D02*
X94936000Y-79118000D01*
X88446000Y-83104000D02*
X88411000Y-83140000D01*
X79816000Y-88479000D02*
X94936000Y-88479000D01*
X79816000Y-79118000D02*
X79816000Y-89039000D01*
X81692958Y-82843574D02*
G75*
G02*
X83060000Y-82844000I683042J-1535426D01*
G01*
X83911426Y-83695958D02*
G75*
G02*
X83911000Y-85063000I-1535426J-683042D01*
G01*
X82404805Y-86059253D02*
G75*
G02*
X81692000Y-85914000I-28805J1680253D01*
G01*
X83059318Y-85913756D02*
G75*
G02*
X82376000Y-86059000I-683318J1534756D01*
G01*
X80840574Y-85062042D02*
G75*
G02*
X80841000Y-83695000I1535426J683042D01*
G01*
X89056000Y-84379000D02*
G75*
G03*
X89056000Y-84379000I-1680000J0D01*
G01*
X94056000Y-84379000D02*
G75*
G03*
X94056000Y-84379000I-1680000J0D01*
G01*
%TO.C,C3*%
X97405900Y-76478000D02*
X97405900Y-77880000D01*
X97004900Y-76478000D02*
X97004900Y-77981000D01*
X98085900Y-76478000D02*
X98085900Y-77533000D01*
X97925900Y-73238000D02*
X97925900Y-74398000D01*
X97845900Y-76478000D02*
X97845900Y-77685000D01*
X96964900Y-76478000D02*
X96964900Y-77988000D01*
X99005900Y-74523000D02*
X99005900Y-76353000D01*
X97565900Y-73056000D02*
X97565900Y-74398000D01*
X98245900Y-76478000D02*
X98245900Y-77409000D01*
X96804900Y-72869000D02*
X96804900Y-74398000D01*
X98565900Y-76478000D02*
X98565900Y-77091000D01*
X98765900Y-74055000D02*
X98765900Y-74398000D01*
X97925900Y-76478000D02*
X97925900Y-77638000D01*
X98405900Y-76478000D02*
X98405900Y-77264000D01*
X98925900Y-74340000D02*
X98925900Y-76536000D01*
X96764900Y-72865000D02*
X96764900Y-78011000D01*
X94010125Y-73713000D02*
X94010125Y-74213000D01*
X96804900Y-76478000D02*
X96804900Y-78007000D01*
X98325900Y-76478000D02*
X98325900Y-77339000D01*
X97765900Y-73148000D02*
X97765900Y-74398000D01*
X97285900Y-76478000D02*
X97285900Y-77918000D01*
X97124900Y-72918000D02*
X97124900Y-74398000D01*
X97244900Y-72947000D02*
X97244900Y-74398000D01*
X97485900Y-76478000D02*
X97485900Y-77852000D01*
X98045900Y-76478000D02*
X98045900Y-77560000D01*
X99085900Y-74761000D02*
X99085900Y-76115000D01*
X97485900Y-73024000D02*
X97485900Y-74398000D01*
X97164900Y-76478000D02*
X97164900Y-77949000D01*
X97365900Y-72983000D02*
X97365900Y-74398000D01*
X99045900Y-74633000D02*
X99045900Y-76243000D01*
X98285900Y-76478000D02*
X98285900Y-77375000D01*
X98805900Y-76478000D02*
X98805900Y-76757000D01*
X98805900Y-74119000D02*
X98805900Y-74398000D01*
X99125900Y-74920000D02*
X99125900Y-75956000D01*
X98445900Y-76478000D02*
X98445900Y-77223000D01*
X98325900Y-73537000D02*
X98325900Y-74398000D01*
X98445900Y-73653000D02*
X98445900Y-74398000D01*
X98205900Y-76478000D02*
X98205900Y-77442000D01*
X97885900Y-73214000D02*
X97885900Y-74398000D01*
X98885900Y-74260000D02*
X98885900Y-76616000D01*
X99165900Y-75154000D02*
X99165900Y-75722000D01*
X96884900Y-72877000D02*
X96884900Y-74398000D01*
X97605900Y-73073000D02*
X97605900Y-74398000D01*
X97885900Y-76478000D02*
X97885900Y-77662000D01*
X97044900Y-76478000D02*
X97044900Y-77974000D01*
X96964900Y-72888000D02*
X96964900Y-74398000D01*
X98845900Y-74187000D02*
X98845900Y-74398000D01*
X97084900Y-72910000D02*
X97084900Y-74398000D01*
X97525900Y-73040000D02*
X97525900Y-74398000D01*
X98045900Y-73316000D02*
X98045900Y-74398000D01*
X97325900Y-72970000D02*
X97325900Y-74398000D01*
X97725900Y-76478000D02*
X97725900Y-77748000D01*
X97765900Y-76478000D02*
X97765900Y-77728000D01*
X96924900Y-72882000D02*
X96924900Y-74398000D01*
X98605900Y-73833000D02*
X98605900Y-74398000D01*
X98485900Y-73695000D02*
X98485900Y-74398000D01*
X97044900Y-72902000D02*
X97044900Y-74398000D01*
X96604900Y-72858000D02*
X96604900Y-78018000D01*
X97645900Y-73090000D02*
X97645900Y-74398000D01*
X97685900Y-76478000D02*
X97685900Y-77767000D01*
X97645900Y-76478000D02*
X97645900Y-77786000D01*
X96884900Y-76478000D02*
X96884900Y-77999000D01*
X97965900Y-73263000D02*
X97965900Y-74398000D01*
X96644900Y-72859000D02*
X96644900Y-78017000D01*
X98645900Y-76478000D02*
X98645900Y-76992000D01*
X97164900Y-72927000D02*
X97164900Y-74398000D01*
X98125900Y-76478000D02*
X98125900Y-77503000D01*
X98365900Y-76478000D02*
X98365900Y-77302000D01*
X97285900Y-72958000D02*
X97285900Y-74398000D01*
X96844900Y-72873000D02*
X96844900Y-74398000D01*
X97725900Y-73128000D02*
X97725900Y-74398000D01*
X97244900Y-76478000D02*
X97244900Y-77929000D01*
X98085900Y-73343000D02*
X98085900Y-74398000D01*
X98285900Y-73501000D02*
X98285900Y-74398000D01*
X98645900Y-73884000D02*
X98645900Y-74398000D01*
X98405900Y-73612000D02*
X98405900Y-74398000D01*
X98765900Y-76478000D02*
X98765900Y-76821000D01*
X97084900Y-76478000D02*
X97084900Y-77966000D01*
X98965900Y-74427000D02*
X98965900Y-76449000D01*
X98725900Y-73995000D02*
X98725900Y-74398000D01*
X97965900Y-76478000D02*
X97965900Y-77613000D01*
X97445900Y-73010000D02*
X97445900Y-74398000D01*
X98485900Y-76478000D02*
X98485900Y-77181000D01*
X98005900Y-76478000D02*
X98005900Y-77587000D01*
X98245900Y-73467000D02*
X98245900Y-74398000D01*
X97525900Y-76478000D02*
X97525900Y-77836000D01*
X97004900Y-72895000D02*
X97004900Y-74398000D01*
X96724900Y-72862000D02*
X96724900Y-78014000D01*
X97365900Y-76478000D02*
X97365900Y-77893000D01*
X97685900Y-73109000D02*
X97685900Y-74398000D01*
X96924900Y-76478000D02*
X96924900Y-77994000D01*
X97605900Y-76478000D02*
X97605900Y-77803000D01*
X97325900Y-76478000D02*
X97325900Y-77906000D01*
X96564900Y-72858000D02*
X96564900Y-78018000D01*
X98205900Y-73434000D02*
X98205900Y-74398000D01*
X93760125Y-73963000D02*
X94260125Y-73963000D01*
X98525900Y-76478000D02*
X98525900Y-77137000D01*
X97845900Y-73191000D02*
X97845900Y-74398000D01*
X98005900Y-73289000D02*
X98005900Y-74398000D01*
X96684900Y-72860000D02*
X96684900Y-78016000D01*
X97445900Y-76478000D02*
X97445900Y-77866000D01*
X98525900Y-73739000D02*
X98525900Y-74398000D01*
X98165900Y-76478000D02*
X98165900Y-77473000D01*
X98125900Y-73373000D02*
X98125900Y-74398000D01*
X98605900Y-76478000D02*
X98605900Y-77043000D01*
X98725900Y-76478000D02*
X98725900Y-76881000D01*
X98685900Y-76478000D02*
X98685900Y-76938000D01*
X98565900Y-73785000D02*
X98565900Y-74398000D01*
X97204900Y-72937000D02*
X97204900Y-74398000D01*
X97124900Y-76478000D02*
X97124900Y-77958000D01*
X98845900Y-76478000D02*
X98845900Y-76689000D01*
X97805900Y-73170000D02*
X97805900Y-74398000D01*
X96844900Y-76478000D02*
X96844900Y-78003000D01*
X98365900Y-73574000D02*
X98365900Y-74398000D01*
X98685900Y-73938000D02*
X98685900Y-74398000D01*
X97565900Y-76478000D02*
X97565900Y-77820000D01*
X97805900Y-76478000D02*
X97805900Y-77706000D01*
X97204900Y-76478000D02*
X97204900Y-77939000D01*
X97405900Y-72996000D02*
X97405900Y-74398000D01*
X98165900Y-73403000D02*
X98165900Y-74398000D01*
X99184900Y-75438000D02*
G75*
G03*
X99184900Y-75438000I-2620000J0D01*
G01*
%TO.C,J18*%
X85538000Y-60960000D02*
X85538000Y-59630000D01*
X85538000Y-62230000D02*
X88198000Y-62230000D01*
X85538000Y-59630000D02*
X86868000Y-59630000D01*
X85538000Y-62230000D02*
X85538000Y-64830000D01*
X88198000Y-62230000D02*
X88198000Y-64830000D01*
X85538000Y-64830000D02*
X88198000Y-64830000D01*
%TO.C,R6*%
X64882000Y-62580000D02*
X68722000Y-62580000D01*
X64882000Y-64420000D02*
X68722000Y-64420000D01*
%TO.C,D1*%
X52603000Y-28215000D02*
X52603000Y-25125000D01*
X47053000Y-26669538D02*
G75*
G03*
X52603000Y-28214830I2990000J-462D01*
G01*
X47053000Y-26670462D02*
G75*
G02*
X52603000Y-25125170I2990000J462D01*
G01*
X52543000Y-26670000D02*
G75*
G03*
X52543000Y-26670000I-2500000J0D01*
G01*
%TO.C,R9*%
X91090000Y-29830000D02*
X91090000Y-33670000D01*
X89250000Y-29830000D02*
X89250000Y-33670000D01*
%TO.C,J11*%
X63560000Y-79118000D02*
X63560000Y-89039000D01*
X70086000Y-85618000D02*
X70051000Y-85653000D01*
X63320000Y-89279000D02*
X63820000Y-89279000D01*
X63560000Y-82078000D02*
X78680000Y-82078000D01*
X75086000Y-85618000D02*
X75051000Y-85653000D01*
X63320000Y-88539000D02*
X63320000Y-89279000D01*
X69893000Y-85402000D02*
X69846000Y-85448000D01*
X77190000Y-83104000D02*
X77155000Y-83140000D01*
X74893000Y-85402000D02*
X74846000Y-85448000D01*
X63560000Y-86979000D02*
X78680000Y-86979000D01*
X63560000Y-89039000D02*
X78680000Y-89039000D01*
X72190000Y-83104000D02*
X72155000Y-83140000D01*
X63560000Y-79118000D02*
X78680000Y-79118000D01*
X78680000Y-79118000D02*
X78680000Y-89039000D01*
X72395000Y-83310000D02*
X72348000Y-83356000D01*
X77395000Y-83310000D02*
X77348000Y-83356000D01*
X63560000Y-88479000D02*
X78680000Y-88479000D01*
X66803318Y-85913756D02*
G75*
G02*
X66120000Y-86059000I-683318J1534756D01*
G01*
X66148805Y-86059253D02*
G75*
G02*
X65436000Y-85914000I-28805J1680253D01*
G01*
X65436958Y-82843574D02*
G75*
G02*
X66804000Y-82844000I683042J-1535426D01*
G01*
X64584574Y-85062042D02*
G75*
G02*
X64585000Y-83695000I1535426J683042D01*
G01*
X67655426Y-83695958D02*
G75*
G02*
X67655000Y-85063000I-1535426J-683042D01*
G01*
X72800000Y-84379000D02*
G75*
G03*
X72800000Y-84379000I-1680000J0D01*
G01*
X77800000Y-84379000D02*
G75*
G03*
X77800000Y-84379000I-1680000J0D01*
G01*
%TO.C,R3*%
X59340000Y-59578000D02*
X59340000Y-55738000D01*
X57500000Y-59578000D02*
X57500000Y-55738000D01*
%TO.C,J2*%
X98305000Y-30517000D02*
X98351000Y-30564000D01*
X101942000Y-36850000D02*
X101942000Y-26730000D01*
X98521000Y-30324000D02*
X98556000Y-30359000D01*
X92021000Y-26730000D02*
X101942000Y-26730000D01*
X92021000Y-36850000D02*
X92021000Y-26730000D01*
X101442000Y-37090000D02*
X102182000Y-37090000D01*
X92021000Y-36850000D02*
X101942000Y-36850000D01*
X96213000Y-28015000D02*
X96259000Y-28062000D01*
X94981000Y-36850000D02*
X94981000Y-26730000D01*
X101382000Y-36850000D02*
X101382000Y-26730000D01*
X99882000Y-36850000D02*
X99882000Y-26730000D01*
X96007000Y-28220000D02*
X96043000Y-28255000D01*
X102182000Y-37090000D02*
X102182000Y-36590000D01*
X96598958Y-32754574D02*
G75*
G02*
X97966000Y-32755000I683042J-1535426D01*
G01*
X98962253Y-34261195D02*
G75*
G02*
X98817000Y-34974000I-1680253J-28805D01*
G01*
X95746574Y-34973042D02*
G75*
G02*
X95747000Y-33606000I1535426J683042D01*
G01*
X97965042Y-35825426D02*
G75*
G02*
X96598000Y-35825000I-683042J1535426D01*
G01*
X98816756Y-33606682D02*
G75*
G02*
X98962000Y-34290000I-1534756J-683318D01*
G01*
X98962000Y-29290000D02*
G75*
G03*
X98962000Y-29290000I-1680000J0D01*
G01*
%TO.C,R18*%
X91090000Y-64150000D02*
X91090000Y-60310000D01*
X89250000Y-64150000D02*
X89250000Y-60310000D01*
%TO.C,J1*%
X65298000Y-31423000D02*
X65298000Y-21502000D01*
X65538000Y-21262000D02*
X65038000Y-21262000D01*
X65538000Y-22002000D02*
X65538000Y-21262000D01*
X65298000Y-21502000D02*
X55178000Y-21502000D01*
X65298000Y-31423000D02*
X55178000Y-31423000D01*
X65298000Y-28463000D02*
X55178000Y-28463000D01*
X58772000Y-24923000D02*
X58807000Y-24888000D01*
X55178000Y-31423000D02*
X55178000Y-21502000D01*
X65298000Y-22062000D02*
X55178000Y-22062000D01*
X56668000Y-27437000D02*
X56703000Y-27401000D01*
X58965000Y-25139000D02*
X59012000Y-25093000D01*
X65298000Y-23562000D02*
X55178000Y-23562000D01*
X56463000Y-27231000D02*
X56510000Y-27185000D01*
X64273426Y-25478958D02*
G75*
G02*
X64273000Y-26846000I-1535426J-683042D01*
G01*
X62054682Y-24627244D02*
G75*
G02*
X62738000Y-24482000I683318J-1534756D01*
G01*
X62709195Y-24481747D02*
G75*
G02*
X63422000Y-24627000I28805J-1680253D01*
G01*
X63421042Y-27697426D02*
G75*
G02*
X62054000Y-27697000I-683042J1535426D01*
G01*
X61202574Y-26845042D02*
G75*
G02*
X61203000Y-25478000I1535426J683042D01*
G01*
X59418000Y-26162000D02*
G75*
G03*
X59418000Y-26162000I-1680000J0D01*
G01*
%TO.C,R24*%
X61372000Y-75580000D02*
X61372000Y-71740000D01*
X59532000Y-75580000D02*
X59532000Y-71740000D01*
%TO.C,J7*%
X37318000Y-79067000D02*
X47438000Y-79067000D01*
X37318000Y-79067000D02*
X37318000Y-88988000D01*
X43844000Y-85567000D02*
X43809000Y-85602000D01*
X43651000Y-85351000D02*
X43604000Y-85397000D01*
X46153000Y-83259000D02*
X46106000Y-83305000D01*
X37318000Y-86928000D02*
X47438000Y-86928000D01*
X45948000Y-83053000D02*
X45913000Y-83089000D01*
X37078000Y-89228000D02*
X37578000Y-89228000D01*
X37318000Y-88428000D02*
X47438000Y-88428000D01*
X37078000Y-88488000D02*
X37078000Y-89228000D01*
X37318000Y-88988000D02*
X47438000Y-88988000D01*
X37318000Y-82027000D02*
X47438000Y-82027000D01*
X47438000Y-79067000D02*
X47438000Y-88988000D01*
X39906805Y-86008253D02*
G75*
G02*
X39194000Y-85863000I-28805J1680253D01*
G01*
X41413426Y-83644958D02*
G75*
G02*
X41413000Y-85012000I-1535426J-683042D01*
G01*
X39194958Y-82792574D02*
G75*
G02*
X40562000Y-82793000I683042J-1535426D01*
G01*
X38342574Y-85011042D02*
G75*
G02*
X38343000Y-83644000I1535426J683042D01*
G01*
X40561318Y-85862756D02*
G75*
G02*
X39878000Y-86008000I-683318J1534756D01*
G01*
X46558000Y-84328000D02*
G75*
G03*
X46558000Y-84328000I-1680000J0D01*
G01*
%TO.C,R4*%
X47340000Y-59578000D02*
X47340000Y-55738000D01*
X49180000Y-59578000D02*
X49180000Y-55738000D01*
%TO.C,R17*%
X91180000Y-51420000D02*
X91180000Y-55260000D01*
X89340000Y-51420000D02*
X89340000Y-55260000D01*
%TO.C,R15*%
X48118000Y-35148000D02*
X51958000Y-35148000D01*
X48118000Y-36988000D02*
X51958000Y-36988000D01*
%TO.C,R11*%
X48118000Y-32354000D02*
X51958000Y-32354000D01*
X48118000Y-34194000D02*
X51958000Y-34194000D01*
%TO.C,J5*%
X92021000Y-61274000D02*
X101942000Y-61274000D01*
X92021000Y-71394000D02*
X101942000Y-71394000D01*
X101382000Y-71394000D02*
X101382000Y-61274000D01*
X96213000Y-62559000D02*
X96259000Y-62606000D01*
X98305000Y-65061000D02*
X98351000Y-65108000D01*
X92021000Y-71394000D02*
X92021000Y-61274000D01*
X101442000Y-71634000D02*
X102182000Y-71634000D01*
X99882000Y-71394000D02*
X99882000Y-61274000D01*
X102182000Y-71634000D02*
X102182000Y-71134000D01*
X94981000Y-71394000D02*
X94981000Y-61274000D01*
X98521000Y-64868000D02*
X98556000Y-64903000D01*
X96007000Y-62764000D02*
X96043000Y-62799000D01*
X101942000Y-71394000D02*
X101942000Y-61274000D01*
X96598958Y-67298574D02*
G75*
G02*
X97966000Y-67299000I683042J-1535426D01*
G01*
X98962253Y-68805195D02*
G75*
G02*
X98817000Y-69518000I-1680253J-28805D01*
G01*
X98816756Y-68150682D02*
G75*
G02*
X98962000Y-68834000I-1534756J-683318D01*
G01*
X95746574Y-69517042D02*
G75*
G02*
X95747000Y-68150000I1535426J683042D01*
G01*
X97965042Y-70369426D02*
G75*
G02*
X96598000Y-70369000I-683042J1535426D01*
G01*
X98962000Y-63834000D02*
G75*
G03*
X98962000Y-63834000I-1680000J0D01*
G01*
%TO.C,R16*%
X39466000Y-48118000D02*
X39466000Y-51958000D01*
X41306000Y-48118000D02*
X41306000Y-51958000D01*
%TO.C,R8*%
X46640000Y-59578000D02*
X46640000Y-55738000D01*
X44800000Y-59578000D02*
X44800000Y-55738000D01*
%TO.C,R7*%
X54960000Y-59578000D02*
X54960000Y-55738000D01*
X56800000Y-59578000D02*
X56800000Y-55738000D01*
%TO.C,J3*%
X99882000Y-48240000D02*
X99882000Y-38120000D01*
X102182000Y-48480000D02*
X102182000Y-47980000D01*
X101382000Y-48240000D02*
X101382000Y-38120000D01*
X92021000Y-48240000D02*
X92021000Y-38120000D01*
X98521000Y-41714000D02*
X98556000Y-41749000D01*
X94981000Y-48240000D02*
X94981000Y-38120000D01*
X92021000Y-48240000D02*
X101942000Y-48240000D01*
X96213000Y-39405000D02*
X96259000Y-39452000D01*
X101442000Y-48480000D02*
X102182000Y-48480000D01*
X92021000Y-38120000D02*
X101942000Y-38120000D01*
X101942000Y-48240000D02*
X101942000Y-38120000D01*
X98305000Y-41907000D02*
X98351000Y-41954000D01*
X96007000Y-39610000D02*
X96043000Y-39645000D01*
X98816756Y-44996682D02*
G75*
G02*
X98962000Y-45680000I-1534756J-683318D01*
G01*
X96598958Y-44144574D02*
G75*
G02*
X97966000Y-44145000I683042J-1535426D01*
G01*
X95746574Y-46363042D02*
G75*
G02*
X95747000Y-44996000I1535426J683042D01*
G01*
X98962253Y-45651195D02*
G75*
G02*
X98817000Y-46364000I-1680253J-28805D01*
G01*
X97965042Y-47215426D02*
G75*
G02*
X96598000Y-47215000I-683042J1535426D01*
G01*
X98962000Y-40680000D02*
G75*
G03*
X98962000Y-40680000I-1680000J0D01*
G01*
%TD*%
%LPC*%
D13*
%TO.C,R23*%
X57522500Y-76200000D03*
D14*
X57522500Y-71120000D03*
%TD*%
D15*
%TO.C,Q3*%
X77859500Y-41910000D03*
D16*
X77859500Y-43180000D03*
X77859500Y-44450000D03*
%TD*%
D13*
%TO.C,R1*%
X30480000Y-76200000D03*
D14*
X30480000Y-71120000D03*
%TD*%
D17*
%TO.C,J14*%
X34036000Y-72898000D03*
D18*
X34036000Y-75438000D03*
%TD*%
D13*
%TO.C,R27*%
X68072000Y-71120000D03*
D14*
X68072000Y-76200000D03*
%TD*%
D19*
%TO.C,H3*%
X100336000Y-86606000D03*
D20*
X98638944Y-84908944D03*
X102033056Y-84908944D03*
X97936000Y-86606000D03*
X102033056Y-88303056D03*
X98638944Y-88303056D03*
X102736000Y-86606000D03*
X100336000Y-84206000D03*
X100336000Y-89006000D03*
%TD*%
%TO.C,H1*%
X19638944Y-88303056D03*
X21336000Y-84206000D03*
X19638944Y-84908944D03*
X23033056Y-88303056D03*
X23033056Y-84908944D03*
X18936000Y-86606000D03*
X21336000Y-89006000D03*
X23736000Y-86606000D03*
D19*
X21336000Y-86606000D03*
%TD*%
D21*
%TO.C,J12*%
X38354000Y-25908000D03*
D22*
X33354000Y-25908000D03*
%TD*%
D21*
%TO.C,J4*%
X97282000Y-56896000D03*
D22*
X97282000Y-51896000D03*
%TD*%
D23*
%TO.C,*%
X71374000Y-68834000D03*
%TD*%
D15*
%TO.C,Q6*%
X70747500Y-41910000D03*
D16*
X70747500Y-43180000D03*
X70747500Y-44450000D03*
%TD*%
D21*
%TO.C,J15*%
X51094000Y-84379000D03*
D22*
X56094000Y-84379000D03*
%TD*%
D13*
%TO.C,R25*%
X62992000Y-71120000D03*
D14*
X62992000Y-76200000D03*
%TD*%
D13*
%TO.C,R10*%
X90260000Y-40894000D03*
D14*
X90260000Y-45974000D03*
%TD*%
D13*
%TO.C,R5*%
X82804000Y-40640000D03*
D14*
X82804000Y-45720000D03*
%TD*%
D24*
%TO.C,U3*%
X86345000Y-30520000D03*
D23*
X83805000Y-30520000D03*
X81265000Y-30520000D03*
X78725000Y-30520000D03*
X76185000Y-30520000D03*
X73645000Y-30520000D03*
X71105000Y-30520000D03*
X68565000Y-30520000D03*
X68565000Y-38140000D03*
X71105000Y-38140000D03*
X73645000Y-38140000D03*
X76185000Y-38140000D03*
X78725000Y-38140000D03*
X81265000Y-38140000D03*
X83805000Y-38140000D03*
X86345000Y-38140000D03*
%TD*%
D24*
%TO.C,U5*%
X89154000Y-68834000D03*
D23*
X86614000Y-68834000D03*
X84074000Y-68834000D03*
X81534000Y-68834000D03*
X78994000Y-68834000D03*
X76454000Y-68834000D03*
X73914000Y-68834000D03*
X73914000Y-76454000D03*
X76454000Y-76454000D03*
X78994000Y-76454000D03*
X81534000Y-76454000D03*
X84074000Y-76454000D03*
X86614000Y-76454000D03*
X89154000Y-76454000D03*
%TD*%
D13*
%TO.C,R22*%
X54982500Y-71120000D03*
D14*
X54982500Y-76200000D03*
%TD*%
D13*
%TO.C,R13*%
X71120000Y-25440000D03*
D14*
X76200000Y-25440000D03*
%TD*%
D25*
%TO.C,U4*%
X58420000Y-40640000D03*
X55880000Y-40640000D03*
X53340000Y-40640000D03*
X50800000Y-40640000D03*
X48260000Y-40640000D03*
X45720000Y-40640000D03*
X43180000Y-40640000D03*
X40640000Y-40640000D03*
X38100000Y-40640000D03*
X35560000Y-40640000D03*
X33020000Y-40640000D03*
X30480000Y-40640000D03*
X27940000Y-40640000D03*
X25400000Y-40640000D03*
X22860000Y-40640000D03*
X58420000Y-66040000D03*
X55880000Y-66040000D03*
X53340000Y-66040000D03*
X50800000Y-66040000D03*
X48260000Y-66040000D03*
X45720000Y-66040000D03*
X43180000Y-66040000D03*
X40640000Y-66040000D03*
X38100000Y-66040000D03*
X35560000Y-66040000D03*
X33020000Y-66040000D03*
X30480000Y-66040000D03*
X27940000Y-66040000D03*
X25400000Y-66040000D03*
X22860000Y-66040000D03*
%TD*%
D17*
%TO.C,J17*%
X86868000Y-52324000D03*
D18*
X86868000Y-54864000D03*
%TD*%
D24*
%TO.C,U2*%
X82296000Y-50800000D03*
D23*
X79756000Y-50800000D03*
X77216000Y-50800000D03*
X74676000Y-50800000D03*
X72136000Y-50800000D03*
X69596000Y-50800000D03*
X67056000Y-50800000D03*
X64516000Y-50800000D03*
X64516000Y-58420000D03*
X67056000Y-58420000D03*
X69596000Y-58420000D03*
X72136000Y-58420000D03*
X74676000Y-58420000D03*
X77216000Y-58420000D03*
X79756000Y-58420000D03*
X82296000Y-58420000D03*
%TD*%
D17*
%TO.C,J9*%
X89154000Y-25908000D03*
D18*
X86614000Y-25908000D03*
%TD*%
D13*
%TO.C,R26*%
X65532000Y-71120000D03*
D14*
X65532000Y-76200000D03*
%TD*%
D26*
%TO.C,Q4*%
X76200000Y-63500000D03*
D27*
X74930000Y-63500000D03*
X73660000Y-63500000D03*
%TD*%
D15*
%TO.C,Q1*%
X39742500Y-76200000D03*
D16*
X39742500Y-74930000D03*
X39742500Y-73660000D03*
%TD*%
D13*
%TO.C,R20*%
X43552500Y-71120000D03*
D14*
X43552500Y-76200000D03*
%TD*%
D13*
%TO.C,R19*%
X27940000Y-71120000D03*
D14*
X27940000Y-76200000D03*
%TD*%
D13*
%TO.C,R2*%
X44450000Y-31750000D03*
D14*
X44450000Y-26670000D03*
%TD*%
D13*
%TO.C,R14*%
X64516000Y-47244000D03*
D14*
X69596000Y-47244000D03*
%TD*%
D21*
%TO.C,J8*%
X24384000Y-29504000D03*
D22*
X24384000Y-34504000D03*
%TD*%
D15*
%TO.C,Q5*%
X80100000Y-27940000D03*
D16*
X80100000Y-26670000D03*
X80100000Y-25400000D03*
%TD*%
D13*
%TO.C,R21*%
X46092500Y-76200000D03*
D14*
X46092500Y-71120000D03*
%TD*%
D15*
%TO.C,Q2*%
X24265500Y-76200000D03*
D16*
X24265500Y-74930000D03*
X24265500Y-73660000D03*
%TD*%
D23*
%TO.C,*%
X71374000Y-76454000D03*
%TD*%
D17*
%TO.C,J10*%
X86868000Y-44450000D03*
D18*
X86868000Y-41910000D03*
%TD*%
D15*
%TO.C,Q7*%
X51172500Y-76200000D03*
D16*
X51172500Y-74930000D03*
X51172500Y-73660000D03*
%TD*%
D13*
%TO.C,R12*%
X38100000Y-46990000D03*
D14*
X38100000Y-52070000D03*
%TD*%
D21*
%TO.C,J6*%
X28488000Y-84379000D03*
D22*
X33488000Y-84379000D03*
%TD*%
D21*
%TO.C,J13*%
X82376000Y-84379000D03*
D22*
X87376000Y-84379000D03*
X92376000Y-84379000D03*
%TD*%
D24*
%TO.C,C3*%
X95314900Y-75438000D03*
D28*
X97814900Y-75438000D03*
%TD*%
D17*
%TO.C,J18*%
X86868000Y-60960000D03*
D18*
X86868000Y-63500000D03*
%TD*%
D13*
%TO.C,R6*%
X64262000Y-63500000D03*
D14*
X69342000Y-63500000D03*
%TD*%
D29*
%TO.C,D1*%
X51313000Y-26670000D03*
D30*
X48773000Y-26670000D03*
%TD*%
D13*
%TO.C,R9*%
X90170000Y-29210000D03*
D14*
X90170000Y-34290000D03*
%TD*%
D21*
%TO.C,J11*%
X66120000Y-84379000D03*
D22*
X71120000Y-84379000D03*
X76120000Y-84379000D03*
%TD*%
D13*
%TO.C,R3*%
X58420000Y-60198000D03*
D14*
X58420000Y-55118000D03*
%TD*%
D21*
%TO.C,J2*%
X97282000Y-34290000D03*
D22*
X97282000Y-29290000D03*
%TD*%
D13*
%TO.C,R18*%
X90170000Y-64770000D03*
D14*
X90170000Y-59690000D03*
%TD*%
D21*
%TO.C,J1*%
X62738000Y-26162000D03*
D22*
X57738000Y-26162000D03*
%TD*%
D13*
%TO.C,R24*%
X60452000Y-76200000D03*
D14*
X60452000Y-71120000D03*
%TD*%
D21*
%TO.C,J7*%
X39878000Y-84328000D03*
D22*
X44878000Y-84328000D03*
%TD*%
D13*
%TO.C,R4*%
X48260000Y-60198000D03*
D14*
X48260000Y-55118000D03*
%TD*%
D13*
%TO.C,R17*%
X90260000Y-50800000D03*
D14*
X90260000Y-55880000D03*
%TD*%
D13*
%TO.C,R15*%
X47498000Y-36068000D03*
D14*
X52578000Y-36068000D03*
%TD*%
D13*
%TO.C,R11*%
X47498000Y-33274000D03*
D14*
X52578000Y-33274000D03*
%TD*%
D21*
%TO.C,J5*%
X97282000Y-68834000D03*
D22*
X97282000Y-63834000D03*
%TD*%
D20*
%TO.C,H2*%
X100336000Y-20206000D03*
X100336000Y-25006000D03*
X102033056Y-20908944D03*
X97936000Y-22606000D03*
X102033056Y-24303056D03*
X98638944Y-24303056D03*
X102736000Y-22606000D03*
D19*
X100336000Y-22606000D03*
D20*
X98638944Y-20908944D03*
%TD*%
D13*
%TO.C,R16*%
X40386000Y-47498000D03*
D14*
X40386000Y-52578000D03*
%TD*%
D13*
%TO.C,R8*%
X45720000Y-60198000D03*
D14*
X45720000Y-55118000D03*
%TD*%
D20*
%TO.C,H4*%
X18936000Y-22606000D03*
X23736000Y-22606000D03*
X19638944Y-20908944D03*
X23033056Y-20908944D03*
X23033056Y-24303056D03*
D19*
X21336000Y-22606000D03*
D20*
X19638944Y-24303056D03*
X21336000Y-25006000D03*
X21336000Y-20206000D03*
%TD*%
D13*
%TO.C,R7*%
X55880000Y-60198000D03*
D14*
X55880000Y-55118000D03*
%TD*%
D21*
%TO.C,J3*%
X97282000Y-45680000D03*
D22*
X97282000Y-40680000D03*
%TD*%
M02*
